<?xml version="1.0" encoding="UTF-8" standalone="no"?>
<!-- Created with Inkscape (http://www.inkscape.org/) -->

<svg
   width="296.79623mm"
   height="210.31487mm"
   viewBox="0 0 296.79623 210.31487"
   version="1.1"
   id="svg1"
   xml:space="preserve"
   xmlns:inkscape="http://www.inkscape.org/namespaces/inkscape"
   xmlns:sodipodi="http://sodipodi.sourceforge.net/DTD/sodipodi-0.dtd"
   xmlns:xlink="http://www.w3.org/1999/xlink"
   xmlns="http://www.w3.org/2000/svg"
   xmlns:svg="http://www.w3.org/2000/svg"><sodipodi:namedview
     id="namedview1"
     pagecolor="#ffffff"
     bordercolor="#000000"
     borderopacity="0.25"
     inkscape:showpageshadow="2"
     inkscape:pageopacity="0.0"
     inkscape:pagecheckerboard="0"
     inkscape:deskcolor="#d1d1d1"
     inkscape:document-units="mm" /><defs
     id="defs1"><symbol
       id="photo"
       viewBox="0 0 515.5625 378.70703"><title
         id="title59">Photo</title><path
         d="M 196.55664,8.4570615e-8 A 2.550255,2.550255 0 0 0 194.45312,1.1074221 L 168.87891,38.435555 a 2.550255,2.550255 0 0 0 2.10351,3.99218 h 172.62305 a 2.550255,2.550255 0 0 0 2.16406,-3.90039 L 322.45703,1.1992191 A 2.550255,2.550255 0 0 0 320.29492,1.8457061e-7 Z M 234.84375,9.5585951 h 46.76953 V 33.705085 H 234.84375 Z M 404,15.787115 a 2.550255,2.550255 0 0 0 -2.34766,1.55273 l -9.04882,21.29492 a 2.550255,2.550255 0 0 0 2.34765,3.54688 h 68.21289 a 2.550255,2.550255 0 0 0 2.37696,-3.47266 l -8.26172,-21.29492 a 2.550255,2.550255 0 0 0 -2.37696,-1.62695 z m -332.21484,7.32812 a 2.550255,2.550255 0 0 0 -2.42969,1.77149 l -4.425782,13.82031 a 2.550255,2.550255 0 0 0 2.427732,3.32813 h 45.88672 a 2.550255,2.550255 0 0 0 2.48438,-3.125 l -3.19727,-13.82032 a 2.550255,2.550255 0 0 0 -2.48437,-1.97461 z M 44.5,51.894535 c -24.651533,0 -44.5,19.84847 -44.5,44.5 V 334.20703 c 0,24.65153 19.848467,44.5 44.5,44.5 h 426.5625 c 24.65153,0 44.5,-19.84847 44.5,-44.5 V 96.394535 c 0,-24.65153 -19.84847,-44.5 -44.5,-44.5 z m 260.25,42.96875 c 65.25142,0 118.15625,52.873585 118.15625,118.124995 0,65.25142 -52.90483,118.15625 -118.15625,118.15625 -65.25142,0 -118.15625,-52.90483 -118.15625,-118.15625 0,-65.25142 52.90483,-118.124995 118.15625,-118.124995 z m -0.002,47.552735 a 70.582011,70.582011 0 0 0 -70.58203,70.58204 70.582011,70.582011 0 0 0 70.58203,70.58203 70.582011,70.582011 0 0 0 70.58203,-70.58203 70.582011,70.582011 0 0 0 -70.58203,-70.58204 z"
         id="path60" /></symbol></defs><g
     inkscape:groupmode="layer"
     id="layer2"
     inkscape:label="Ebene 2"
     style="display:inline"
     transform="translate(-0.81355397,-0.20763937)"><rect
       style="display:inline;opacity:1;fill:#d1e8f7;fill-opacity:1;stroke-width:1.04818"
       id="rect16"
       width="296.71875"
       height="210.29782"
       x="0.86501884"
       y="0.22469424"
       ry="0.64115191"
       inkscape:export-filename="blog.svg"
       inkscape:export-xdpi="96"
       inkscape:export-ydpi="96" /></g><g
     inkscape:label="Ebene 1"
     inkscape:groupmode="layer"
     id="layer1"
     transform="translate(-0.81355397,-0.20763937)"><rect
       style="display:inline;opacity:1;fill:#ffffff;fill-opacity:1;stroke:none;stroke-width:0.264583;stroke-opacity:1"
       id="rect23"
       width="181.43524"
       height="175.29037"
       x="69.857422"
       y="32.017986"
       ry="2.8179858" /><rect
       style="display:inline;opacity:1;fill:#d1e8f7;fill-opacity:1;stroke:none;stroke-width:0.236176;stroke-opacity:1"
       id="rect24"
       width="30.400915"
       height="11.966318"
       x="96.053963"
       y="188.22693"
       ry="2.3170106" /><rect
       style="display:inline;opacity:1;fill:#ffff00;fill-opacity:1;stroke:none;stroke-width:0.260397;stroke-opacity:1"
       id="rect25"
       width="135.18706"
       height="64.035965"
       x="93.466644"
       y="75.355453"
       ry="2.7621841" /><text
       xml:space="preserve"
       style="font-size:12.6358px;display:inline;opacity:1;fill:#000080;fill-opacity:1;stroke:none;stroke-width:1.05299;stroke-opacity:1"
       x="106.49869"
       y="46.917385"
       id="text25"
       transform="scale(0.87050523,1.1487582)"><tspan
         sodipodi:role="line"
         id="tspan25"
         style="fill:#000080;stroke-width:1.05299"
         x="106.49869"
         y="46.917385">Dies ist der Titel</tspan></text><text
       xml:space="preserve"
       style="font-size:7.19186px;display:inline;opacity:1;fill:#008000;fill-opacity:1;stroke:none;stroke-width:0.599321;stroke-opacity:1"
       x="110.98002"
       y="55.545681"
       id="text26"
       transform="scale(0.84258626,1.1868221)"><tspan
         sodipodi:role="line"
         id="tspan26"
         style="fill:#008000;stroke-width:0.599321"
         x="110.98002"
         y="55.545681">Datum</tspan></text><rect
       style="display:inline;opacity:0.160748;fill:#800000;fill-opacity:1;stroke:none;stroke-width:0.264583;stroke-opacity:1"
       id="rect27"
       width="137.12753"
       height="21.992151"
       x="93.466637"
       y="150.71092"
       ry="2.8179858" /><text
       xml:space="preserve"
       style="font-size:18.9285px;display:inline;fill:#800000;fill-opacity:1;stroke:none;stroke-width:1.57737;stroke-opacity:1"
       x="161.74396"
       y="143.13112"
       id="text27"
       transform="scale(0.84142284,1.1884631)"><tspan
         sodipodi:role="line"
         id="tspan27"
         style="fill:#800000;stroke-width:1.57737"
         x="161.74396"
         y="143.13112">Artikel</tspan></text><rect
       style="opacity:1;fill:#ffffff;fill-opacity:1;stroke-width:0.531403"
       id="rect13"
       width="296.79623"
       height="21.144724"
       x="0.81355399"
       y="0.20763937"
       ry="0"
       inkscape:export-filename=".\blog.svg"
       inkscape:export-xdpi="96"
       inkscape:export-ydpi="96" /><rect
       style="opacity:1;fill:#000080;fill-opacity:1;stroke-width:0.383915"
       id="rect17"
       width="37.044975"
       height="9.5433359"
       x="250.55809"
       y="6.9337044"
       ry="4.199883" /><rect
       style="opacity:1;fill:#cccccc;fill-opacity:1;stroke-width:0.383915"
       id="rect18"
       width="37.044975"
       height="9.5433359"
       x="207.9133"
       y="6.0248156"
       ry="4.199883" /><rect
       style="opacity:1;fill:#cccccc;fill-opacity:1;stroke-width:0.383915"
       id="rect19"
       width="37.044975"
       height="9.5433359"
       x="162.68396"
       y="5.5703712"
       ry="4.199883" /><rect
       style="opacity:1;fill:#cccccc;fill-opacity:1;stroke-width:0.383915"
       id="rect20"
       width="37.044975"
       height="9.5433359"
       x="117.88539"
       y="4.6614823"
       ry="4.199883" /><use
       xlink:href="#photo"
       width="515.5625"
       height="378.70703"
       style="fill:#000000;stroke:none"
       id="use1"
       transform="matrix(0.10148451,0,0,0.10488623,102.88138,86.704333)" /><text
       xml:space="preserve"
       style="font-size:35.4363px;opacity:1;fill:#000000;fill-opacity:1;stroke:none;stroke-width:2.95302;stroke-opacity:1"
       x="178.56421"
       y="113.4653"
       id="text28"
       transform="scale(0.91150849,1.0970825)"><tspan
         sodipodi:role="line"
         id="tspan28"
         style="fill:#000000;stroke-width:2.95302"
         x="178.56421"
         y="113.4653">Bild</tspan></text></g></svg>
