<?xml version="1.0" encoding="UTF-8" standalone="no"?>
<!-- Created with Inkscape (http://www.inkscape.org/) -->

<svg
   width="217.59076mm"
   height="217.59076mm"
   viewBox="0 0 217.59076 217.59076"
   version="1.1"
   id="svg62660"
   inkscape:version="1.2.2 (b0a8486541, 2022-12-01)"
   sodipodi:docname="Deutsches_Schwimmabzeichen_in_Bronze.svg"
   xmlns:inkscape="http://www.inkscape.org/namespaces/inkscape"
   xmlns:sodipodi="http://sodipodi.sourceforge.net/DTD/sodipodi-0.dtd"
   xmlns="http://www.w3.org/2000/svg"
   xmlns:svg="http://www.w3.org/2000/svg">
  <sodipodi:namedview
     id="namedview62662"
     pagecolor="#ffffff"
     bordercolor="#666666"
     borderopacity="1.0"
     inkscape:pageshadow="2"
     inkscape:pageopacity="0.0"
     inkscape:pagecheckerboard="0"
     inkscape:document-units="mm"
     showgrid="false"
     fit-margin-top="5"
     fit-margin-left="5"
     fit-margin-right="5"
     fit-margin-bottom="5"
     inkscape:zoom="1.0076756"
     inkscape:cx="423.74747"
     inkscape:cy="674.82033"
     inkscape:window-width="1920"
     inkscape:window-height="1005"
     inkscape:window-x="0"
     inkscape:window-y="0"
     inkscape:window-maximized="1"
     inkscape:current-layer="layer1"
     inkscape:showpageshadow="2"
     inkscape:deskcolor="#d1d1d1" />
  <defs
     id="defs62657" />
  <g
     inkscape:label="Ebene 1"
     inkscape:groupmode="layer"
     id="layer1"
     transform="translate(89.386007,37.383541)">
    <circle
       style="fill:transparent;stroke:#666699;stroke-width:4.09025;stroke-linejoin:round;stroke-miterlimit:4;stroke-dasharray:none;stroke-opacity:1"
       id="path859-9"
       cx="19.141716"
       cy="70.951065"
       r="102.07671" />
    <path
       style="fill:#666699;fill-opacity:1;stroke:none;stroke-width:0.270554px;stroke-linecap:butt;stroke-linejoin:miter;stroke-opacity:1"
       d="m 47.083149,169.8619 v -39.45457 l 43.691297,-9.79743 v 9.79743 h 10.591824 c -9.488509,16.06428 -33.143599,32.79055 -54.283121,39.45457 z"
       id="path29053"
       sodipodi:nodetypes="cccccc" />
    <path
       style="fill:none;stroke:#666699;stroke-width:7.15795;stroke-linecap:butt;stroke-linejoin:miter;stroke-miterlimit:4;stroke-dasharray:none;stroke-opacity:1"
       d="m -55.04656,143.24992 c 10.547147,2.2535 21.939626,2.12378 31.692386,-0.38906 12.533326,3.15208 24.5370608,3.12662 35.61401,-0.47361 12.622819,3.90455 26.497569,1.78072 38.06121,-1.3975"
       id="path29373"
       sodipodi:nodetypes="cccc" />
    <path
       style="fill:none;stroke:#666699;stroke-width:7.15795;stroke-linecap:butt;stroke-linejoin:miter;stroke-miterlimit:4;stroke-dasharray:none;stroke-opacity:1"
       d="m -35.990674,158.95984 c 3.352574,-0.12972 9.678255,-1.80277 13.030829,-1.9325 11.609378,3.20222 23.74834827,3.2269 34.828135,0.0741 12.620933,3.15019 27.872625,1.18232 38.639998,-2.02258"
       id="path29375"
       sodipodi:nodetypes="cccc" />
    <path
       style="fill:none;stroke:#666699;stroke-width:7.15795;stroke-linecap:butt;stroke-linejoin:miter;stroke-miterlimit:4;stroke-dasharray:none;stroke-opacity:1"
       d="m -2.3161845,172.81618 c 4.1513351,-0.45151 12.4219275,-1.09028 16.5732565,-2.85247 4.565511,1.83974 13.250269,3.30502 18.190254,4.02135"
       id="path29377"
       sodipodi:nodetypes="ccc" />
    <ellipse
       style="font-variation-settings:normal;opacity:1;vector-effect:none;fill:#af7506;fill-opacity:1;stroke:#666699;stroke-width:2.55641;stroke-linecap:round;stroke-linejoin:round;stroke-miterlimit:4;stroke-dasharray:none;stroke-dashoffset:0;stroke-opacity:1;-inkscape-stroke:none;stop-color:#000000;stop-opacity:1"
       id="path22838"
       cx="-42.775253"
       cy="54.801712"
       rx="16.51671"
       ry="16.516714" />
    <path
       style="fill:#af7506;fill-opacity:1;stroke:#666699;stroke-width:2.55641;stroke-linecap:round;stroke-linejoin:round;stroke-miterlimit:4;stroke-dasharray:none;stroke-opacity:1"
       d="M 46.397265,30.132983 16.064566,46.235531 c -7.749589,3.872407 -5.030033,6.635682 -4.119254,8.612984 l 32.383387,61.111275 c 7.935157,15.03949 28.050929,2.93741 20.230741,-11.68021 L 41.289426,58.967769 c -2.153244,-4.648799 -4.02564,-8.361411 0,-10.576111 L 61.793333,36.553713 C 83.672966,23.879803 65.931085,-19.192693 37.222557,-6.0041128 L -15.017082,21.33276 c -11.296746,5.492343 -9.299532,16.976326 -3.557541,25.464486 L 15.31561,111.95636 c 6.037941,12.18743 29.013089,4.00343 20.596275,-11.79604 L 12.659699,56.26454"
       id="path27862"
       sodipodi:nodetypes="ccccccccccccc" />
    <circle
       style="fill:none;stroke:#cc6600;stroke-width:4.09025;stroke-linejoin:round;stroke-miterlimit:4;stroke-dasharray:none;stroke-opacity:1"
       id="path859"
       cx="19.141716"
       cy="70.951065"
       r="105.94582" />
  </g>
</svg>
