<svg xmlns="http://www.w3.org/2000/svg" height="24" viewBox="0 -960 960 960" width="24"><path d="M580-244q-40.74 0-68.87-28.13Q483-300.26 483-341q0-40.74 28.13-68.87Q539.26-438 580-438q40.74 0 68.87 28.13Q677-381.74 677-341q0 40.74-28.13 68.87Q620.74-244 580-244ZM210.783-70.782q-42.242 0-71.622-29.379-29.379-29.38-29.379-71.622v-538.434q0-42.242 29.379-71.622 29.38-29.379 71.622-29.379H249v-36.283q0-17.761 13.261-30.739 13.261-12.978 31.022-12.978t30.739 12.978q12.979 12.978 12.979 30.739v36.283h285.998v-36.283q0-17.761 13.261-30.739 13.261-12.978 31.022-12.978t30.74 12.978Q711-865.262 711-847.501v36.283h38.217q42.242 0 71.622 29.379 29.379 29.38 29.379 71.622v538.434q0 42.242-29.379 71.622-29.38 29.38-71.622 29.38H210.783Zm0-101.001h538.434V-558H210.783v386.217Z"/></svg>