<?xml version="1.0" encoding="UTF-8" standalone="no"?>
<!-- Created with Inkscape (http://www.inkscape.org/) -->

<svg
   width="297mm"
   height="122mm"
   viewBox="0 0 297 122"
   version="1.1"
   id="svg5"
   xml:space="preserve"
   inkscape:version="1.2.2 (b0a8486541, 2022-12-01)"
   sodipodi:docname="freibadLogo.svg"
   xmlns:inkscape="http://www.inkscape.org/namespaces/inkscape"
   xmlns:sodipodi="http://sodipodi.sourceforge.net/DTD/sodipodi-0.dtd"
   xmlns="http://www.w3.org/2000/svg"
   xmlns:svg="http://www.w3.org/2000/svg"><sodipodi:namedview
     id="namedview7"
     pagecolor="#ffffff"
     bordercolor="#000000"
     borderopacity="0.25"
     inkscape:showpageshadow="2"
     inkscape:pageopacity="0.0"
     inkscape:pagecheckerboard="0"
     inkscape:deskcolor="#d1d1d1"
     inkscape:document-units="mm"
     showgrid="false"
     inkscape:zoom="0.83039936"
     inkscape:cx="426.90303"
     inkscape:cy="355.85288"
     inkscape:window-width="1920"
     inkscape:window-height="1048"
     inkscape:window-x="0"
     inkscape:window-y="0"
     inkscape:window-maximized="1"
     inkscape:current-layer="layer3" /><defs
     id="defs2" /><g
     inkscape:groupmode="layer"
     id="layer3"
     inkscape:label="Ebene 2"
     style="display:inline;fill:#000000"><ellipse
       style="display:inline;stroke-width:0.2261;fill-opacity:1"
       id="path347"
       cx="76.802856"
       cy="38.582787"
       rx="30"
       ry="28.582788" /><path
       style="stroke-width:0.264583;fill-opacity:1"
       d="m 2.2042343,94.058664 0.047416,5 c 1.7296559,-9.5e-4 11.7255877,15.377486 20.2168747,15.502806 8.835147,0.13039 19.681908,-15.534336 21.502428,-15.502806 l -0.146774,-5 C 41.955276,94.034864 30.766813,106.45844 22.580441,106.38361 14.64286,106.31101 4.0386063,94.068714 2.2042343,94.058664 Z"
       id="path771"
       sodipodi:nodetypes="ccaccac" /><path
       style="stroke-width:0.264583;fill-opacity:1"
       d="m 43.812955,94.058664 0.04742,5 c 1.729656,-9.5e-4 11.725588,15.377486 20.216875,15.502806 8.835147,0.13039 19.681908,-15.534336 21.502428,-15.502806 l -0.146774,-5 C 83.564001,94.034864 72.375538,106.45844 64.189166,106.38361 56.251585,106.31101 45.647331,94.068714 43.812959,94.058664 Z"
       id="path771-3"
       sodipodi:nodetypes="ccaccac" /><path
       style="stroke-width:0.264583;fill-opacity:1"
       d="m 85.15056,94.058664 0.04742,5 c 1.729656,-9.5e-4 11.725585,15.377486 20.21687,15.502806 8.83515,0.13039 19.68191,-15.534336 21.50243,-15.502806 l -0.14728,-5 c -1.8689,-0.0238 -13.057,12.399776 -21.24323,12.324946 C 97.589313,106.31101 86.985373,94.068714 85.151,94.058664 Z"
       id="path771-6"
       sodipodi:nodetypes="ccaccacc" /><path
       style="stroke-width:0.264583;fill-opacity:1"
       d="m 126.62358,94.080684 0.0474,5 c 1.72966,-9.5e-4 11.72559,15.377486 20.21687,15.502806 8.83515,0.13039 19.68191,-15.534336 21.50243,-15.502806 l -0.14628,-5 c -1.8689,-0.0238 -13.05775,12.403106 -21.24423,12.324946 -7.94123,-0.0758 -18.54139,-12.336946 -20.37577,-12.346996 z"
       id="path771-7"
       sodipodi:nodetypes="ccaccacc" /><path
       style="stroke-width:0.264583;fill-opacity:1"
       d="m 168.09455,94.058664 0.0474,5 c 1.72966,-9.5e-4 11.72559,15.377486 20.21687,15.502806 8.83515,0.13039 19.68191,-15.534336 21.50243,-15.502806 l -0.14725,-5 c -1.8689,-0.0238 -13.05702,12.399786 -21.24326,12.324946 -7.93745,-0.0726 -18.54136,-12.314926 -20.37574,-12.324976 z"
       id="path771-5"
       sodipodi:nodetypes="ccaccacc" /><path
       style="stroke-width:0.264583;fill-opacity:1"
       d="m 209.55324,94.092024 0.0474,5 c 1.72966,-9.5e-4 11.72559,15.377486 20.21687,15.502806 8.83515,0.13039 19.68191,-15.534336 21.50243,-15.502806 l -0.14694,-5 c -1.8689,-0.0238 -13.05724,12.399746 -21.24357,12.324946 -7.93765,-0.0725 -18.54205,-12.314896 -20.37643,-12.324946 z"
       id="path771-35"
       sodipodi:nodetypes="ccaccacc" /><path
       style="stroke-width:0.264583;fill-opacity:1"
       d="m 251.173,94.058664 0.055,5 c 1.72966,-9.5e-4 11.72,15.376746 20.20927,15.502806 8.83513,0.13119 19.6819,-15.534336 21.50242,-15.502806 l -0.14677,-5 c -1.8689,-0.0238 -13.05741,12.404686 -21.24374,12.324946 -7.92185,-0.0772 -18.4868,-12.314896 -20.32118,-12.324946 z"
        id="logoBody"
       sodipodi:nodetypes="ccaccacc" /><path
       style="stroke-width:0.264583;fill-opacity:1"
       d="M 85.098315,84.058634 162.91061,15.751815 257.082,44.566879 233.74835,55.676884 168.095,41.844417 157.4122,57.994914 251.173,84.058634 Z"
       id="path870"
       sodipodi:nodetypes="cccccccc" /><path
       style="stroke-width:0.267038;fill-opacity:1"
       d="m 85.151,83.958634 h 41.47725 c -6.00954,-0.0144 -12.30952,13.47793 -20.49366,13.52216 -8.320935,0.04497 -14.985723,-13.53826 -20.98359,-13.52216 z"
       id="path958"
       sodipodi:nodetypes="ccac" /><path
       style="display:inline;stroke-width:0.267038;fill-opacity:1"
       d="m 126.624,83.958634 h 41.62 c -6.00954,-0.0144 -13.01057,13.72521 -21.48551,13.59917 -8.09804,-0.12044 -14.13662,-13.61527 -20.13449,-13.59917 z"
       id="path958-1"
       sodipodi:nodetypes="ccac" /><path
       style="display:inline;stroke-width:0.267038;fill-opacity:1"
       d="m 168.095,83.958634 h 41.619 c -6.00954,-0.0144 -13.69763,13.91327 -22.43771,13.59917 -7.8326,-0.28149 -13.18343,-13.61527 -19.18129,-13.59917 z"
       id="path958-2"
       sodipodi:nodetypes="ccac" /><path
       style="display:inline;stroke-width:0.267038;fill-opacity:1"
       d="m 209.553,83.958634 h 41.62 c -6.00954,-0.0144 -14.7429,14.22379 -23.88258,13.59917 -7.43289,-0.50797 -11.73955,-13.61527 -17.73742,-13.59917 z"
       id="path958-7"
       sodipodi:nodetypes="ccac" /></g></svg>
