<?xml version="1.0" encoding="UTF-8" standalone="no"?>
<svg
   width="300"
   height="100"
   version="1.1"
   id="svg11"
   sodipodi:docname="flathub.svg"
   inkscape:export-filename="getGithub.svg"
   inkscape:export-xdpi="96"
   inkscape:export-ydpi="96"
   xmlns:inkscape="http://www.inkscape.org/namespaces/inkscape"
   xmlns:sodipodi="http://sodipodi.sourceforge.net/DTD/sodipodi-0.dtd"
   xmlns="http://www.w3.org/2000/svg"
   xmlns:svg="http://www.w3.org/2000/svg">
  <defs
     id="defs11" />
  <sodipodi:namedview
     id="namedview11"
     pagecolor="#ffffff"
     bordercolor="#000000"
     borderopacity="0.25"
     inkscape:showpageshadow="2"
     inkscape:pageopacity="0.0"
     inkscape:pagecheckerboard="0"
     inkscape:deskcolor="#d1d1d1" />
  <g
     transform="translate(-348.1,-151.685)"
     id="g11">
    <rect
       style="vector-effect:none;fill:#000000;fill-opacity:1;stroke:#888a85;stroke-width:1.88346;stroke-linecap:butt;stroke-linejoin:miter;stroke-miterlimit:4;stroke-dasharray:none;stroke-dashoffset:0;stroke-opacity:1;marker:none;paint-order:normal"
       width="297.117"
       height="97.782997"
       x="349.04199"
       y="152.627"
       rx="16"
       ry="16"
       id="rect1" />
  </g>
  <path
     fill-rule="evenodd"
     clip-rule="evenodd"
     d="m 55.225426,18.852073 c -17.565338,0 -31.792469,13.578064 -31.792469,30.342044 0,13.426357 9.100592,24.766693 21.738098,28.78702 1.589625,0.265494 2.185733,-0.644776 2.185733,-1.441246 0,-0.720623 -0.03973,-3.110057 -0.03973,-5.651209 -7.987855,1.403317 -10.054366,-1.858449 -10.690217,-3.565193 -0.35766,-0.872332 -1.907548,-3.565189 -3.258723,-4.285814 -1.112744,-0.568913 -2.702362,-1.972232 -0.03973,-2.010159 2.503655,-0.03792 4.291982,2.199798 4.88809,3.110063 2.861327,4.589229 7.431488,3.299691 9.259556,2.503218 0.278186,-1.972232 1.112738,-3.299702 2.026769,-4.05825 -7.073822,-0.758551 -14.465569,-3.375555 -14.465569,-14.981388 0,-3.299696 1.23196,-6.03048 3.258724,-8.154424 -0.317923,-0.758552 -1.430662,-3.868609 0.317928,-8.040643 0,0 2.662619,-0.796479 8.742927,3.110056 2.543398,-0.682692 5.24576,-1.024039 7.948116,-1.024039 2.702358,0 5.40471,0.341347 7.948124,1.024039 6.080297,-3.944462 8.74292,-3.110056 8.74292,-3.110056 1.748584,4.172034 0.635841,7.282091 0.317927,8.040643 2.02677,2.123944 3.258723,4.816801 3.258723,8.154424 0,11.64376 -7.431486,14.222837 -14.505304,14.981388 1.152472,0.948186 2.145993,2.768711 2.145993,5.613276 0,4.058259 -0.03977,7.320022 -0.03977,8.344068 0,0.79647 0.5961,1.74467 2.185734,1.441246 12.557964,-4.020327 21.658565,-15.39859 21.658565,-28.78702 0,-16.76398 -14.227131,-30.342044 -31.792467,-30.342044 z"
     fill="#1B1F23"
     id="path833"
     style="fill:#ffffff;fill-opacity:1;stroke-width:3.88235" />
  <text
     xml:space="preserve"
     style="font-size:20.7111px;font-family:Sans;-inkscape-font-specification:'Sans, Normal';fill:#ffffff;fill-opacity:1;stroke:none;stroke-width:2.21905;stroke-opacity:1"
     x="105.97545"
     y="35.627949"
     id="text91"
     transform="scale(0.9958027,1.004215)"><tspan
       sodipodi:role="line"
       id="tspan91"
       x="105.97545"
       y="35.627949"
       style="stroke-width:2.21905">Get it from</tspan></text>
  <text
     xml:space="preserve"
     style="font-style:normal;font-variant:normal;font-weight:bold;font-stretch:normal;font-size:38.6609px;font-family:Sans;-inkscape-font-specification:'Sans, Bold';font-variant-ligatures:normal;font-variant-caps:normal;font-variant-numeric:normal;font-variant-east-asian:normal;fill:#ffffff;fill-opacity:1;stroke:none;stroke-width:4.14225;stroke-opacity:1"
     x="107.35043"
     y="71.917236"
     id="text92"
     transform="scale(0.94373313,1.0596216)"><tspan
       sodipodi:role="line"
       id="tspan92"
       x="107.35043"
       y="71.917236"
       style="font-style:normal;font-variant:normal;font-weight:bold;font-stretch:normal;font-size:38.6609px;font-family:Sans;-inkscape-font-specification:'Sans, Bold';font-variant-ligatures:normal;font-variant-caps:normal;font-variant-numeric:normal;font-variant-east-asian:normal;stroke-width:4.14225">Github</tspan></text>
</svg>
