<?xml version="1.0" encoding="UTF-8" standalone="no"?>
<svg
   width="300"
   height="100"
   version="1.1"
   id="svg11"
   sodipodi:docname="getGithub.svg"
   inkscape:export-filename="getGithub.svg"
   inkscape:export-xdpi="96"
   inkscape:export-ydpi="96"
   inkscape:version="1.4 (e7c3feb100, 2024-10-09)"
   xmlns:inkscape="http://www.inkscape.org/namespaces/inkscape"
   xmlns:sodipodi="http://sodipodi.sourceforge.net/DTD/sodipodi-0.dtd"
   xmlns="http://www.w3.org/2000/svg"
   xmlns:svg="http://www.w3.org/2000/svg">
  <defs
     id="defs11" />
  <sodipodi:namedview
     id="namedview11"
     pagecolor="#ffffff"
     bordercolor="#000000"
     borderopacity="0.25"
     inkscape:showpageshadow="2"
     inkscape:pageopacity="0.0"
     inkscape:pagecheckerboard="0"
     inkscape:deskcolor="#d1d1d1"
     inkscape:zoom="4.3466667"
     inkscape:cx="150"
     inkscape:cy="49.923313"
     inkscape:window-width="1876"
     inkscape:window-height="1052"
     inkscape:window-x="0"
     inkscape:window-y="0"
     inkscape:window-maximized="1"
     inkscape:current-layer="svg11" />
  <g
     transform="translate(-348.1,-151.685)"
     id="g11">
    <path
       id="rect1"
       style="vector-effect:none;stroke:#888a85;stroke-width:1.88346;marker:none"
       d="M 365.04199,152.627 H 630.159 c 8.864,0 16,7.136 16,16 v 65.783 c 0,8.864 -7.136,16 -16,16 H 365.04199 c -8.864,0 -16,-7.136 -16,-16 v -65.783 c 0,-8.864 7.136,-16 16,-16 z" />
  </g>
  <path
     fill-rule="evenodd"
     clip-rule="evenodd"
     d="m 55.225426,18.852073 c -17.565338,0 -31.792469,13.578064 -31.792469,30.342044 0,13.426357 9.100592,24.766693 21.738098,28.78702 1.589625,0.265494 2.185733,-0.644776 2.185733,-1.441246 0,-0.720623 -0.03973,-3.110057 -0.03973,-5.651209 -7.987855,1.403317 -10.054366,-1.858449 -10.690217,-3.565193 -0.35766,-0.872332 -1.907548,-3.565189 -3.258723,-4.285814 -1.112744,-0.568913 -2.702362,-1.972232 -0.03973,-2.010159 2.503655,-0.03792 4.291982,2.199798 4.88809,3.110063 2.861327,4.589229 7.431488,3.299691 9.259556,2.503218 0.278186,-1.972232 1.112738,-3.299702 2.026769,-4.05825 -7.073822,-0.758551 -14.465569,-3.375555 -14.465569,-14.981388 0,-3.299696 1.23196,-6.03048 3.258724,-8.154424 -0.317923,-0.758552 -1.430662,-3.868609 0.317928,-8.040643 0,0 2.662619,-0.796479 8.742927,3.110056 2.543398,-0.682692 5.24576,-1.024039 7.948116,-1.024039 2.702358,0 5.40471,0.341347 7.948124,1.024039 6.080297,-3.944462 8.74292,-3.110056 8.74292,-3.110056 1.748584,4.172034 0.635841,7.282091 0.317927,8.040643 2.02677,2.123944 3.258723,4.816801 3.258723,8.154424 0,11.64376 -7.431486,14.222837 -14.505304,14.981388 1.152472,0.948186 2.145993,2.768711 2.145993,5.613276 0,4.058259 -0.03977,7.320022 -0.03977,8.344068 0,0.79647 0.5961,1.74467 2.185734,1.441246 12.557964,-4.020327 21.658565,-15.39859 21.658565,-28.78702 0,-16.76398 -14.227131,-30.342044 -31.792467,-30.342044 z"
     fill="#1B1F23"
     id="path833"
     style="fill:#ffffff;fill-opacity:1;stroke-width:3.88235" />
  <path
     d="m 114.40487,27.819864 h 5.11564 v 7.248885 q -1.20125,0.393511 -2.4232,0.579911 -1.22196,0.1864 -2.77529,0.1864 -2.29893,0 -3.87297,-0.911289 -1.57405,-0.931999 -2.40249,-2.630309 -0.80773,-1.719022 -0.80773,-4.059376 0,-2.319643 0.91128,-4.017953 0.91129,-1.69831 2.6096,-2.63031 1.71902,-0.95271 4.14222,-0.95271 1.24267,0 2.34036,0.227822 1.1184,0.227822 2.07111,0.642044 l -0.70418,1.615466 q -0.78702,-0.352089 -1.78116,-0.600622 -0.97342,-0.248533 -2.02968,-0.248533 -2.65102,0 -4.14222,1.594754 -1.47049,1.594755 -1.47049,4.370042 0,1.760444 0.5592,3.127376 0.57991,1.346222 1.80186,2.112532 1.22196,0.7456 3.21022,0.7456 0.97343,0 1.65689,-0.103556 0.68347,-0.103555 1.24267,-0.248533 v -4.390753 h -3.25164 z m 12.69591,-3.500176 q 1.42907,0 2.44391,0.621333 1.03556,0.621333 1.57405,1.760444 0.5592,1.118399 0.5592,2.630309 v 1.097689 h -7.60098 q 0.0414,1.88471 0.95271,2.878843 0.932,0.973421 2.58889,0.973421 1.05627,0 1.864,-0.1864 0.82844,-0.207111 1.69831,-0.57991 v 1.594754 q -0.84915,0.3728 -1.6776,0.538489 -0.82844,0.1864 -1.96755,0.1864 -1.57405,0 -2.796,-0.642044 -1.20125,-0.642044 -1.88471,-1.905421 -0.66276,-1.284089 -0.66276,-3.127377 0,-1.822576 0.60062,-3.127376 0.62134,-1.304799 1.71903,-2.008976 1.1184,-0.704178 2.58888,-0.704178 z m -0.0207,1.4912 q -1.3048,0 -2.07111,0.849155 -0.7456,0.828444 -0.89057,2.319643 h 5.65413 q -0.0207,-1.408355 -0.66276,-2.278221 -0.64204,-0.890577 -2.02969,-0.890577 z m 11.12184,8.532973 q 0.41423,0 0.84916,-0.06213 0.43493,-0.08284 0.70418,-0.165689 v 1.387644 q -0.28996,0.144978 -0.82845,0.227822 -0.53849,0.103556 -1.03555,0.103556 -0.86987,0 -1.61547,-0.289956 -0.72489,-0.310666 -1.18053,-1.056266 -0.45564,-0.745599 -0.45564,-2.091821 v -6.461863 h -1.57405 v -0.869866 l 1.59476,-0.724889 0.72489,-2.361065 h 1.07697 v 2.547465 h 3.21022 v 1.408355 h -3.21022 v 6.420441 q 0,1.014844 0.47636,1.51191 0.49706,0.476356 1.26337,0.476356 z m 10.08632,-13.979993 q 0.41422,0 0.72488,0.289956 0.33138,0.269244 0.33138,0.869866 0,0.579911 -0.33138,0.869866 -0.31066,0.289955 -0.72488,0.289955 -0.45565,0 -0.76631,-0.289955 -0.31067,-0.289955 -0.31067,-0.869866 0,-0.600622 0.31067,-0.869866 0.31066,-0.289956 0.76631,-0.289956 z m 0.89057,4.162931 v 11.10115 h -1.82257 v -11.10115 z m 7.22817,9.817062 q 0.41422,0 0.84915,-0.06213 0.43493,-0.08284 0.70418,-0.165689 v 1.387644 q -0.28996,0.144978 -0.82845,0.227822 -0.53848,0.103556 -1.03555,0.103556 -0.86987,0 -1.61547,-0.289956 -0.72488,-0.310666 -1.18053,-1.056266 -0.45564,-0.745599 -0.45564,-2.091821 v -6.461863 h -1.57405 v -0.869866 l 1.59476,-0.724889 0.72489,-2.361065 h 1.07697 v 2.547465 h 3.21022 v 1.408355 h -3.21022 v 6.420441 q 0,1.014844 0.47636,1.51191 0.49707,0.476356 1.26338,0.476356 z m 14.26995,-8.408707 h -2.796 v 9.692795 h -1.82258 v -9.692795 h -1.94684 v -0.849155 l 1.94684,-0.621333 v -0.642044 q 0,-2.153954 0.95272,-3.085954 0.95271,-0.95271 2.65102,-0.95271 0.66275,0 1.20124,0.124266 0.5592,0.103556 0.95271,0.248533 l -0.47636,1.429066 q -0.33137,-0.103555 -0.76631,-0.207111 -0.43493,-0.103555 -0.89057,-0.103555 -0.91129,0 -1.36694,0.621333 -0.43493,0.600622 -0.43493,1.905421 v 0.724888 h 2.796 z m 7.18675,-1.615466 q 0.31067,0 0.66276,0.04142 0.3728,0.02071 0.64204,0.08284 l -0.22782,1.677599 q -0.26925,-0.06213 -0.60062,-0.103555 -0.31067,-0.04142 -0.60063,-0.04142 -0.84915,0 -1.59475,0.476356 -0.7456,0.455644 -1.20124,1.304799 -0.43494,0.828444 -0.43494,1.946843 v 5.923375 h -1.82257 v -11.10115 h 1.4912 l 0.20711,2.029688 h 0.0828 q 0.53849,-0.911288 1.38764,-1.574043 0.84916,-0.662756 2.00898,-0.662756 z m 12.61305,5.736975 q 0,2.754576 -1.40836,4.266486 -1.38764,1.511911 -3.76942,1.511911 -1.47048,0 -2.63031,-0.662755 -1.13911,-0.683467 -1.80186,-1.967555 -0.66276,-1.304799 -0.66276,-3.148087 0,-2.754576 1.38765,-4.245775 1.38764,-1.4912 3.76942,-1.4912 1.51191,0 2.65102,0.683467 1.15982,0.662755 1.80186,1.946843 0.66276,1.263377 0.66276,3.106665 z m -8.388,0 q 0,1.967554 0.76631,3.127376 0.78703,1.13911 2.48534,1.13911 1.6776,0 2.46462,-1.13911 0.78702,-1.159822 0.78702,-3.127376 0,-1.967555 -0.78702,-3.085954 -0.78702,-1.118399 -2.48533,-1.118399 -1.69831,0 -2.46463,1.118399 -0.76631,1.118399 -0.76631,3.085954 z m 23.44496,-5.736975 q 1.88471,0 2.81671,0.973422 0.932,0.952711 0.932,3.106665 v 7.228174 h -1.80187 v -7.14533 q 0,-2.630309 -2.25751,-2.630309 -1.61546,0 -2.31964,0.931999 -0.68347,0.932 -0.68347,2.713154 v 6.130486 h -1.80186 v -7.14533 q 0,-2.630309 -2.27822,-2.630309 -1.6776,0 -2.31965,1.035555 -0.64204,1.035555 -0.64204,2.982398 v 5.757686 h -1.82258 v -11.10115 h 1.47049 l 0.26924,1.511911 h 0.10356 q 0.51778,-0.869867 1.38764,-1.284089 0.89058,-0.434933 1.88471,-0.434933 2.6096,0 3.39662,1.863999 h 0.10356 q 0.5592,-0.95271 1.51191,-1.408354 0.97342,-0.455645 2.0504,-0.455645 z"
     id="text91"
     style="font-size:20.7111px;font-family:Sans;-inkscape-font-specification:'Sans, Normal';fill:#ffffff;stroke-width:2.21905"
     transform="scale(0.9958027,1.004215)"
     aria-label="Get it from" />
  <path
     d="m 121.30702,56.414215 h 10.94103 v 14.304533 q -2.16501,0.734558 -4.52332,1.159827 -2.31966,0.42527 -5.29655,0.42527 -6.18574,0 -9.51058,-3.634124 -3.32483,-3.634125 -3.32483,-10.593087 0,-4.330021 1.66241,-7.500215 1.70108,-3.170193 4.90994,-4.909934 3.20885,-1.73974 7.84816,-1.73974 2.20367,0 4.33002,0.46393 2.12635,0.463931 3.86609,1.237149 l -1.93304,4.677969 q -1.27581,-0.657235 -2.89957,-1.082505 -1.62376,-0.42527 -3.40216,-0.42527 -2.55162,0 -4.446,1.159827 -1.85573,1.159827 -2.89957,3.286177 -1.00518,2.087688 -1.00518,4.948595 0,2.706263 0.73455,4.793951 0.73456,2.087689 2.31966,3.286177 1.58509,1.159827 4.13671,1.159827 1.23715,0 2.08769,-0.115983 0.8892,-0.115982 1.62376,-0.270626 v -5.760474 h -5.21922 z m 19.94906,-13.879263 q 1.27581,0 2.20367,0.618575 0.92786,0.579913 0.92786,2.203671 0,1.585097 -0.92786,2.203671 -0.92786,0.618575 -2.20367,0.618575 -1.31447,0 -2.24233,-0.618575 -0.8892,-0.618574 -0.8892,-2.203671 0,-1.623758 0.8892,-2.203671 0.92786,-0.618575 2.24233,-0.618575 z m 2.86091,8.273433 v 21.108851 h -5.76048 V 50.808385 Z m 14.92311,16.894813 q 0.96653,0 1.85573,-0.193304 0.8892,-0.193305 1.7784,-0.463931 v 4.29136 q -0.92786,0.386609 -2.31966,0.657235 -1.35313,0.309287 -2.97689,0.309287 -1.89438,0 -3.40216,-0.618574 -1.46911,-0.618574 -2.35831,-2.12635 -0.85054,-1.546436 -0.85054,-4.252699 V 55.138406 h -2.74492 v -2.435637 l 3.17019,-1.933045 1.66242,-4.446004 h 3.67278 v 4.484665 h 5.91512 v 4.330021 h -5.91512 v 10.167816 q 0,1.198488 0.6959,1.817063 0.6959,0.579913 1.81706,0.579913 z m 13.6473,-19.175806 q 0,1.546436 -0.11598,2.976889 -0.0773,1.430453 -0.15465,2.010367 h 0.30929 q 1.00519,-1.623758 2.59028,-2.358315 1.5851,-0.734557 3.51814,-0.734557 3.44082,0 5.48985,1.855723 2.08769,1.817062 2.08769,5.876457 v 13.76328 h -5.76047 V 59.584409 q 0,-4.561986 -3.40216,-4.561986 -2.59028,0 -3.59547,1.817062 -0.96652,1.778402 -0.96652,5.1419 v 9.935851 h -5.76047 V 42.534952 h 5.76047 z m 39.00884,2.280993 v 21.108851 h -4.40734 l -0.77322,-2.706263 h -0.30929 q -1.00518,1.623758 -2.78358,2.358315 -1.73975,0.734557 -3.71145,0.734557 -3.40216,0 -5.45119,-1.817062 -2.04903,-1.855723 -2.04903,-5.915118 v -13.76328 h 5.76048 v 12.332827 q 0,2.242332 0.81188,3.402159 0.81188,1.159827 2.59028,1.159827 2.62894,0 3.59546,-1.778401 0.96652,-1.817062 0.96652,-5.180561 v -9.935851 z m 11.79155,-1.430453 q 0,1.198487 -0.0773,2.358314 -0.0773,1.159827 -0.15464,1.817063 h 0.23196 q 0.85054,-1.314471 2.281,-2.203672 1.43045,-0.927861 3.71144,-0.927861 3.55681,0 5.76048,2.783585 2.20367,2.744924 2.20367,8.118789 0,5.412526 -2.24233,8.196111 -2.24234,2.783584 -5.87646,2.783584 -2.31965,0 -3.67279,-0.811879 -1.31447,-0.850539 -2.16501,-1.894384 h -0.38661 l -0.96652,2.319654 h -4.40734 V 42.534952 h 5.76047 z m 4.13672,5.644491 q -2.24233,0 -3.17019,1.391792 -0.8892,1.391793 -0.96653,4.252699 v 0.618575 q 0,3.054211 0.8892,4.71663 0.92787,1.623757 3.32484,1.623757 1.7784,0 2.82225,-1.623757 1.04384,-1.662419 1.04384,-4.755291 0,-3.092872 -1.0825,-4.639308 -1.04385,-1.585097 -2.86091,-1.585097 z"
     id="text92"
     style="font-weight:bold;font-size:38.6609px;font-family:Sans;-inkscape-font-specification:'Sans, Bold';fill:#ffffff;stroke-width:4.14225"
     transform="scale(0.94373313,1.0596216)"
     aria-label="Github" />
</svg>
