<?xml version="1.0" encoding="UTF-8" standalone="no"?>
<!-- Created with Inkscape (http://www.inkscape.org/) -->

<svg
   width="297.53015mm"
   height="188.09108mm"
   viewBox="0 0 297.53015 188.09108"
   version="1.1"
   id="svg1"
   xml:space="preserve"
   xmlns:xlink="http://www.w3.org/1999/xlink"
   xmlns="http://www.w3.org/2000/svg"
   xmlns:svg="http://www.w3.org/2000/svg"><defs
     id="defs1"><symbol
       id="photo"
       viewBox="0 0 515.5625 378.70703"><title
         id="title59">Photo</title><path
         d="M 196.55664,8.4570615e-8 A 2.550255,2.550255 0 0 0 194.45312,1.1074221 L 168.87891,38.435555 a 2.550255,2.550255 0 0 0 2.10351,3.99218 h 172.62305 a 2.550255,2.550255 0 0 0 2.16406,-3.90039 L 322.45703,1.1992191 A 2.550255,2.550255 0 0 0 320.29492,1.8457061e-7 Z M 234.84375,9.5585951 h 46.76953 V 33.705085 H 234.84375 Z M 404,15.787115 a 2.550255,2.550255 0 0 0 -2.34766,1.55273 l -9.04882,21.29492 a 2.550255,2.550255 0 0 0 2.34765,3.54688 h 68.21289 a 2.550255,2.550255 0 0 0 2.37696,-3.47266 l -8.26172,-21.29492 a 2.550255,2.550255 0 0 0 -2.37696,-1.62695 z m -332.21484,7.32812 a 2.550255,2.550255 0 0 0 -2.42969,1.77149 l -4.425782,13.82031 a 2.550255,2.550255 0 0 0 2.427732,3.32813 h 45.88672 a 2.550255,2.550255 0 0 0 2.48438,-3.125 l -3.19727,-13.82032 a 2.550255,2.550255 0 0 0 -2.48437,-1.97461 z M 44.5,51.894535 c -24.651533,0 -44.5,19.84847 -44.5,44.5 V 334.20703 c 0,24.65153 19.848467,44.5 44.5,44.5 h 426.5625 c 24.65153,0 44.5,-19.84847 44.5,-44.5 V 96.394535 c 0,-24.65153 -19.84847,-44.5 -44.5,-44.5 z m 260.25,42.96875 c 65.25142,0 118.15625,52.873585 118.15625,118.124995 0,65.25142 -52.90483,118.15625 -118.15625,118.15625 -65.25142,0 -118.15625,-52.90483 -118.15625,-118.15625 0,-65.25142 52.90483,-118.124995 118.15625,-118.124995 z m -0.002,47.552735 a 70.582011,70.582011 0 0 0 -70.58203,70.58204 70.582011,70.582011 0 0 0 70.58203,70.58203 70.582011,70.582011 0 0 0 70.58203,-70.58203 70.582011,70.582011 0 0 0 -70.58203,-70.58204 z"
         id="path60" /></symbol></defs><rect
     style="opacity:1;fill:#d1e8f7;fill-opacity:1;stroke-width:0.990153"
     id="rect16"
     width="296.71875"
     height="187.65884"
     x="1.3090104e-15"
     y="0.43224066"
     ry="0.57213062" /><g
     id="layer1"
     transform="translate(-0.86501884,0.20754644)"><rect
       style="opacity:1;fill:#ffffff;stroke-width:0.383357"
       id="rect2"
       width="178.57028"
       height="61.150295"
       x="98.454979"
       y="117.25101"
       ry="4.199883" /><rect
       style="opacity:1;fill:#ffffff;stroke-width:0.337954"
       id="rect3"
       width="178.57028"
       height="47.523491"
       x="98.454979"
       y="42.644249"
       ry="3.2639761" /><rect
       style="opacity:1;fill:#ffff00;stroke-width:0.410701"
       id="rect4"
       width="53.764839"
       height="36.842297"
       x="103.62158"
       y="47.754299"
       ry="3.8986561" /><rect
       style="opacity:1;fill:#ffff00;stroke-width:0.477194"
       id="rect5"
       width="53.764839"
       height="49.73785"
       x="103.78303"
       y="122.5314"
       ry="5.2632642" /><text
       xml:space="preserve"
       style="font-size:6.10981px;opacity:1;fill:#ff0000;stroke:none;stroke-width:0.50915;stroke-opacity:1"
       x="179.994"
       y="50.502174"
       id="text5"
       transform="scale(0.90880613,1.1003447)"><tspan
         id="tspan5"
         style="fill:#ff0000;stroke:none;stroke-width:0.50915;stroke-opacity:1"
         x="179.994"
         y="50.502174">Hier ist der Titel</tspan></text><text
       xml:space="preserve"
       style="font-size:3.66488px;opacity:1;fill:#008000;stroke-width:0.305406"
       x="192.35448"
       y="52.939003"
       id="text6"
       transform="scale(0.86001168,1.1627749)"><tspan
         id="tspan6"
         style="fill:#008000;stroke-width:0.305406"
         x="192.35448"
         y="52.939003">Datum</tspan></text><text
       xml:space="preserve"
       style="font-size:9.72337px;opacity:1;fill:#000080;stroke-width:0.810279"
       x="181.28264"
       y="67.800041"
       id="text7"
       transform="scale(0.90417548,1.10598)"><tspan
         id="tspan7"
         style="stroke-width:0.810279"
         x="181.28264"
         y="67.800041">Beschreibung</tspan></text><text
       xml:space="preserve"
       style="font-size:11.5108px;opacity:1;fill:#000080;stroke-width:0.959234"
       x="214.18542"
       y="122.74454"
       id="text8"
       transform="scale(0.76377005,1.3092946)"><tspan
         id="tspan8"
         style="stroke-width:0.959234"
         x="214.18542"
         y="122.74454">Beschreibung</tspan></text><text
       xml:space="preserve"
       style="font-size:3.66488px;opacity:1;fill:#008000;stroke-width:0.305406"
       x="195.73375"
       y="120.0315"
       id="text9"
       transform="scale(0.86001168,1.1627749)"><tspan
         id="tspan9"
         style="fill:#008000;stroke-width:0.305406"
         x="195.73375"
         y="120.0315">Datum</tspan></text><text
       xml:space="preserve"
       style="font-size:6.10981px;opacity:1;fill:#ff0000;stroke-width:0.50915"
       x="180.88229"
       y="118.30527"
       id="text10"
       transform="scale(0.90880613,1.1003447)"><tspan
         id="tspan10"
         style="fill:#ff0000;stroke-width:0.50915"
         x="180.88229"
         y="118.30527">Hier ist der Titel</tspan></text><rect
       style="opacity:1;fill:#d1e8f7;fill-opacity:1;stroke-width:0.383915"
       id="rect10"
       width="25.348585"
       height="9.7090998"
       x="239.2446"
       y="74.49691"
       ry="3.0660315" /><rect
       style="opacity:1;fill:#d1e8f7;fill-opacity:1;stroke-width:0.383915"
       id="rect11"
       width="25.348585"
       height="9.7090998"
       x="239.2446"
       y="161.36781"
       ry="3.0660315" /><text
       xml:space="preserve"
       style="font-size:5.9773px;opacity:1;fill:#2b0000;fill-opacity:1;stroke-width:0.498108"
       x="7.9291449"
       y="98.339851"
       id="text13"
       transform="scale(0.88212936,1.1336206)"><tspan
         id="tspan13"
         style="fill:#2b0000;stroke-width:0.498108"
         x="7.9291449"
         y="98.339851">Neuigkeiten</tspan></text><rect
       style="opacity:1;fill:#ffffff;fill-opacity:1;stroke-width:0.537227"
       id="rect13"
       width="297.49457"
       height="21.559908"
       x="0.90060419"
       y="-0.20754643"
       ry="0" /><use
       xlink:href="#photo"
       width="515.5625"
       height="378.70703"
       style="fill:#000000;stroke:none"
       id="use1"
       transform="matrix(0.03931564,0,0,0.0403536,119.64261,52.354906)" /><text
       xml:space="preserve"
       style="font-size:11.4188px;opacity:1;fill:#2b0000;fill-opacity:1;stroke-width:0.951566"
       x="121.5482"
       y="78.017838"
       id="text14"
       transform="scale(0.98526157,1.0149589)"><tspan
         id="tspan14"
         style="fill:#2b0000;stroke-width:0.951566"
         x="121.5482"
         y="78.017838">Bild</tspan></text><text
       xml:space="preserve"
       style="font-size:11.4188px;opacity:1;fill:#2b0000;fill-opacity:1;stroke-width:0.951566"
       x="121.5482"
       y="160.43234"
       id="text15"
       transform="scale(0.98526157,1.0149589)"><tspan
         id="tspan15"
         style="fill:#2b0000;stroke-width:0.951566"
         x="121.5482"
         y="160.43234">Bild</tspan></text><use
       xlink:href="#photo"
       width="515.5625"
       height="378.70703"
       style="fill:#000000;stroke:none"
       id="use15"
       transform="matrix(0.03931564,0,0,0.0403536,119.96552,134.22335)" /><rect
       style="opacity:1;fill:#000080;fill-opacity:1;stroke-width:0.383915"
       id="rect17"
       width="37.044975"
       height="9.5433359"
       x="250.55809"
       y="6.9337044"
       ry="4.199883" /><rect
       style="opacity:1;fill:#cccccc;fill-opacity:1;stroke-width:0.383915"
       id="rect18"
       width="37.044975"
       height="9.5433359"
       x="207.9133"
       y="6.0248156"
       ry="4.199883" /><rect
       style="opacity:1;fill:#cccccc;fill-opacity:1;stroke-width:0.383915"
       id="rect19"
       width="37.044975"
       height="9.5433359"
       x="162.68396"
       y="5.5703712"
       ry="4.199883" /><rect
       style="opacity:1;fill:#cccccc;fill-opacity:1;stroke-width:0.383915"
       id="rect20"
       width="37.044975"
       height="9.5433359"
       x="117.88539"
       y="4.6614823"
       ry="4.199883" /></g></svg>
