<svg xmlns="http://www.w3.org/2000/svg" height="24" viewBox="0 -960 960 960" width="24"><path d="M170.501-101.021q-41.663 0-71.333-29.669Q69.5-160.359 69.5-202.022v-612.24q0-19.679 10.11-23.731 10.108-4.052 24 9.275l34.347 33.782 33.217-33.217q7.615-7.267 16.499-11.079 8.884-3.813 18.585-3.813t18.472 3.631q8.771 3.63 16.532 10.826l33.652 33.652 33.652-33.652q7.841-7.196 16.509-10.826 8.668-3.631 18.575-3.631 9.906 0 18.574 3.848 8.668 3.848 16.429 11.044l33.218 33.217 32.521-33.087q7.784-7.658 16.866-11.057t18.783-3.399q9.701 0 18.783 3.399t16.786 11.057l32.521 33.087 33.218-33.217q7.614-7.267 16.498-11.079 8.884-3.813 18.585-3.813t18.472 3.631q8.771 3.63 16.532 10.826l33.652 33.652 33.652-33.652q7.841-7.196 16.509-10.826 8.668-3.631 18.575-3.631 9.906 0 18.575 3.848 8.668 3.848 16.429 11.044l33.217 33.217 34.347-33.782q13.892-13.327 24.001-9.275 10.109 4.052 10.109 23.731v612.24q0 41.663-29.669 71.332-29.67 29.669-71.333 29.669H170.501Zm0-101.001h263.52v-245h-263.52v245Zm355.478 0h263.52v-75.956h-263.52v75.956Zm0-168.479h263.52v-76.521h-263.52v76.521ZM170.501-538.979h618.998v-108.043H170.501v108.043Z"/></svg>