<?xml version="1.0" encoding="UTF-8" standalone="no"?>
<svg
   id="svg51"
   width="180"
   height="53.333"
   version="1.1"
   viewBox="0 0 180 53.333"
   xml:space="preserve"
   sodipodi:docname="playStore.svg"
   inkscape:version="1.4 (e7c3feb100, 2024-10-09)"
   xmlns:inkscape="http://www.inkscape.org/namespaces/inkscape"
   xmlns:sodipodi="http://sodipodi.sourceforge.net/DTD/sodipodi-0.dtd"
   xmlns="http://www.w3.org/2000/svg"
   xmlns:svg="http://www.w3.org/2000/svg"
   xmlns:rdf="http://www.w3.org/1999/02/22-rdf-syntax-ns#"
   xmlns:cc="http://creativecommons.org/ns#"
   xmlns:dc="http://purl.org/dc/elements/1.1/"><defs
     id="defs1" /><sodipodi:namedview
     id="namedview1"
     pagecolor="#ffffff"
     bordercolor="#000000"
     borderopacity="0.25"
     inkscape:showpageshadow="2"
     inkscape:pageopacity="0.0"
     inkscape:pagecheckerboard="0"
     inkscape:deskcolor="#d1d1d1"
     inkscape:zoom="3.9354621"
     inkscape:cx="87.664419"
     inkscape:cy="-12.704988"
     inkscape:window-width="1876"
     inkscape:window-height="1052"
     inkscape:window-x="0"
     inkscape:window-y="0"
     inkscape:window-maximized="1"
     inkscape:current-layer="svg51" /><metadata
     id="metadata9"><rdf:RDF><cc:Work
         rdf:about=""><dc:format>image/svg+xml</dc:format><dc:type
           rdf:resource="http://purl.org/dc/dcmitype/StillImage" /></cc:Work></rdf:RDF></metadata><path
     id="path11"
     d="m173.33 53.333h-166.66c-3.6666 0-6.6665-2.9999-6.6665-6.6665v-39.999c0-3.6666 2.9999-6.6665 6.6665-6.6665h166.66c3.6666 0 6.6665 2.9999 6.6665 6.6665v39.999c0 3.6666-2.9999 6.6665-6.6665 6.6665"
     fill="#100f0d"
     stroke-width=".13333" /><path
     id="path13"
     d="m173.33 1e-3h-166.66c-3.6666 0-6.6665 2.9999-6.6665 6.6665v39.999c0 3.6666 2.9999 6.6665 6.6665 6.6665h166.66c3.6666 0 6.6665-2.9999 6.6665-6.6665v-39.999c0-3.6666-2.9999-6.6665-6.6665-6.6665zm0 1.0661c3.0879 0 5.5999 2.5125 5.5999 5.6004v39.999c0 3.0879-2.5119 5.6004-5.5999 5.6004h-166.66c-3.0879 0-5.5993-2.5125-5.5993-5.6004v-39.999c0-3.0879 2.5114-5.6004 5.5993-5.6004h166.66"
     fill="#a2a2a1"
     stroke-width=".13333" /><path
     id="path35"
     d="m142.58 40h2.4879v-16.669h-2.4879zm22.409-10.664-2.8519 7.2264h-0.0853l-2.9599-7.2264h-2.6799l4.4399 10.1-2.5319 5.6185h2.5946l6.8412-15.718zm-14.11 8.7706c-0.81331 0-1.9506-0.40786-1.9506-1.4156 0-1.2865 1.416-1.7797 2.6373-1.7797 1.0933 0 1.6093 0.23546 2.2733 0.55732-0.19333 1.5442-1.5226 2.6379-2.9599 2.6379zm0.30133-9.1352c-1.8013 0-3.6666 0.79371-4.4386 2.5521l2.208 0.92184c0.47198-0.92184 1.3506-1.2218 2.2733-1.2218 1.2866 0 2.5946 0.77131 2.6159 2.1442v0.17133c-0.45066-0.25733-1.416-0.64318-2.5946-0.64318-2.3813 0-4.8039 1.3077-4.8039 3.7524 0 2.2302 1.952 3.6671 4.1386 3.6671 1.672 0 2.5959-0.75054 3.1732-1.6301h0.0867v1.2874h2.4026v-6.391c0-2.9593-2.2106-4.6103-5.0612-4.6103zm-15.376 2.3937h-3.5386v-5.7133h3.5386c1.86 0 2.9159 1.5396 2.9159 2.8566 0 1.2917-1.056 2.8567-2.9159 2.8567zm-0.064-8.0337h-5.9614v16.669h2.4869v-6.3149h3.4746c2.7573 0 5.4679-1.9958 5.4679-5.1765 0-3.1801-2.7106-5.1769-5.4679-5.1769zm-32.507 14.778c-1.7188 0-3.1573-1.4396-3.1573-3.415 0-1.9984 1.4385-3.4583 3.1573-3.4583 1.6969 0 3.0286 1.46 3.0286 3.4583 0 1.9754-1.3317 3.415-3.0286 3.415zm2.8567-7.8403h-0.086c-0.55826-0.66572-1.6328-1.2672-2.9853-1.2672-2.8359 0-5.4348 2.4921-5.4348 5.6925 0 3.1786 2.5989 5.6488 5.4348 5.6488 1.3525 0 2.427-0.6016 2.9853-1.2885h0.086v0.81558c0 2.1703-1.1598 3.3296-3.0286 3.3296-1.5245 0-2.4697-1.0953-2.8567-2.0188l-2.1691 0.90206c0.62238 1.503 2.2759 3.351 5.0259 3.351 2.9218 0 5.392-1.7188 5.392-5.9077v-10.181h-2.3634zm4.0822 9.7304h2.4906v-16.669h-2.4906zm6.164-5.4988c-0.0641-2.1911 1.6978-3.3078 2.9645-3.3078 0.98851 0 1.8254 0.49425 2.1057 1.2026zm7.7326-1.8906c-0.47238-1.2666-1.9114-3.6082-4.8541-3.6082-2.9218 0-5.3488 2.2983-5.3488 5.6707 0 3.1791 2.4062 5.6707 5.6275 5.6707 2.5989 0 4.1031-1.589 4.7264-2.513l-1.9333-1.289c-0.64465 0.94531-1.5249 1.5682-2.7931 1.5682-1.2666 0-2.1692-0.58012-2.7483-1.7186l7.5815-3.1359zm-60.409-1.8682v2.4057h5.7565c-0.17186 1.3532-0.62292 2.3411-1.3104 3.0286-0.83798 0.83745-2.1483 1.7614-4.4462 1.7614-3.5443 0-6.315-2.8567-6.315-6.4009s2.7707-6.4013 6.315-6.4013c1.9118 0 3.3077 0.75198 4.3388 1.7186l1.6974-1.6973c-1.4396-1.3745-3.351-2.427-6.0362-2.427-4.8552 0-8.9363 3.9524-8.9363 8.807 0 4.8541 4.0811 8.8066 8.9363 8.8066 2.6202 0 4.5967-0.85932 6.143-2.4702 1.5896-1.5896 2.0838-3.8234 2.0838-5.628 0-0.55785-0.04333-1.0734-0.1292-1.5032zm14.772 7.3675c-1.7188 0-3.201-1.4177-3.201-3.4368 0-2.0406 1.4822-3.4364 3.201-3.4364 1.7181 0 3.2003 1.3958 3.2003 3.4364 0 2.0191-1.4822 3.4368-3.2003 3.4368zm0-9.1075c-3.137 0-5.6927 2.3842-5.6927 5.6707 0 3.265 2.5557 5.6707 5.6927 5.6707 3.1358 0 5.692-2.4057 5.692-5.6707 0-3.2865-2.5562-5.6707-5.692-5.6707zm12.417 9.1075c-1.7176 0-3.2003-1.4177-3.2003-3.4368 0-2.0406 1.4828-3.4364 3.2003-3.4364 1.7188 0 3.2005 1.3958 3.2005 3.4364 0 2.0191-1.4817 3.4368-3.2005 3.4368zm0-9.1075c-3.1358 0-5.6915 2.3842-5.6915 5.6707 0 3.265 2.5557 5.6707 5.6915 5.6707 3.137 0 5.6927-2.4057 5.6927-5.6707 0-3.2865-2.5557-5.6707-5.6927-5.6707"
     fill="#fff"
     stroke-width=".13333" /><path
     id="path37"
     d="m27.622 25.899-14.194 15.066c5.34e-4 0.0031 0.0016 0.0057 0.0021 0.0089 0.43532 1.636 1.9296 2.8406 3.703 2.8406 0.70892 0 1.3745-0.19166 1.9453-0.52812l0.04533-0.02656 15.978-9.22-7.479-8.141"
     fill="#eb3131"
     stroke-width=".13333" /><path
     id="path39"
     d="m41.983 23.334-0.0136-0.0093-6.8982-3.999-7.7717 6.9156 7.7987 7.7977 6.8618-3.9592c1.203-0.64945 2.0197-1.9177 2.0197-3.3802 0-1.452-0.80571-2.7139-1.9968-3.3655"
     fill="#f6b60b"
     stroke-width=".13333" /><path
     id="path41"
     d="m13.426 12.37c-0.08533 0.31466-0.13018 0.64425-0.13018 0.98651v26.623c0 0.34162 0.04432 0.67233 0.13072 0.98587l14.684-14.681-14.684-13.914"
     fill="#5778c5"
     stroke-width=".13333" /><path
     id="path43"
     d="m27.727 26.668 7.3473-7.3451-15.96-9.2534c-0.58012-0.34746-1.2572-0.54799-1.9817-0.54799-1.7734 0-3.2697 1.2068-3.7051 2.8447-5.34e-4 0.0016-5.34e-4 0.0027-5.34e-4 0.0041l14.3 14.298"
     fill="#3bad49"
     stroke-width=".13333" /><path
     style="font-size:11.5404px;font-family:Sans;-inkscape-font-specification:'Sans, Normal';fill:#ffffff;stroke-width:1.23646"
     d="m 57.291489,19.533138 q -0.27697,0 -0.484697,-0.04616 -0.207727,-0.03462 -0.369293,-0.103864 v -0.87707 q 0.184647,0.04616 0.392374,0.08078 0.207727,0.03462 0.438535,0.03462 0.28851,0 0.542399,-0.115404 0.265429,-0.115404 0.426994,-0.403914 0.161566,-0.28851 0.161566,-0.807828 V 9.1006165 h 1.038636 v 8.1129005 q 0,1.188661 -0.58856,1.754141 -0.588561,0.56548 -1.557954,0.56548 z m 8.920737,-2.192676 h -4.60462 V 9.1006165 h 4.60462 v 0.9116915 h -3.565984 v 2.573509 h 3.358257 v 0.900151 h -3.358257 v 2.942802 h 3.565984 z m 4.41997,0 H 69.59356 V 10.012308 H 67.020051 V 9.1006165 h 6.174114 v 0.9116915 h -2.561969 z m 8.839944,0 h -5.712498 v -0.784747 l 4.33919,-6.531867 H 73.898127 V 9.1006165 h 5.458609 v 0.7847471 l -4.33919,6.5318664 h 4.454594 z m 4.177629,0 H 82.611133 V 10.012308 H 80.037624 V 9.1006165 h 6.174114 v 0.9116915 h -2.561969 z m 9.163079,-8.2398455 q 1.546413,0 2.331161,0.4616159 0.796287,0.4500756 0.796287,1.5810346 0,0.727045 -0.403914,1.211742 -0.403914,0.473157 -1.16558,0.611641 v 0.0577 q 0.519318,0.08078 0.934772,0.300051 0.426995,0.219267 0.669343,0.623181 0.242349,0.403914 0.242349,1.050177 0,1.119418 -0.773207,1.73106 -0.761666,0.611641 -2.088812,0.611641 H 90.458606 V 9.1006165 Z m 0.207727,3.5082815 q 1.061717,0 1.45409,-0.334672 0.392374,-0.346212 0.392374,-1.015555 0,-0.680883 -0.484697,-0.969393 -0.473156,-0.3000508 -1.523333,-0.3000508 h -1.361767 v 2.6196708 z m -1.523333,0.86553 v 2.988963 h 1.661818 q 1.096338,0 1.523333,-0.426994 0.426994,-0.426995 0.426994,-1.119419 0,-0.646263 -0.450075,-1.038636 -0.438535,-0.403914 -1.581035,-0.403914 z m 11.067238,3.866034 H 97.959861 V 9.1006165 h 4.604619 v 0.9116915 h -3.565983 v 2.573509 h 3.358253 v 0.900151 h -3.358253 v 2.942802 h 3.565983 z m 4.13146,0 h -2.97742 v -0.600101 l 0.96939,-0.219268 V 9.9315252 l -0.96939,-0.230808 V 9.1006165 h 2.97742 v 0.6001007 l -0.96939,0.230808 v 6.5895678 l 0.96939,0.219268 z"
     id="text1"
     transform="scale(0.9740853,1.0266041)"
     aria-label="JETZT BEI" /></svg>
