<?xml version="1.0" standalone="no"?>
<svg xmlns="http://www.w3.org/2000/svg" width="200" height="200" xmlns:xlink="http://www.w3.org/1999/xlink" viewBox="0 0 200 200"><defs><clipPath id="clip-path-background-color-99"><rect x="0" y="0" width="200" height="200"/></clipPath><clipPath id="clip-path-dot-color-99"><path d="M 67 7v 2.5a 2.5 2.5, 0, 0, 0, 2.5 2.5h 2.5v -2.5a 2.5 2.5, 0, 0, 0, -2.5 -2.5" transform="rotate(90,69.5,9.5)"/><path d="M 77 7v 2.5a 2.5 2.5, 0, 0, 0, 2.5 2.5h 2.5v -2.5a 2.5 2.5, 0, 0, 0, -2.5 -2.5" transform="rotate(90,79.5,9.5)"/><path d="M 87 7v 2.5a 2.5 2.5, 0, 0, 0, 2.5 2.5h 2.5v -2.5a 2.5 2.5, 0, 0, 0, -2.5 -2.5" transform="rotate(90,89.5,9.5)"/><path d="M 112 7v 2.5a 2.5 2.5, 0, 0, 0, 2.5 2.5h 2.5v -2.5a 2.5 2.5, 0, 0, 0, -2.5 -2.5" transform="rotate(90,114.5,9.5)"/><path d="M 132 7v 2.5a 2.5 2.5, 0, 0, 0, 2.5 2.5h 2.5v -2.5a 2.5 2.5, 0, 0, 0, -2.5 -2.5" transform="rotate(90,134.5,9.5)"/><path d="M 147 7v 2.5a 2.5 2.5, 0, 0, 0, 2.5 2.5h 2.5v -2.5a 2.5 2.5, 0, 0, 0, -2.5 -2.5" transform="rotate(90,149.5,9.5)"/><path d="M 47 12v 5h 5a 5 5, 0, 0, 0, -5 -5" transform="rotate(-90,49.5,14.5)"/><path d="M 57 12v 5h 5a 5 5, 0, 0, 0, -5 -5" transform="rotate(-90,59.5,14.5)"/><path d="M 72 12v 2.5a 2.5 2.5, 0, 0, 0, 2.5 2.5h 2.5v -2.5a 2.5 2.5, 0, 0, 0, -2.5 -2.5" transform="rotate(90,74.5,14.5)"/><path d="M 92 12v 5h 5a 5 5, 0, 0, 0, -5 -5" transform="rotate(-90,94.5,14.5)"/><path d="M 97 12v 5h 5a 5 5, 0, 0, 0, -5 -5" transform="rotate(90,99.5,14.5)"/><path d="M 117 12v 5h 5a 5 5, 0, 0, 0, -5 -5" transform="rotate(-90,119.5,14.5)"/><path d="M 137 12v 2.5a 2.5 2.5, 0, 0, 0, 2.5 2.5h 2.5v -2.5a 2.5 2.5, 0, 0, 0, -2.5 -2.5" transform="rotate(90,139.5,14.5)"/><path d="M 47 17v 5h 5a 5 5, 0, 0, 0, -5 -5" transform="rotate(90,49.5,19.5)"/><path d="M 57 17v 5h 5a 5 5, 0, 0, 0, -5 -5" transform="rotate(90,59.5,19.5)"/><path d="M 77 17v 5h 5a 5 5, 0, 0, 0, -5 -5" transform="rotate(-90,79.5,19.5)"/><path d="M 92 17v 5h 5a 5 5, 0, 0, 0, -5 -5" transform="rotate(90,94.5,19.5)"/><path d="M 102 17v 5h 5a 5 5, 0, 0, 0, -5 -5" transform="rotate(-90,104.5,19.5)"/><rect x="107" y="17" width="5" height="5" transform="rotate(0,109.5,19.5)"/><rect x="117" y="17" width="5" height="5" transform="rotate(0,119.5,19.5)"/><rect x="122" y="17" width="5" height="5" transform="rotate(0,124.5,19.5)"/><rect x="127" y="17" width="5" height="5" transform="rotate(0,129.5,19.5)"/><path d="M 132 17v 5h 5a 5 5, 0, 0, 0, -5 -5" transform="rotate(90,134.5,19.5)"/><path d="M 142 17v 2.5a 2.5 2.5, 0, 0, 0, 2.5 2.5h 2.5v -2.5a 2.5 2.5, 0, 0, 0, -2.5 -2.5" transform="rotate(90,144.5,19.5)"/><path d="M 52 22v 5h 5a 5 5, 0, 0, 0, -5 -5" transform="rotate(-90,54.5,24.5)"/><path d="M 62 22v 5h 5a 5 5, 0, 0, 0, -5 -5" transform="rotate(-90,64.5,24.5)"/><rect x="67" y="22" width="5" height="5" transform="rotate(0,69.5,24.5)"/><rect x="72" y="22" width="5" height="5" transform="rotate(0,74.5,24.5)"/><path d="M 77 22v 5h 5a 5 5, 0, 0, 0, -5 -5" transform="rotate(90,79.5,24.5)"/><path d="M 87 22v 5h 5a 5 5, 0, 0, 0, -5 -5" transform="rotate(-90,89.5,24.5)"/><path d="M 107 22v 5h 5a 5 5, 0, 0, 0, -5 -5" transform="rotate(90,109.5,24.5)"/><rect x="122" y="22" width="5" height="5" transform="rotate(0,124.5,24.5)"/><rect x="127" y="22" width="5" height="5" transform="rotate(0,129.5,24.5)"/><path d="M 137 22v 5h 5a 5 5, 0, 0, 0, -5 -5" transform="rotate(-90,139.5,24.5)"/><rect x="52" y="27" width="5" height="5" transform="rotate(0,54.5,29.5)"/><path d="M 87 27v 5h 5a 5 5, 0, 0, 0, -5 -5" transform="rotate(90,89.5,29.5)"/><path d="M 97 27v 5h 5a 5 5, 0, 0, 0, -5 -5" transform="rotate(-90,99.5,29.5)"/><rect x="127" y="27" width="5" height="5" transform="rotate(0,129.5,29.5)"/><rect x="132" y="27" width="5" height="5" transform="rotate(0,134.5,29.5)"/><rect x="137" y="27" width="5" height="5" transform="rotate(0,139.5,29.5)"/><path d="M 142 27v 5h 5a 5 5, 0, 0, 0, -5 -5" transform="rotate(90,144.5,29.5)"/><rect x="52" y="32" width="5" height="5" transform="rotate(0,54.5,34.5)"/><rect x="57" y="32" width="5" height="5" transform="rotate(0,59.5,34.5)"/><path d="M 67 32v 5h 5a 5 5, 0, 0, 0, -5 -5" transform="rotate(-90,69.5,34.5)"/><path d="M 72 32v 5h 5a 5 5, 0, 0, 0, -5 -5" transform="rotate(90,74.5,34.5)"/><path d="M 82 32v 2.5a 2.5 2.5, 0, 0, 0, 2.5 2.5h 2.5v -2.5a 2.5 2.5, 0, 0, 0, -2.5 -2.5" transform="rotate(90,84.5,34.5)"/><rect x="97" y="32" width="5" height="5" transform="rotate(0,99.5,34.5)"/><rect x="102" y="32" width="5" height="5" transform="rotate(0,104.5,34.5)"/><rect x="107" y="32" width="5" height="5" transform="rotate(0,109.5,34.5)"/><path d="M 112 32v 5h 5a 5 5, 0, 0, 0, -5 -5" transform="rotate(90,114.5,34.5)"/><rect x="127" y="32" width="5" height="5" transform="rotate(0,129.5,34.5)"/><rect x="137" y="32" width="5" height="5" transform="rotate(0,139.5,34.5)"/><path d="M 47 37v 2.5a 2.5 2.5, 0, 0, 0, 2.5 2.5h 2.5v -2.5a 2.5 2.5, 0, 0, 0, -2.5 -2.5" transform="rotate(90,49.5,39.5)"/><rect x="57" y="37" width="5" height="5" transform="rotate(0,59.5,39.5)"/><rect x="67" y="37" width="5" height="5" transform="rotate(0,69.5,39.5)"/><path d="M 77 37v 2.5a 2.5 2.5, 0, 0, 0, 2.5 2.5h 2.5v -2.5a 2.5 2.5, 0, 0, 0, -2.5 -2.5" transform="rotate(90,79.5,39.5)"/><path d="M 87 37v 5h 5a 5 5, 0, 0, 0, -5 -5" transform="rotate(-90,89.5,39.5)"/><path d="M 97 37v 5h 5a 5 5, 0, 0, 0, -5 -5" transform="rotate(90,99.5,39.5)"/><path d="M 107 37v 5h 5a 5 5, 0, 0, 0, -5 -5" transform="rotate(90,109.5,39.5)"/><path d="M 117 37v 5h 5a 5 5, 0, 0, 0, -5 -5" transform="rotate(-90,119.5,39.5)"/><rect x="127" y="37" width="5" height="5" transform="rotate(0,129.5,39.5)"/><rect x="137" y="37" width="5" height="5" transform="rotate(0,139.5,39.5)"/><path d="M 147 37v 5h 5a 5 5, 0, 0, 0, -5 -5" transform="rotate(-90,149.5,39.5)"/><rect x="57" y="42" width="5" height="5" transform="rotate(0,59.5,44.5)"/><rect x="62" y="42" width="5" height="5" transform="rotate(0,64.5,44.5)"/><rect x="67" y="42" width="5" height="5" transform="rotate(0,69.5,44.5)"/><rect x="72" y="42" width="5" height="5" transform="rotate(0,74.5,44.5)"/><path d="M 82 42v 5h 5a 5 5, 0, 0, 0, -5 -5" transform="rotate(-90,84.5,44.5)"/><rect x="87" y="42" width="5" height="5" transform="rotate(0,89.5,44.5)"/><path d="M 117 42v 5h 5a 5 5, 0, 0, 0, -5 -5" transform="rotate(90,119.5,44.5)"/><rect x="127" y="42" width="5" height="5" transform="rotate(0,129.5,44.5)"/><rect x="132" y="42" width="5" height="5" transform="rotate(0,134.5,44.5)"/><rect x="137" y="42" width="5" height="5" transform="rotate(0,139.5,44.5)"/><rect x="142" y="42" width="5" height="5" transform="rotate(0,144.5,44.5)"/><path d="M 147 42v 5h 5a 5 5, 0, 0, 0, -5 -5" transform="rotate(90,149.5,44.5)"/><path d="M 12 47v 5h 5a 5 5, 0, 0, 0, -5 -5" transform="rotate(-90,14.5,49.5)"/><rect x="17" y="47" width="5" height="5" transform="rotate(0,19.5,49.5)"/><path d="M 22 47v 5h 5a 5 5, 0, 0, 0, -5 -5" transform="rotate(90,24.5,49.5)"/><path d="M 32 47v 5h 5a 5 5, 0, 0, 0, -5 -5" transform="rotate(-90,34.5,49.5)"/><path d="M 37 47v 5h 5a 5 5, 0, 0, 0, -5 -5" transform="rotate(90,39.5,49.5)"/><rect x="67" y="47" width="5" height="5" transform="rotate(0,69.5,49.5)"/><path d="M 72 47v 5h 5a 5 5, 0, 0, 0, -5 -5" transform="rotate(90,74.5,49.5)"/><rect x="87" y="47" width="5" height="5" transform="rotate(0,89.5,49.5)"/><path d="M 97 47v 2.5a 2.5 2.5, 0, 0, 0, 2.5 2.5h 2.5v -2.5a 2.5 2.5, 0, 0, 0, -2.5 -2.5" transform="rotate(90,99.5,49.5)"/><path d="M 122 47v 2.5a 2.5 2.5, 0, 0, 0, 2.5 2.5h 2.5v -2.5a 2.5 2.5, 0, 0, 0, -2.5 -2.5" transform="rotate(90,124.5,49.5)"/><rect x="132" y="47" width="5" height="5" transform="rotate(0,134.5,49.5)"/><rect x="137" y="47" width="5" height="5" transform="rotate(0,139.5,49.5)"/><rect x="142" y="47" width="5" height="5" transform="rotate(0,144.5,49.5)"/><path d="M 177 47v 5h 5a 5 5, 0, 0, 0, -5 -5" transform="rotate(-90,179.5,49.5)"/><rect x="182" y="47" width="5" height="5" transform="rotate(0,184.5,49.5)"/><path d="M 7 52v 5h 5a 5 5, 0, 0, 0, -5 -5" transform="rotate(-90,9.5,54.5)"/><rect x="12" y="52" width="5" height="5" transform="rotate(0,14.5,54.5)"/><rect x="17" y="52" width="5" height="5" transform="rotate(0,19.5,54.5)"/><rect x="32" y="52" width="5" height="5" transform="rotate(0,34.5,54.5)"/><path d="M 47 52v 2.5a 2.5 2.5, 0, 0, 0, 2.5 2.5h 2.5v -2.5a 2.5 2.5, 0, 0, 0, -2.5 -2.5" transform="rotate(90,49.5,54.5)"/><path d="M 62 52v 5h 5a 5 5, 0, 0, 0, -5 -5" transform="rotate(-90,64.5,54.5)"/><path d="M 67 52v 5h 5a 5 5, 0, 0, 0, -5 -5" transform="rotate(90,69.5,54.5)"/><path d="M 77 52v 5h 5a 5 5, 0, 0, 0, -5 -5" transform="rotate(-90,79.5,54.5)"/><rect x="82" y="52" width="5" height="5" transform="rotate(0,84.5,54.5)"/><rect x="87" y="52" width="5" height="5" transform="rotate(0,89.5,54.5)"/><path d="M 102 52v 5h 5a 5 5, 0, 0, 0, -5 -5" transform="rotate(-90,104.5,54.5)"/><rect x="107" y="52" width="5" height="5" transform="rotate(0,109.5,54.5)"/><rect x="112" y="52" width="5" height="5" transform="rotate(0,114.5,54.5)"/><path d="M 117 52v 5h 5a 5 5, 0, 0, 0, -5 -5" transform="rotate(90,119.5,54.5)"/><rect x="132" y="52" width="5" height="5" transform="rotate(0,134.5,54.5)"/><path d="M 142 52v 5h 5a 5 5, 0, 0, 0, -5 -5" transform="rotate(90,144.5,54.5)"/><path d="M 157 52v 5h 5a 5 5, 0, 0, 0, -5 -5" transform="rotate(-90,159.5,54.5)"/><rect x="162" y="52" width="5" height="5" transform="rotate(0,164.5,54.5)"/><rect x="167" y="52" width="5" height="5" transform="rotate(0,169.5,54.5)"/><rect x="172" y="52" width="5" height="5" transform="rotate(0,174.5,54.5)"/><path d="M 182 52v 5h 5a 5 5, 0, 0, 0, -5 -5" transform="rotate(90,184.5,54.5)"/><path d="M 7 57v 5h 5a 5 5, 0, 0, 0, -5 -5" transform="rotate(90,9.5,59.5)"/><rect x="17" y="57" width="5" height="5" transform="rotate(0,19.5,59.5)"/><rect x="22" y="57" width="5" height="5" transform="rotate(0,24.5,59.5)"/><rect x="27" y="57" width="5" height="5" transform="rotate(0,29.5,59.5)"/><rect x="32" y="57" width="5" height="5" transform="rotate(0,34.5,59.5)"/><path d="M 37 57v 5h 5a 5 5, 0, 0, 0, -5 -5" transform="rotate(90,39.5,59.5)"/><path d="M 52 57v 5h 5a 5 5, 0, 0, 0, -5 -5" transform="rotate(-90,54.5,59.5)"/><rect x="57" y="57" width="5" height="5" transform="rotate(0,59.5,59.5)"/><path d="M 62 57v 5h 5a 5 5, 0, 0, 0, -5 -5" transform="rotate(90,64.5,59.5)"/><path d="M 72 57v 5h 5a 5 5, 0, 0, 0, -5 -5" transform="rotate(-90,74.5,59.5)"/><rect x="77" y="57" width="5" height="5" transform="rotate(0,79.5,59.5)"/><path d="M 87 57v 5h 5a 5 5, 0, 0, 0, -5 -5" transform="rotate(90,89.5,59.5)"/><path d="M 97 57v 2.5a 2.5 2.5, 0, 0, 0, 2.5 2.5h 2.5v -2.5a 2.5 2.5, 0, 0, 0, -2.5 -2.5" transform="rotate(90,99.5,59.5)"/><rect x="107" y="57" width="5" height="5" transform="rotate(0,109.5,59.5)"/><path d="M 112 57v 5h 5a 5 5, 0, 0, 0, -5 -5" transform="rotate(90,114.5,59.5)"/><path d="M 122 57v 5h 5a 5 5, 0, 0, 0, -5 -5" transform="rotate(-90,124.5,59.5)"/><rect x="127" y="57" width="5" height="5" transform="rotate(0,129.5,59.5)"/><rect x="132" y="57" width="5" height="5" transform="rotate(0,134.5,59.5)"/><path d="M 147 57v 5h 5a 5 5, 0, 0, 0, -5 -5" transform="rotate(-90,149.5,59.5)"/><path d="M 152 57v 5h 5a 5 5, 0, 0, 0, -5 -5" transform="rotate(90,154.5,59.5)"/><rect x="172" y="57" width="5" height="5" transform="rotate(0,174.5,59.5)"/><rect x="177" y="57" width="5" height="5" transform="rotate(0,179.5,59.5)"/><rect x="17" y="62" width="5" height="5" transform="rotate(0,19.5,64.5)"/><rect x="32" y="62" width="5" height="5" transform="rotate(0,34.5,64.5)"/><path d="M 47 62v 5h 5a 5 5, 0, 0, 0, -5 -5" transform="rotate(-90,49.5,64.5)"/><rect x="52" y="62" width="5" height="5" transform="rotate(0,54.5,64.5)"/><path d="M 67 62v 2.5a 2.5 2.5, 0, 0, 0, 2.5 2.5h 2.5v -2.5a 2.5 2.5, 0, 0, 0, -2.5 -2.5" transform="rotate(90,69.5,64.5)"/><rect x="77" y="62" width="5" height="5" transform="rotate(0,79.5,64.5)"/><path d="M 92 62v 5h 5a 5 5, 0, 0, 0, -5 -5" transform="rotate(-90,94.5,64.5)"/><path d="M 102 62v 5h 5a 5 5, 0, 0, 0, -5 -5" transform="rotate(-90,104.5,64.5)"/><rect x="122" y="62" width="5" height="5" transform="rotate(0,124.5,64.5)"/><rect x="127" y="62" width="5" height="5" transform="rotate(0,129.5,64.5)"/><rect x="132" y="62" width="5" height="5" transform="rotate(0,134.5,64.5)"/><rect x="137" y="62" width="5" height="5" transform="rotate(0,139.5,64.5)"/><path d="M 147 62v 5h 5a 5 5, 0, 0, 0, -5 -5" transform="rotate(90,149.5,64.5)"/><path d="M 167 62v 5h 5a 5 5, 0, 0, 0, -5 -5" transform="rotate(-90,169.5,64.5)"/><rect x="172" y="62" width="5" height="5" transform="rotate(0,174.5,64.5)"/><rect x="177" y="62" width="5" height="5" transform="rotate(0,179.5,64.5)"/><rect x="182" y="62" width="5" height="5" transform="rotate(0,184.5,64.5)"/><path d="M 187 62v 5h 5a 5 5, 0, 0, 0, -5 -5" transform="rotate(90,189.5,64.5)"/><path d="M 12 67v 5h 5a 5 5, 0, 0, 0, -5 -5" transform="rotate(-90,14.5,69.5)"/><rect x="17" y="67" width="5" height="5" transform="rotate(0,19.5,69.5)"/><rect x="22" y="67" width="5" height="5" transform="rotate(0,24.5,69.5)"/><rect x="27" y="67" width="5" height="5" transform="rotate(0,29.5,69.5)"/><rect x="32" y="67" width="5" height="5" transform="rotate(0,34.5,69.5)"/><rect x="37" y="67" width="5" height="5" transform="rotate(0,39.5,69.5)"/><rect x="42" y="67" width="5" height="5" transform="rotate(0,44.5,69.5)"/><path d="M 52 67v 5h 5a 5 5, 0, 0, 0, -5 -5" transform="rotate(90,54.5,69.5)"/><path d="M 77 67v 5h 5a 5 5, 0, 0, 0, -5 -5" transform="rotate(90,79.5,69.5)"/><rect x="92" y="67" width="5" height="5" transform="rotate(0,94.5,69.5)"/><rect x="97" y="67" width="5" height="5" transform="rotate(0,99.5,69.5)"/><rect x="102" y="67" width="5" height="5" transform="rotate(0,104.5,69.5)"/><path d="M 107 67v 5h 5a 5 5, 0, 0, 0, -5 -5" transform="rotate(90,109.5,69.5)"/><path d="M 117 67v 5h 5a 5 5, 0, 0, 0, -5 -5" transform="rotate(-90,119.5,69.5)"/><path d="M 122 67v 5h 5a 5 5, 0, 0, 0, -5 -5" transform="rotate(90,124.5,69.5)"/><rect x="132" y="67" width="5" height="5" transform="rotate(0,134.5,69.5)"/><rect x="137" y="67" width="5" height="5" transform="rotate(0,139.5,69.5)"/><path d="M 142 67v 5h 5a 5 5, 0, 0, 0, -5 -5" transform="rotate(90,144.5,69.5)"/><path d="M 152 67v 5h 5a 5 5, 0, 0, 0, -5 -5" transform="rotate(-90,154.5,69.5)"/><rect x="157" y="67" width="5" height="5" transform="rotate(0,159.5,69.5)"/><rect x="167" y="67" width="5" height="5" transform="rotate(0,169.5,69.5)"/><rect x="182" y="67" width="5" height="5" transform="rotate(0,184.5,69.5)"/><path d="M 7 72v 2.5a 2.5 2.5, 0, 0, 0, 2.5 2.5h 2.5v -2.5a 2.5 2.5, 0, 0, 0, -2.5 -2.5" transform="rotate(90,9.5,74.5)"/><rect x="17" y="72" width="5" height="5" transform="rotate(0,19.5,74.5)"/><path d="M 32 72v 5h 5a 5 5, 0, 0, 0, -5 -5" transform="rotate(90,34.5,74.5)"/><path d="M 42 72v 5h 5a 5 5, 0, 0, 0, -5 -5" transform="rotate(90,44.5,74.5)"/><path d="M 57 72v 2.5a 2.5 2.5, 0, 0, 0, 2.5 2.5h 2.5v -2.5a 2.5 2.5, 0, 0, 0, -2.5 -2.5" transform="rotate(90,59.5,74.5)"/><path d="M 72 72v 2.5a 2.5 2.5, 0, 0, 0, 2.5 2.5h 2.5v -2.5a 2.5 2.5, 0, 0, 0, -2.5 -2.5" transform="rotate(90,74.5,74.5)"/><rect x="92" y="72" width="5" height="5" transform="rotate(0,94.5,74.5)"/><rect x="102" y="72" width="5" height="5" transform="rotate(0,104.5,74.5)"/><path d="M 127 72v 5h 5a 5 5, 0, 0, 0, -5 -5" transform="rotate(-90,129.5,74.5)"/><path d="M 137 72v 5h 5a 5 5, 0, 0, 0, -5 -5" transform="rotate(90,139.5,74.5)"/><path d="M 147 72v 5h 5a 5 5, 0, 0, 0, -5 -5" transform="rotate(-90,149.5,74.5)"/><rect x="157" y="72" width="5" height="5" transform="rotate(0,159.5,74.5)"/><rect x="162" y="72" width="5" height="5" transform="rotate(0,164.5,74.5)"/><path d="M 167 72v 5h 5a 5 5, 0, 0, 0, -5 -5" transform="rotate(90,169.5,74.5)"/><path d="M 177 72v 5h 5a 5 5, 0, 0, 0, -5 -5" transform="rotate(-90,179.5,74.5)"/><rect x="182" y="72" width="5" height="5" transform="rotate(0,184.5,74.5)"/><path d="M 187 72v 5h 5a 5 5, 0, 0, 0, -5 -5" transform="rotate(90,189.5,74.5)"/><path d="M 12 77v 5h 5a 5 5, 0, 0, 0, -5 -5" transform="rotate(-90,14.5,79.5)"/><rect x="17" y="77" width="5" height="5" transform="rotate(0,19.5,79.5)"/><rect x="22" y="77" width="5" height="5" transform="rotate(0,24.5,79.5)"/><path d="M 27 77v 5h 5a 5 5, 0, 0, 0, -5 -5" transform="rotate(90,29.5,79.5)"/><path d="M 37 77v 2.5a 2.5 2.5, 0, 0, 0, 2.5 2.5h 2.5v -2.5a 2.5 2.5, 0, 0, 0, -2.5 -2.5" transform="rotate(90,39.5,79.5)"/><path d="M 52 77v 2.5a 2.5 2.5, 0, 0, 0, 2.5 2.5h 2.5v -2.5a 2.5 2.5, 0, 0, 0, -2.5 -2.5" transform="rotate(90,54.5,79.5)"/><path d="M 62 77v 5h 5a 5 5, 0, 0, 0, -5 -5" transform="rotate(-90,64.5,79.5)"/><path d="M 82 77v 5h 5a 5 5, 0, 0, 0, -5 -5" transform="rotate(-90,84.5,79.5)"/><rect x="92" y="77" width="5" height="5" transform="rotate(0,94.5,79.5)"/><rect x="97" y="77" width="5" height="5" transform="rotate(0,99.5,79.5)"/><rect x="102" y="77" width="5" height="5" transform="rotate(0,104.5,79.5)"/><path d="M 107 77v 5h 5a 5 5, 0, 0, 0, -5 -5" transform="rotate(90,109.5,79.5)"/><path d="M 117 77v 5h 5a 5 5, 0, 0, 0, -5 -5" transform="rotate(-90,119.5,79.5)"/><rect x="127" y="77" width="5" height="5" transform="rotate(0,129.5,79.5)"/><path d="M 147 77v 5h 5a 5 5, 0, 0, 0, -5 -5" transform="rotate(90,149.5,79.5)"/><path d="M 162 77v 5h 5a 5 5, 0, 0, 0, -5 -5" transform="rotate(90,164.5,79.5)"/><rect x="177" y="77" width="5" height="5" transform="rotate(0,179.5,79.5)"/><path d="M 182 77v 5h 5a 5 5, 0, 0, 0, -5 -5" transform="rotate(90,184.5,79.5)"/><path d="M 7 82v 2.5a 2.5 2.5, 0, 0, 0, 2.5 2.5h 2.5v -2.5a 2.5 2.5, 0, 0, 0, -2.5 -2.5" transform="rotate(90,9.5,84.5)"/><rect x="17" y="82" width="5" height="5" transform="rotate(0,19.5,84.5)"/><path d="M 42 82v 5h 5a 5 5, 0, 0, 0, -5 -5" transform="rotate(-90,44.5,84.5)"/><path d="M 47 82v 5h 5a 5 5, 0, 0, 0, -5 -5" transform="rotate(90,49.5,84.5)"/><path d="M 57 82v 5h 5a 5 5, 0, 0, 0, -5 -5" transform="rotate(-90,59.5,84.5)"/><rect x="62" y="82" width="5" height="5" transform="rotate(0,64.5,84.5)"/><rect x="67" y="82" width="5" height="5" transform="rotate(0,69.5,84.5)"/><path d="M 72 82v 5h 5a 5 5, 0, 0, 0, -5 -5" transform="rotate(90,74.5,84.5)"/><rect x="82" y="82" width="5" height="5" transform="rotate(0,84.5,84.5)"/><rect x="87" y="82" width="5" height="5" transform="rotate(0,89.5,84.5)"/><path d="M 92 82v 5h 5a 5 5, 0, 0, 0, -5 -5" transform="rotate(90,94.5,84.5)"/><path d="M 102 82v 5h 5a 5 5, 0, 0, 0, -5 -5" transform="rotate(90,104.5,84.5)"/><path d="M 112 82v 5h 5a 5 5, 0, 0, 0, -5 -5" transform="rotate(-90,114.5,84.5)"/><path d="M 117 82v 5h 5a 5 5, 0, 0, 0, -5 -5" transform="rotate(90,119.5,84.5)"/><rect x="127" y="82" width="5" height="5" transform="rotate(0,129.5,84.5)"/><path d="M 137 82v 2.5a 2.5 2.5, 0, 0, 0, 2.5 2.5h 2.5v -2.5a 2.5 2.5, 0, 0, 0, -2.5 -2.5" transform="rotate(90,139.5,84.5)"/><path d="M 152 82v 5h 5a 5 5, 0, 0, 0, -5 -5" transform="rotate(-90,154.5,84.5)"/><path d="M 157 82v 5h 5a 5 5, 0, 0, 0, -5 -5" transform="rotate(90,159.5,84.5)"/><path d="M 167 82v 2.5a 2.5 2.5, 0, 0, 0, 2.5 2.5h 2.5v -2.5a 2.5 2.5, 0, 0, 0, -2.5 -2.5" transform="rotate(90,169.5,84.5)"/><path d="M 187 82v 5h 5a 5 5, 0, 0, 0, -5 -5" transform="rotate(-90,189.5,84.5)"/><path d="M 17 87v 5h 5a 5 5, 0, 0, 0, -5 -5" transform="rotate(90,19.5,89.5)"/><path d="M 27 87v 5h 5a 5 5, 0, 0, 0, -5 -5" transform="rotate(-90,29.5,89.5)"/><rect x="32" y="87" width="5" height="5" transform="rotate(0,34.5,89.5)"/><path d="M 37 87v 5h 5a 5 5, 0, 0, 0, -5 -5" transform="rotate(90,39.5,89.5)"/><rect x="87" y="87" width="5" height="5" transform="rotate(0,89.5,89.5)"/><path d="M 122 87v 5h 5a 5 5, 0, 0, 0, -5 -5" transform="rotate(-90,124.5,89.5)"/><rect x="127" y="87" width="5" height="5" transform="rotate(0,129.5,89.5)"/><rect x="132" y="87" width="5" height="5" transform="rotate(0,134.5,89.5)"/><path d="M 142 87v 5h 5a 5 5, 0, 0, 0, -5 -5" transform="rotate(-90,144.5,89.5)"/><path d="M 172 87v 5h 5a 5 5, 0, 0, 0, -5 -5" transform="rotate(-90,174.5,89.5)"/><rect x="177" y="87" width="5" height="5" transform="rotate(0,179.5,89.5)"/><rect x="182" y="87" width="5" height="5" transform="rotate(0,184.5,89.5)"/><rect x="187" y="87" width="5" height="5" transform="rotate(0,189.5,89.5)"/><path d="M 7 92v 5h 5a 5 5, 0, 0, 0, -5 -5" transform="rotate(-90,9.5,94.5)"/><rect x="12" y="92" width="5" height="5" transform="rotate(0,14.5,94.5)"/><path d="M 32 92v 5h 5a 5 5, 0, 0, 0, -5 -5" transform="rotate(90,34.5,94.5)"/><path d="M 47 92v 5h 5a 5 5, 0, 0, 0, -5 -5" transform="rotate(-90,49.5,94.5)"/><path d="M 82 92v 5h 5a 5 5, 0, 0, 0, -5 -5" transform="rotate(-90,84.5,94.5)"/><path d="M 87 92v 5h 5a 5 5, 0, 0, 0, -5 -5" transform="rotate(90,89.5,94.5)"/><path d="M 97 92v 5h 5a 5 5, 0, 0, 0, -5 -5" transform="rotate(-90,99.5,94.5)"/><rect x="102" y="92" width="5" height="5" transform="rotate(0,104.5,94.5)"/><rect x="107" y="92" width="5" height="5" transform="rotate(0,109.5,94.5)"/><path d="M 112 92v 5h 5a 5 5, 0, 0, 0, -5 -5" transform="rotate(90,114.5,94.5)"/><path d="M 132 92v 5h 5a 5 5, 0, 0, 0, -5 -5" transform="rotate(90,134.5,94.5)"/><rect x="142" y="92" width="5" height="5" transform="rotate(0,144.5,94.5)"/><rect x="147" y="92" width="5" height="5" transform="rotate(0,149.5,94.5)"/><rect x="152" y="92" width="5" height="5" transform="rotate(0,154.5,94.5)"/><rect x="157" y="92" width="5" height="5" transform="rotate(0,159.5,94.5)"/><path d="M 177 92v 5h 5a 5 5, 0, 0, 0, -5 -5" transform="rotate(90,179.5,94.5)"/><rect x="187" y="92" width="5" height="5" transform="rotate(0,189.5,94.5)"/><path d="M 12 97v 5h 5a 5 5, 0, 0, 0, -5 -5" transform="rotate(90,14.5,99.5)"/><path d="M 27 97v 5h 5a 5 5, 0, 0, 0, -5 -5" transform="rotate(-90,29.5,99.5)"/><path d="M 37 97v 2.5a 2.5 2.5, 0, 0, 0, 2.5 2.5h 2.5v -2.5a 2.5 2.5, 0, 0, 0, -2.5 -2.5" transform="rotate(90,39.5,99.5)"/><rect x="47" y="97" width="5" height="5" transform="rotate(0,49.5,99.5)"/><path d="M 52 97v 5h 5a 5 5, 0, 0, 0, -5 -5" transform="rotate(90,54.5,99.5)"/><rect x="82" y="97" width="5" height="5" transform="rotate(0,84.5,99.5)"/><path d="M 92 97v 5h 5a 5 5, 0, 0, 0, -5 -5" transform="rotate(-90,94.5,99.5)"/><path d="M 97 97v 5h 5a 5 5, 0, 0, 0, -5 -5" transform="rotate(90,99.5,99.5)"/><path d="M 107 97v 5h 5a 5 5, 0, 0, 0, -5 -5" transform="rotate(90,109.5,99.5)"/><path d="M 117 97v 2.5a 2.5 2.5, 0, 0, 0, 2.5 2.5h 2.5v -2.5a 2.5 2.5, 0, 0, 0, -2.5 -2.5" transform="rotate(90,119.5,99.5)"/><path d="M 137 97v 5h 5a 5 5, 0, 0, 0, -5 -5" transform="rotate(-90,139.5,99.5)"/><path d="M 142 97v 5h 5a 5 5, 0, 0, 0, -5 -5" transform="rotate(90,144.5,99.5)"/><rect x="152" y="97" width="5" height="5" transform="rotate(0,154.5,99.5)"/><rect x="157" y="97" width="5" height="5" transform="rotate(0,159.5,99.5)"/><rect x="162" y="97" width="5" height="5" transform="rotate(0,164.5,99.5)"/><rect x="167" y="97" width="5" height="5" transform="rotate(0,169.5,99.5)"/><path d="M 182 97v 5h 5a 5 5, 0, 0, 0, -5 -5" transform="rotate(-90,184.5,99.5)"/><path d="M 187 97v 5h 5a 5 5, 0, 0, 0, -5 -5" transform="rotate(90,189.5,99.5)"/><rect x="27" y="102" width="5" height="5" transform="rotate(0,29.5,104.5)"/><rect x="32" y="102" width="5" height="5" transform="rotate(0,34.5,104.5)"/><path d="M 42 102v 5h 5a 5 5, 0, 0, 0, -5 -5" transform="rotate(-90,44.5,104.5)"/><path d="M 67 102v 5h 5a 5 5, 0, 0, 0, -5 -5" transform="rotate(-90,69.5,104.5)"/><rect x="72" y="102" width="5" height="5" transform="rotate(0,74.5,104.5)"/><rect x="77" y="102" width="5" height="5" transform="rotate(0,79.5,104.5)"/><path d="M 82 102v 5h 5a 5 5, 0, 0, 0, -5 -5" transform="rotate(90,84.5,104.5)"/><rect x="92" y="102" width="5" height="5" transform="rotate(0,94.5,104.5)"/><path d="M 122 102v 2.5a 2.5 2.5, 0, 0, 0, 2.5 2.5h 2.5v -2.5a 2.5 2.5, 0, 0, 0, -2.5 -2.5" transform="rotate(90,124.5,104.5)"/><rect x="137" y="102" width="5" height="5" transform="rotate(0,139.5,104.5)"/><path d="M 157 102v 5h 5a 5 5, 0, 0, 0, -5 -5" transform="rotate(90,159.5,104.5)"/><rect x="167" y="102" width="5" height="5" transform="rotate(0,169.5,104.5)"/><rect x="172" y="102" width="5" height="5" transform="rotate(0,174.5,104.5)"/><path d="M 182 102v 5h 5a 5 5, 0, 0, 0, -5 -5" transform="rotate(90,184.5,104.5)"/><path d="M 7 107v 2.5a 2.5 2.5, 0, 0, 0, 2.5 2.5h 2.5v -2.5a 2.5 2.5, 0, 0, 0, -2.5 -2.5" transform="rotate(90,9.5,109.5)"/><rect x="27" y="107" width="5" height="5" transform="rotate(0,29.5,109.5)"/><rect x="32" y="107" width="5" height="5" transform="rotate(0,34.5,109.5)"/><rect x="37" y="107" width="5" height="5" transform="rotate(0,39.5,109.5)"/><rect x="42" y="107" width="5" height="5" transform="rotate(0,44.5,109.5)"/><rect x="47" y="107" width="5" height="5" transform="rotate(0,49.5,109.5)"/><rect x="52" y="107" width="5" height="5" transform="rotate(0,54.5,109.5)"/><rect x="57" y="107" width="5" height="5" transform="rotate(0,59.5,109.5)"/><rect x="92" y="107" width="5" height="5" transform="rotate(0,94.5,109.5)"/><path d="M 102 107v 5h 5a 5 5, 0, 0, 0, -5 -5" transform="rotate(-90,104.5,109.5)"/><rect x="107" y="107" width="5" height="5" transform="rotate(0,109.5,109.5)"/><path d="M 112 107v 5h 5a 5 5, 0, 0, 0, -5 -5" transform="rotate(90,114.5,109.5)"/><path d="M 137 107v 5h 5a 5 5, 0, 0, 0, -5 -5" transform="rotate(90,139.5,109.5)"/><path d="M 147 107v 5h 5a 5 5, 0, 0, 0, -5 -5" transform="rotate(-90,149.5,109.5)"/><path d="M 152 107v 5h 5a 5 5, 0, 0, 0, -5 -5" transform="rotate(90,154.5,109.5)"/><rect x="167" y="107" width="5" height="5" transform="rotate(0,169.5,109.5)"/><rect x="172" y="107" width="5" height="5" transform="rotate(0,174.5,109.5)"/><path d="M 12 112v 5h 5a 5 5, 0, 0, 0, -5 -5" transform="rotate(-90,14.5,114.5)"/><path d="M 17 112v 5h 5a 5 5, 0, 0, 0, -5 -5" transform="rotate(90,19.5,114.5)"/><rect x="42" y="112" width="5" height="5" transform="rotate(0,44.5,114.5)"/><path d="M 57 112v 5h 5a 5 5, 0, 0, 0, -5 -5" transform="rotate(90,59.5,114.5)"/><path d="M 77 112v 5h 5a 5 5, 0, 0, 0, -5 -5" transform="rotate(-90,79.5,114.5)"/><path d="M 82 112v 5h 5a 5 5, 0, 0, 0, -5 -5" transform="rotate(90,84.5,114.5)"/><rect x="92" y="112" width="5" height="5" transform="rotate(0,94.5,114.5)"/><rect x="97" y="112" width="5" height="5" transform="rotate(0,99.5,114.5)"/><rect x="102" y="112" width="5" height="5" transform="rotate(0,104.5,114.5)"/><path d="M 107 112v 5h 5a 5 5, 0, 0, 0, -5 -5" transform="rotate(90,109.5,114.5)"/><path d="M 117 112v 2.5a 2.5 2.5, 0, 0, 0, 2.5 2.5h 2.5v -2.5a 2.5 2.5, 0, 0, 0, -2.5 -2.5" transform="rotate(90,119.5,114.5)"/><path d="M 162 112v 2.5a 2.5 2.5, 0, 0, 0, 2.5 2.5h 2.5v -2.5a 2.5 2.5, 0, 0, 0, -2.5 -2.5" transform="rotate(90,164.5,114.5)"/><rect x="172" y="112" width="5" height="5" transform="rotate(0,174.5,114.5)"/><path d="M 22 117v 5h 5a 5 5, 0, 0, 0, -5 -5" transform="rotate(-90,24.5,119.5)"/><path d="M 32 117v 5h 5a 5 5, 0, 0, 0, -5 -5" transform="rotate(-90,34.5,119.5)"/><rect x="37" y="117" width="5" height="5" transform="rotate(0,39.5,119.5)"/><rect x="42" y="117" width="5" height="5" transform="rotate(0,44.5,119.5)"/><path d="M 52 117v 2.5a 2.5 2.5, 0, 0, 0, 2.5 2.5h 2.5v -2.5a 2.5 2.5, 0, 0, 0, -2.5 -2.5" transform="rotate(90,54.5,119.5)"/><path d="M 62 117v 5h 5a 5 5, 0, 0, 0, -5 -5" transform="rotate(-90,64.5,119.5)"/><path d="M 67 117v 5h 5a 5 5, 0, 0, 0, -5 -5" transform="rotate(90,69.5,119.5)"/><path d="M 92 117v 5h 5a 5 5, 0, 0, 0, -5 -5" transform="rotate(90,94.5,119.5)"/><path d="M 122 117v 2.5a 2.5 2.5, 0, 0, 0, 2.5 2.5h 2.5v -2.5a 2.5 2.5, 0, 0, 0, -2.5 -2.5" transform="rotate(90,124.5,119.5)"/><path d="M 137 117v 5h 5a 5 5, 0, 0, 0, -5 -5" transform="rotate(-90,139.5,119.5)"/><path d="M 152 117v 5h 5a 5 5, 0, 0, 0, -5 -5" transform="rotate(-90,154.5,119.5)"/><path d="M 167 117v 5h 5a 5 5, 0, 0, 0, -5 -5" transform="rotate(-90,169.5,119.5)"/><rect x="172" y="117" width="5" height="5" transform="rotate(0,174.5,119.5)"/><path d="M 22 122v 5h 5a 5 5, 0, 0, 0, -5 -5" transform="rotate(90,24.5,124.5)"/><rect x="32" y="122" width="5" height="5" transform="rotate(0,34.5,124.5)"/><path d="M 42 122v 5h 5a 5 5, 0, 0, 0, -5 -5" transform="rotate(90,44.5,124.5)"/><path d="M 57 122v 5h 5a 5 5, 0, 0, 0, -5 -5" transform="rotate(-90,59.5,124.5)"/><path d="M 72 122v 2.5a 2.5 2.5, 0, 0, 0, 2.5 2.5h 2.5v -2.5a 2.5 2.5, 0, 0, 0, -2.5 -2.5" transform="rotate(90,74.5,124.5)"/><path d="M 82 122v 5h 5a 5 5, 0, 0, 0, -5 -5" transform="rotate(-90,84.5,124.5)"/><rect x="87" y="122" width="5" height="5" transform="rotate(0,89.5,124.5)"/><path d="M 97 122v 5h 5a 5 5, 0, 0, 0, -5 -5" transform="rotate(-90,99.5,124.5)"/><rect x="102" y="122" width="5" height="5" transform="rotate(0,104.5,124.5)"/><path d="M 117 122v 5h 5a 5 5, 0, 0, 0, -5 -5" transform="rotate(-90,119.5,124.5)"/><path d="M 132 122v 5h 5a 5 5, 0, 0, 0, -5 -5" transform="rotate(-90,134.5,124.5)"/><rect x="137" y="122" width="5" height="5" transform="rotate(0,139.5,124.5)"/><rect x="142" y="122" width="5" height="5" transform="rotate(0,144.5,124.5)"/><rect x="147" y="122" width="5" height="5" transform="rotate(0,149.5,124.5)"/><path d="M 152 122v 5h 5a 5 5, 0, 0, 0, -5 -5" transform="rotate(90,154.5,124.5)"/><rect x="172" y="122" width="5" height="5" transform="rotate(0,174.5,124.5)"/><rect x="177" y="122" width="5" height="5" transform="rotate(0,179.5,124.5)"/><path d="M 7 127v 2.5a 2.5 2.5, 0, 0, 0, 2.5 2.5h 2.5v -2.5a 2.5 2.5, 0, 0, 0, -2.5 -2.5" transform="rotate(90,9.5,129.5)"/><rect x="32" y="127" width="5" height="5" transform="rotate(0,34.5,129.5)"/><path d="M 37 127v 5h 5a 5 5, 0, 0, 0, -5 -5" transform="rotate(90,39.5,129.5)"/><rect x="57" y="127" width="5" height="5" transform="rotate(0,59.5,129.5)"/><rect x="62" y="127" width="5" height="5" transform="rotate(0,64.5,129.5)"/><path d="M 77 127v 5h 5a 5 5, 0, 0, 0, -5 -5" transform="rotate(-90,79.5,129.5)"/><rect x="82" y="127" width="5" height="5" transform="rotate(0,84.5,129.5)"/><rect x="87" y="127" width="5" height="5" transform="rotate(0,89.5,129.5)"/><rect x="92" y="127" width="5" height="5" transform="rotate(0,94.5,129.5)"/><rect x="97" y="127" width="5" height="5" transform="rotate(0,99.5,129.5)"/><rect x="102" y="127" width="5" height="5" transform="rotate(0,104.5,129.5)"/><rect x="107" y="127" width="5" height="5" transform="rotate(0,109.5,129.5)"/><rect x="117" y="127" width="5" height="5" transform="rotate(0,119.5,129.5)"/><rect x="122" y="127" width="5" height="5" transform="rotate(0,124.5,129.5)"/><path d="M 127 127v 5h 5a 5 5, 0, 0, 0, -5 -5" transform="rotate(90,129.5,129.5)"/><path d="M 157 127v 2.5a 2.5 2.5, 0, 0, 0, 2.5 2.5h 2.5v -2.5a 2.5 2.5, 0, 0, 0, -2.5 -2.5" transform="rotate(90,159.5,129.5)"/><rect x="172" y="127" width="5" height="5" transform="rotate(0,174.5,129.5)"/><path d="M 177 127v 5h 5a 5 5, 0, 0, 0, -5 -5" transform="rotate(90,179.5,129.5)"/><path d="M 187 127v 5h 5a 5 5, 0, 0, 0, -5 -5" transform="rotate(-90,189.5,129.5)"/><path d="M 17 132v 5h 5a 5 5, 0, 0, 0, -5 -5" transform="rotate(-90,19.5,134.5)"/><rect x="22" y="132" width="5" height="5" transform="rotate(0,24.5,134.5)"/><path d="M 32 132v 5h 5a 5 5, 0, 0, 0, -5 -5" transform="rotate(90,34.5,134.5)"/><path d="M 52 132v 5h 5a 5 5, 0, 0, 0, -5 -5" transform="rotate(-90,54.5,134.5)"/><rect x="62" y="132" width="5" height="5" transform="rotate(0,64.5,134.5)"/><rect x="67" y="132" width="5" height="5" transform="rotate(0,69.5,134.5)"/><rect x="82" y="132" width="5" height="5" transform="rotate(0,84.5,134.5)"/><rect x="87" y="132" width="5" height="5" transform="rotate(0,89.5,134.5)"/><rect x="97" y="132" width="5" height="5" transform="rotate(0,99.5,134.5)"/><rect x="107" y="132" width="5" height="5" transform="rotate(0,109.5,134.5)"/><rect x="112" y="132" width="5" height="5" transform="rotate(0,114.5,134.5)"/><path d="M 147 132v 5h 5a 5 5, 0, 0, 0, -5 -5" transform="rotate(-90,149.5,134.5)"/><path d="M 167 132v 5h 5a 5 5, 0, 0, 0, -5 -5" transform="rotate(-90,169.5,134.5)"/><path d="M 182 132v 5h 5a 5 5, 0, 0, 0, -5 -5" transform="rotate(-90,184.5,134.5)"/><path d="M 187 132v 5h 5a 5 5, 0, 0, 0, -5 -5" transform="rotate(90,189.5,134.5)"/><path d="M 12 137v 2.5a 2.5 2.5, 0, 0, 0, 2.5 2.5h 2.5v -2.5a 2.5 2.5, 0, 0, 0, -2.5 -2.5" transform="rotate(90,14.5,139.5)"/><rect x="22" y="137" width="5" height="5" transform="rotate(0,24.5,139.5)"/><path d="M 27 137v 5h 5a 5 5, 0, 0, 0, -5 -5" transform="rotate(90,29.5,139.5)"/><path d="M 37 137v 5h 5a 5 5, 0, 0, 0, -5 -5" transform="rotate(-90,39.5,139.5)"/><path d="M 42 137v 5h 5a 5 5, 0, 0, 0, -5 -5" transform="rotate(90,44.5,139.5)"/><rect x="52" y="137" width="5" height="5" transform="rotate(0,54.5,139.5)"/><rect x="62" y="137" width="5" height="5" transform="rotate(0,64.5,139.5)"/><rect x="67" y="137" width="5" height="5" transform="rotate(0,69.5,139.5)"/><path d="M 77 137v 5h 5a 5 5, 0, 0, 0, -5 -5" transform="rotate(-90,79.5,139.5)"/><rect x="82" y="137" width="5" height="5" transform="rotate(0,84.5,139.5)"/><rect x="87" y="137" width="5" height="5" transform="rotate(0,89.5,139.5)"/><rect x="92" y="137" width="5" height="5" transform="rotate(0,94.5,139.5)"/><rect x="97" y="137" width="5" height="5" transform="rotate(0,99.5,139.5)"/><rect x="107" y="137" width="5" height="5" transform="rotate(0,109.5,139.5)"/><rect x="112" y="137" width="5" height="5" transform="rotate(0,114.5,139.5)"/><path d="M 117 137v 5h 5a 5 5, 0, 0, 0, -5 -5" transform="rotate(90,119.5,139.5)"/><path d="M 127 137v 2.5a 2.5 2.5, 0, 0, 0, 2.5 2.5h 2.5v -2.5a 2.5 2.5, 0, 0, 0, -2.5 -2.5" transform="rotate(90,129.5,139.5)"/><path d="M 142 137v 5h 5a 5 5, 0, 0, 0, -5 -5" transform="rotate(-90,144.5,139.5)"/><rect x="147" y="137" width="5" height="5" transform="rotate(0,149.5,139.5)"/><path d="M 162 137v 5h 5a 5 5, 0, 0, 0, -5 -5" transform="rotate(-90,164.5,139.5)"/><rect x="167" y="137" width="5" height="5" transform="rotate(0,169.5,139.5)"/><rect x="182" y="137" width="5" height="5" transform="rotate(0,184.5,139.5)"/><path d="M 7 142v 2.5a 2.5 2.5, 0, 0, 0, 2.5 2.5h 2.5v -2.5a 2.5 2.5, 0, 0, 0, -2.5 -2.5" transform="rotate(90,9.5,144.5)"/><path d="M 32 142v 5h 5a 5 5, 0, 0, 0, -5 -5" transform="rotate(-90,34.5,144.5)"/><rect x="52" y="142" width="5" height="5" transform="rotate(0,54.5,144.5)"/><rect x="62" y="142" width="5" height="5" transform="rotate(0,64.5,144.5)"/><path d="M 67 142v 5h 5a 5 5, 0, 0, 0, -5 -5" transform="rotate(90,69.5,144.5)"/><path d="M 87 142v 5h 5a 5 5, 0, 0, 0, -5 -5" transform="rotate(90,89.5,144.5)"/><rect x="97" y="142" width="5" height="5" transform="rotate(0,99.5,144.5)"/><rect x="102" y="142" width="5" height="5" transform="rotate(0,104.5,144.5)"/><rect x="107" y="142" width="5" height="5" transform="rotate(0,109.5,144.5)"/><rect x="112" y="142" width="5" height="5" transform="rotate(0,114.5,144.5)"/><path d="M 137 142v 2.5a 2.5 2.5, 0, 0, 0, 2.5 2.5h 2.5v -2.5a 2.5 2.5, 0, 0, 0, -2.5 -2.5" transform="rotate(90,139.5,144.5)"/><rect x="147" y="142" width="5" height="5" transform="rotate(0,149.5,144.5)"/><rect x="152" y="142" width="5" height="5" transform="rotate(0,154.5,144.5)"/><rect x="162" y="142" width="5" height="5" transform="rotate(0,164.5,144.5)"/><rect x="167" y="142" width="5" height="5" transform="rotate(0,169.5,144.5)"/><path d="M 182 142v 5h 5a 5 5, 0, 0, 0, -5 -5" transform="rotate(90,184.5,144.5)"/><path d="M 17 147v 5h 5a 5 5, 0, 0, 0, -5 -5" transform="rotate(-90,19.5,149.5)"/><path d="M 22 147v 5h 5a 5 5, 0, 0, 0, -5 -5" transform="rotate(90,24.5,149.5)"/><rect x="32" y="147" width="5" height="5" transform="rotate(0,34.5,149.5)"/><rect x="37" y="147" width="5" height="5" transform="rotate(0,39.5,149.5)"/><rect x="42" y="147" width="5" height="5" transform="rotate(0,44.5,149.5)"/><rect x="47" y="147" width="5" height="5" transform="rotate(0,49.5,149.5)"/><rect x="52" y="147" width="5" height="5" transform="rotate(0,54.5,149.5)"/><path d="M 62 147v 5h 5a 5 5, 0, 0, 0, -5 -5" transform="rotate(90,64.5,149.5)"/><path d="M 72 147v 5h 5a 5 5, 0, 0, 0, -5 -5" transform="rotate(-90,74.5,149.5)"/><rect x="77" y="147" width="5" height="5" transform="rotate(0,79.5,149.5)"/><rect x="82" y="147" width="5" height="5" transform="rotate(0,84.5,149.5)"/><rect x="97" y="147" width="5" height="5" transform="rotate(0,99.5,149.5)"/><rect x="112" y="147" width="5" height="5" transform="rotate(0,114.5,149.5)"/><path d="M 132 147v 2.5a 2.5 2.5, 0, 0, 0, 2.5 2.5h 2.5v -2.5a 2.5 2.5, 0, 0, 0, -2.5 -2.5" transform="rotate(90,134.5,149.5)"/><path d="M 142 147v 5h 5a 5 5, 0, 0, 0, -5 -5" transform="rotate(-90,144.5,149.5)"/><rect x="147" y="147" width="5" height="5" transform="rotate(0,149.5,149.5)"/><rect x="152" y="147" width="5" height="5" transform="rotate(0,154.5,149.5)"/><rect x="157" y="147" width="5" height="5" transform="rotate(0,159.5,149.5)"/><rect x="162" y="147" width="5" height="5" transform="rotate(0,164.5,149.5)"/><rect x="167" y="147" width="5" height="5" transform="rotate(0,169.5,149.5)"/><path d="M 187 147v 5h 5a 5 5, 0, 0, 0, -5 -5" transform="rotate(-90,189.5,149.5)"/><rect x="47" y="152" width="5" height="5" transform="rotate(0,49.5,154.5)"/><rect x="52" y="152" width="5" height="5" transform="rotate(0,54.5,154.5)"/><path d="M 67 152v 2.5a 2.5 2.5, 0, 0, 0, 2.5 2.5h 2.5v -2.5a 2.5 2.5, 0, 0, 0, -2.5 -2.5" transform="rotate(90,69.5,154.5)"/><rect x="77" y="152" width="5" height="5" transform="rotate(0,79.5,154.5)"/><rect x="82" y="152" width="5" height="5" transform="rotate(0,84.5,154.5)"/><rect x="97" y="152" width="5" height="5" transform="rotate(0,99.5,154.5)"/><path d="M 112 152v 5h 5a 5 5, 0, 0, 0, -5 -5" transform="rotate(90,114.5,154.5)"/><path d="M 122 152v 5h 5a 5 5, 0, 0, 0, -5 -5" transform="rotate(-90,124.5,154.5)"/><rect x="127" y="152" width="5" height="5" transform="rotate(0,129.5,154.5)"/><rect x="147" y="152" width="5" height="5" transform="rotate(0,149.5,154.5)"/><rect x="167" y="152" width="5" height="5" transform="rotate(0,169.5,154.5)"/><rect x="172" y="152" width="5" height="5" transform="rotate(0,174.5,154.5)"/><path d="M 177 152v 5h 5a 5 5, 0, 0, 0, -5 -5" transform="rotate(90,179.5,154.5)"/><rect x="187" y="152" width="5" height="5" transform="rotate(0,189.5,154.5)"/><path d="M 52 157v 5h 5a 5 5, 0, 0, 0, -5 -5" transform="rotate(90,54.5,159.5)"/><path d="M 62 157v 2.5a 2.5 2.5, 0, 0, 0, 2.5 2.5h 2.5v -2.5a 2.5 2.5, 0, 0, 0, -2.5 -2.5" transform="rotate(90,64.5,159.5)"/><rect x="82" y="157" width="5" height="5" transform="rotate(0,84.5,159.5)"/><path d="M 87 157v 5h 5a 5 5, 0, 0, 0, -5 -5" transform="rotate(90,89.5,159.5)"/><rect x="97" y="157" width="5" height="5" transform="rotate(0,99.5,159.5)"/><path d="M 102 157v 5h 5a 5 5, 0, 0, 0, -5 -5" transform="rotate(90,104.5,159.5)"/><path d="M 117 157v 2.5a 2.5 2.5, 0, 0, 0, 2.5 2.5h 2.5v -2.5a 2.5 2.5, 0, 0, 0, -2.5 -2.5" transform="rotate(90,119.5,159.5)"/><rect x="127" y="157" width="5" height="5" transform="rotate(0,129.5,159.5)"/><rect x="132" y="157" width="5" height="5" transform="rotate(0,134.5,159.5)"/><rect x="137" y="157" width="5" height="5" transform="rotate(0,139.5,159.5)"/><rect x="142" y="157" width="5" height="5" transform="rotate(0,144.5,159.5)"/><rect x="147" y="157" width="5" height="5" transform="rotate(0,149.5,159.5)"/><path d="M 157 157v 2.5a 2.5 2.5, 0, 0, 0, 2.5 2.5h 2.5v -2.5a 2.5 2.5, 0, 0, 0, -2.5 -2.5" transform="rotate(90,159.5,159.5)"/><rect x="167" y="157" width="5" height="5" transform="rotate(0,169.5,159.5)"/><rect x="172" y="157" width="5" height="5" transform="rotate(0,174.5,159.5)"/><path d="M 182 157v 5h 5a 5 5, 0, 0, 0, -5 -5" transform="rotate(-90,184.5,159.5)"/><rect x="187" y="157" width="5" height="5" transform="rotate(0,189.5,159.5)"/><path d="M 47 162v 2.5a 2.5 2.5, 0, 0, 0, 2.5 2.5h 2.5v -2.5a 2.5 2.5, 0, 0, 0, -2.5 -2.5" transform="rotate(90,49.5,164.5)"/><path d="M 57 162v 2.5a 2.5 2.5, 0, 0, 0, 2.5 2.5h 2.5v -2.5a 2.5 2.5, 0, 0, 0, -2.5 -2.5" transform="rotate(90,59.5,164.5)"/><path d="M 82 162v 5h 5a 5 5, 0, 0, 0, -5 -5" transform="rotate(90,84.5,164.5)"/><path d="M 92 162v 5h 5a 5 5, 0, 0, 0, -5 -5" transform="rotate(-90,94.5,164.5)"/><rect x="97" y="162" width="5" height="5" transform="rotate(0,99.5,164.5)"/><path d="M 107 162v 5h 5a 5 5, 0, 0, 0, -5 -5" transform="rotate(-90,109.5,164.5)"/><path d="M 112 162v 5h 5a 5 5, 0, 0, 0, -5 -5" transform="rotate(90,114.5,164.5)"/><path d="M 122 162v 5h 5a 5 5, 0, 0, 0, -5 -5" transform="rotate(-90,124.5,164.5)"/><rect x="142" y="162" width="5" height="5" transform="rotate(0,144.5,164.5)"/><rect x="147" y="162" width="5" height="5" transform="rotate(0,149.5,164.5)"/><rect x="167" y="162" width="5" height="5" transform="rotate(0,169.5,164.5)"/><rect x="172" y="162" width="5" height="5" transform="rotate(0,174.5,164.5)"/><path d="M 187 162v 5h 5a 5 5, 0, 0, 0, -5 -5" transform="rotate(90,189.5,164.5)"/><path d="M 62 167v 5h 5a 5 5, 0, 0, 0, -5 -5" transform="rotate(-90,64.5,169.5)"/><rect x="67" y="167" width="5" height="5" transform="rotate(0,69.5,169.5)"/><path d="M 77 167v 2.5a 2.5 2.5, 0, 0, 0, 2.5 2.5h 2.5v -2.5a 2.5 2.5, 0, 0, 0, -2.5 -2.5" transform="rotate(90,79.5,169.5)"/><rect x="92" y="167" width="5" height="5" transform="rotate(0,94.5,169.5)"/><path d="M 97 167v 5h 5a 5 5, 0, 0, 0, -5 -5" transform="rotate(90,99.5,169.5)"/><path d="M 107 167v 5h 5a 5 5, 0, 0, 0, -5 -5" transform="rotate(90,109.5,169.5)"/><path d="M 122 167v 5h 5a 5 5, 0, 0, 0, -5 -5" transform="rotate(90,124.5,169.5)"/><path d="M 137 167v 2.5a 2.5 2.5, 0, 0, 0, 2.5 2.5h 2.5v -2.5a 2.5 2.5, 0, 0, 0, -2.5 -2.5" transform="rotate(90,139.5,169.5)"/><rect x="147" y="167" width="5" height="5" transform="rotate(0,149.5,169.5)"/><rect x="152" y="167" width="5" height="5" transform="rotate(0,154.5,169.5)"/><rect x="157" y="167" width="5" height="5" transform="rotate(0,159.5,169.5)"/><rect x="162" y="167" width="5" height="5" transform="rotate(0,164.5,169.5)"/><rect x="167" y="167" width="5" height="5" transform="rotate(0,169.5,169.5)"/><path d="M 172 167v 5h 5a 5 5, 0, 0, 0, -5 -5" transform="rotate(90,174.5,169.5)"/><path d="M 182 167v 5h 5a 5 5, 0, 0, 0, -5 -5" transform="rotate(-90,184.5,169.5)"/><path d="M 47 172v 5h 5a 5 5, 0, 0, 0, -5 -5" transform="rotate(-90,49.5,174.5)"/><path d="M 52 172v 5h 5a 5 5, 0, 0, 0, -5 -5" transform="rotate(90,54.5,174.5)"/><rect x="62" y="172" width="5" height="5" transform="rotate(0,64.5,174.5)"/><rect x="67" y="172" width="5" height="5" transform="rotate(0,69.5,174.5)"/><path d="M 72 172v 5h 5a 5 5, 0, 0, 0, -5 -5" transform="rotate(90,74.5,174.5)"/><path d="M 82 172v 5h 5a 5 5, 0, 0, 0, -5 -5" transform="rotate(-90,84.5,174.5)"/><path d="M 92 172v 5h 5a 5 5, 0, 0, 0, -5 -5" transform="rotate(90,94.5,174.5)"/><path d="M 112 172v 2.5a 2.5 2.5, 0, 0, 0, 2.5 2.5h 2.5v -2.5a 2.5 2.5, 0, 0, 0, -2.5 -2.5" transform="rotate(90,114.5,174.5)"/><path d="M 142 172v 2.5a 2.5 2.5, 0, 0, 0, 2.5 2.5h 2.5v -2.5a 2.5 2.5, 0, 0, 0, -2.5 -2.5" transform="rotate(90,144.5,174.5)"/><rect x="157" y="172" width="5" height="5" transform="rotate(0,159.5,174.5)"/><rect x="162" y="172" width="5" height="5" transform="rotate(0,164.5,174.5)"/><rect x="182" y="172" width="5" height="5" transform="rotate(0,184.5,174.5)"/><rect x="47" y="177" width="5" height="5" transform="rotate(0,49.5,179.5)"/><path d="M 77 177v 5h 5a 5 5, 0, 0, 0, -5 -5" transform="rotate(-90,79.5,179.5)"/><rect x="82" y="177" width="5" height="5" transform="rotate(0,84.5,179.5)"/><rect x="87" y="177" width="5" height="5" transform="rotate(0,89.5,179.5)"/><path d="M 97 177v 2.5a 2.5 2.5, 0, 0, 0, 2.5 2.5h 2.5v -2.5a 2.5 2.5, 0, 0, 0, -2.5 -2.5" transform="rotate(90,99.5,179.5)"/><path d="M 147 177v 2.5a 2.5 2.5, 0, 0, 0, 2.5 2.5h 2.5v -2.5a 2.5 2.5, 0, 0, 0, -2.5 -2.5" transform="rotate(90,149.5,179.5)"/><rect x="157" y="177" width="5" height="5" transform="rotate(0,159.5,179.5)"/><rect x="162" y="177" width="5" height="5" transform="rotate(0,164.5,179.5)"/><path d="M 167 177v 5h 5a 5 5, 0, 0, 0, -5 -5" transform="rotate(90,169.5,179.5)"/><path d="M 182 177v 5h 5a 5 5, 0, 0, 0, -5 -5" transform="rotate(90,184.5,179.5)"/><path d="M 47 182v 5h 5a 5 5, 0, 0, 0, -5 -5" transform="rotate(90,49.5,184.5)"/><path d="M 62 182v 5h 5a 5 5, 0, 0, 0, -5 -5" transform="rotate(-90,64.5,184.5)"/><rect x="67" y="182" width="5" height="5" transform="rotate(0,69.5,184.5)"/><rect x="72" y="182" width="5" height="5" transform="rotate(0,74.5,184.5)"/><rect x="77" y="182" width="5" height="5" transform="rotate(0,79.5,184.5)"/><rect x="82" y="182" width="5" height="5" transform="rotate(0,84.5,184.5)"/><rect x="87" y="182" width="5" height="5" transform="rotate(0,89.5,184.5)"/><rect x="92" y="182" width="5" height="5" transform="rotate(0,94.5,184.5)"/><path d="M 102 182v 2.5a 2.5 2.5, 0, 0, 0, 2.5 2.5h 2.5v -2.5a 2.5 2.5, 0, 0, 0, -2.5 -2.5" transform="rotate(90,104.5,184.5)"/><path d="M 122 182v 5h 5a 5 5, 0, 0, 0, -5 -5" transform="rotate(-90,124.5,184.5)"/><rect x="127" y="182" width="5" height="5" transform="rotate(0,129.5,184.5)"/><rect x="132" y="182" width="5" height="5" transform="rotate(0,134.5,184.5)"/><rect x="137" y="182" width="5" height="5" transform="rotate(0,139.5,184.5)"/><path d="M 142 182v 5h 5a 5 5, 0, 0, 0, -5 -5" transform="rotate(90,144.5,184.5)"/><path d="M 172 182v 5h 5a 5 5, 0, 0, 0, -5 -5" transform="rotate(-90,174.5,184.5)"/><rect x="177" y="182" width="5" height="5" transform="rotate(0,179.5,184.5)"/><rect x="62" y="187" width="5" height="5" transform="rotate(0,64.5,189.5)"/><rect x="67" y="187" width="5" height="5" transform="rotate(0,69.5,189.5)"/><rect x="72" y="187" width="5" height="5" transform="rotate(0,74.5,189.5)"/><path d="M 77 187v 5h 5a 5 5, 0, 0, 0, -5 -5" transform="rotate(90,79.5,189.5)"/><rect x="87" y="187" width="5" height="5" transform="rotate(0,89.5,189.5)"/><path d="M 92 187v 5h 5a 5 5, 0, 0, 0, -5 -5" transform="rotate(90,94.5,189.5)"/><path d="M 107 187v 5h 5a 5 5, 0, 0, 0, -5 -5" transform="rotate(-90,109.5,189.5)"/><rect x="112" y="187" width="5" height="5" transform="rotate(0,114.5,189.5)"/><rect x="117" y="187" width="5" height="5" transform="rotate(0,119.5,189.5)"/><rect x="122" y="187" width="5" height="5" transform="rotate(0,124.5,189.5)"/><rect x="127" y="187" width="5" height="5" transform="rotate(0,129.5,189.5)"/><rect x="132" y="187" width="5" height="5" transform="rotate(0,134.5,189.5)"/><path d="M 137 187v 5h 5a 5 5, 0, 0, 0, -5 -5" transform="rotate(90,139.5,189.5)"/><path d="M 157 187v 2.5a 2.5 2.5, 0, 0, 0, 2.5 2.5h 2.5v -2.5a 2.5 2.5, 0, 0, 0, -2.5 -2.5" transform="rotate(90,159.5,189.5)"/><rect x="177" y="187" width="5" height="5" transform="rotate(0,179.5,189.5)"/><rect x="182" y="187" width="5" height="5" transform="rotate(0,184.5,189.5)"/><path d="M 187 187v 5h 5a 5 5, 0, 0, 0, -5 -5" transform="rotate(90,189.5,189.5)"/></clipPath><linearGradient id="dot-color-99" gradientUnits="userSpaceOnUse" x1="0" y1="42" x2="200" y2="158"><stop offset="0%" stop-color="#b0cc46"/><stop offset="100%" stop-color="#236802"/></linearGradient><clipPath id="clip-path-corners-square-color-0-0-99"><path clip-rule="evenodd" d="M 7 19.5v 10a 12.5 12.5, 0, 0, 0, 12.5 12.5h 10a 12.5 12.5, 0, 0, 0, 12.5 -12.5v -10a 12.5 12.5, 0, 0, 0, -12.5 -12.5h -10a 12.5 12.5, 0, 0, 0, -12.5 12.5M 19.5 12h 10a 7.5 7.5, 0, 0, 1, 7.5 7.5v 10a 7.5 7.5, 0, 0, 1, -7.5 7.5h -10a 7.5 7.5, 0, 0, 1, -7.5 -7.5v -10a 7.5 7.5, 0, 0, 1, 7.5 -7.5" transform="rotate(0,24.5,24.5)"/></clipPath><linearGradient id="corners-square-color-0-0-99" gradientUnits="userSpaceOnUse" x1="7" y1="25" x2="42" y2="25"><stop offset="0%" stop-color="#d41d54"/><stop offset="100%" stop-color="#235ea3"/></linearGradient><clipPath id="clip-path-corners-dot-color-0-0-99"><circle cx="24.5" cy="24.5" r="7.5" transform="rotate(0,24.5,24.5)"/></clipPath><clipPath id="clip-path-corners-square-color-1-0-99"><path clip-rule="evenodd" d="M 157 19.5v 10a 12.5 12.5, 0, 0, 0, 12.5 12.5h 10a 12.5 12.5, 0, 0, 0, 12.5 -12.5v -10a 12.5 12.5, 0, 0, 0, -12.5 -12.5h -10a 12.5 12.5, 0, 0, 0, -12.5 12.5M 169.5 12h 10a 7.5 7.5, 0, 0, 1, 7.5 7.5v 10a 7.5 7.5, 0, 0, 1, -7.5 7.5h -10a 7.5 7.5, 0, 0, 1, -7.5 -7.5v -10a 7.5 7.5, 0, 0, 1, 7.5 -7.5" transform="rotate(90,174.5,24.5)"/></clipPath><linearGradient id="corners-square-color-1-0-99" gradientUnits="userSpaceOnUse" x1="175" y1="7" x2="175" y2="42"><stop offset="0%" stop-color="#d41d54"/><stop offset="100%" stop-color="#235ea3"/></linearGradient><clipPath id="clip-path-corners-dot-color-1-0-99"><circle cx="174.5" cy="24.5" r="7.5" transform="rotate(90,174.5,24.5)"/></clipPath><clipPath id="clip-path-corners-square-color-0-1-99"><path clip-rule="evenodd" d="M 7 169.5v 10a 12.5 12.5, 0, 0, 0, 12.5 12.5h 10a 12.5 12.5, 0, 0, 0, 12.5 -12.5v -10a 12.5 12.5, 0, 0, 0, -12.5 -12.5h -10a 12.5 12.5, 0, 0, 0, -12.5 12.5M 19.5 162h 10a 7.5 7.5, 0, 0, 1, 7.5 7.5v 10a 7.5 7.5, 0, 0, 1, -7.5 7.5h -10a 7.5 7.5, 0, 0, 1, -7.5 -7.5v -10a 7.5 7.5, 0, 0, 1, 7.5 -7.5" transform="rotate(-90,24.5,174.5)"/></clipPath><linearGradient id="corners-square-color-0-1-99" gradientUnits="userSpaceOnUse" x1="25" y1="192" x2="25" y2="157"><stop offset="0%" stop-color="#d41d54"/><stop offset="100%" stop-color="#235ea3"/></linearGradient><clipPath id="clip-path-corners-dot-color-0-1-99"><circle cx="24.5" cy="174.5" r="7.5" transform="rotate(-90,24.5,174.5)"/></clipPath></defs><rect x="0" y="0" height="200" width="200" clip-path="url('#clip-path-background-color-99')" fill="#ffffff"/><rect x="0" y="0" height="200" width="200" clip-path="url('#clip-path-dot-color-99')" fill="url('#dot-color-99')"/><rect x="7" y="7" height="35" width="35" clip-path="url('#clip-path-corners-square-color-0-0-99')" fill="url('#corners-square-color-0-0-99')"/><rect x="17" y="17" height="15" width="15" clip-path="url('#clip-path-corners-dot-color-0-0-99')" fill="#235ea3"/><rect x="157" y="7" height="35" width="35" clip-path="url('#clip-path-corners-square-color-1-0-99')" fill="url('#corners-square-color-1-0-99')"/><rect x="167" y="17" height="15" width="15" clip-path="url('#clip-path-corners-dot-color-1-0-99')" fill="#235ea3"/><rect x="7" y="157" height="35" width="35" clip-path="url('#clip-path-corners-square-color-0-1-99')" fill="url('#corners-square-color-0-1-99')"/><rect x="17" y="167" height="15" width="15" clip-path="url('#clip-path-corners-dot-color-0-1-99')" fill="#235ea3"/></svg>