<svg xmlns="http://www.w3.org/2000/svg" width="200" height="200">
    <defs>
        <clipPath id="a">
            <path d="M0 0h200v200H0z"/>
        </clipPath>
        <clipPath id="b">
            <path d="M72 7h-2.5A2.5 2.5 0 0 0 67 9.5V12h2.5A2.5 2.5 0 0 0 72 9.5M82 7h-2.5A2.5 2.5 0 0 0 77 9.5V12h2.5A2.5 2.5 0 0 0 82 9.5M92 7h-2.5A2.5 2.5 0 0 0 87 9.5V12h2.5A2.5 2.5 0 0 0 92 9.5M117 7h-2.5a2.5 2.5 0 0 0-2.5 2.5V12h2.5a2.5 2.5 0 0 0 2.5-2.5M137 7h-2.5a2.5 2.5 0 0 0-2.5 2.5V12h2.5a2.5 2.5 0 0 0 2.5-2.5M152 7h-2.5a2.5 2.5 0 0 0-2.5 2.5V12h2.5a2.5 2.5 0 0 0 2.5-2.5M47 17h5v-5a5 5 0 0 0-5 5M57 17h5v-5a5 5 0 0 0-5 5M77 12h-2.5a2.5 2.5 0 0 0-2.5 2.5V17h2.5a2.5 2.5 0 0 0 2.5-2.5M92 17h5v-5a5 5 0 0 0-5 5M102 12h-5v5a5 5 0 0 0 5-5M117 17h5v-5a5 5 0 0 0-5 5M142 12h-2.5a2.5 2.5 0 0 0-2.5 2.5V17h2.5a2.5 2.5 0 0 0 2.5-2.5M52 17h-5v5a5 5 0 0 0 5-5M62 17h-5v5a5 5 0 0 0 5-5M77 22h5v-5a5 5 0 0 0-5 5M97 17h-5v5a5 5 0 0 0 5-5M102 22h5v-5a5 5 0 0 0-5 5M107 17h5v5h-5zM117 17h5v5h-5zM122 17h5v5h-5zM127 17h5v5h-5zM137 17h-5v5a5 5 0 0 0 5-5M147 17h-2.5a2.5 2.5 0 0 0-2.5 2.5V22h2.5a2.5 2.5 0 0 0 2.5-2.5M52 27h5v-5a5 5 0 0 0-5 5M62 27h5v-5a5 5 0 0 0-5 5M67 22h5v5h-5zM72 22h5v5h-5zM82 22h-5v5a5 5 0 0 0 5-5M87 27h5v-5a5 5 0 0 0-5 5M112 22h-5v5a5 5 0 0 0 5-5M122 22h5v5h-5zM127 22h5v5h-5zM137 27h5v-5a5 5 0 0 0-5 5M52 27h5v5h-5zM92 27h-5v5a5 5 0 0 0 5-5M97 32h5v-5a5 5 0 0 0-5 5M127 27h5v5h-5zM132 27h5v5h-5zM137 27h5v5h-5zM147 27h-5v5a5 5 0 0 0 5-5M52 32h5v5h-5zM57 32h5v5h-5zM67 37h5v-5a5 5 0 0 0-5 5M77 32h-5v5a5 5 0 0 0 5-5M87 32h-2.5a2.5 2.5 0 0 0-2.5 2.5V37h2.5a2.5 2.5 0 0 0 2.5-2.5M97 32h5v5h-5zM102 32h5v5h-5zM107 32h5v5h-5zM117 32h-5v5a5 5 0 0 0 5-5M127 32h5v5h-5zM137 32h5v5h-5zM52 37h-2.5a2.5 2.5 0 0 0-2.5 2.5V42h2.5a2.5 2.5 0 0 0 2.5-2.5M57 37h5v5h-5zM67 37h5v5h-5zM82 37h-2.5a2.5 2.5 0 0 0-2.5 2.5V42h2.5a2.5 2.5 0 0 0 2.5-2.5M87 42h5v-5a5 5 0 0 0-5 5M102 37h-5v5a5 5 0 0 0 5-5M112 37h-5v5a5 5 0 0 0 5-5M117 42h5v-5a5 5 0 0 0-5 5M127 37h5v5h-5zM137 37h5v5h-5zM147 42h5v-5a5 5 0 0 0-5 5M57 42h5v5h-5zM62 42h5v5h-5zM67 42h5v5h-5zM72 42h5v5h-5zM82 47h5v-5a5 5 0 0 0-5 5M87 42h5v5h-5zM122 42h-5v5a5 5 0 0 0 5-5M127 42h5v5h-5zM132 42h5v5h-5zM137 42h5v5h-5zM142 42h5v5h-5zM152 42h-5v5a5 5 0 0 0 5-5M12 52h5v-5a5 5 0 0 0-5 5M17 47h5v5h-5zM27 47h-5v5a5 5 0 0 0 5-5M32 52h5v-5a5 5 0 0 0-5 5M42 47h-5v5a5 5 0 0 0 5-5M67 47h5v5h-5zM77 47h-5v5a5 5 0 0 0 5-5M87 47h5v5h-5zM102 47h-2.5a2.5 2.5 0 0 0-2.5 2.5V52h2.5a2.5 2.5 0 0 0 2.5-2.5M127 47h-2.5a2.5 2.5 0 0 0-2.5 2.5V52h2.5a2.5 2.5 0 0 0 2.5-2.5M132 47h5v5h-5zM137 47h5v5h-5zM142 47h5v5h-5zM177 52h5v-5a5 5 0 0 0-5 5M182 47h5v5h-5zM7 57h5v-5a5 5 0 0 0-5 5M12 52h5v5h-5zM17 52h5v5h-5zM32 52h5v5h-5zM52 52h-2.5a2.5 2.5 0 0 0-2.5 2.5V57h2.5a2.5 2.5 0 0 0 2.5-2.5M62 57h5v-5a5 5 0 0 0-5 5M72 52h-5v5a5 5 0 0 0 5-5M77 57h5v-5a5 5 0 0 0-5 5M82 52h5v5h-5zM87 52h5v5h-5zM102 57h5v-5a5 5 0 0 0-5 5M107 52h5v5h-5zM112 52h5v5h-5zM122 52h-5v5a5 5 0 0 0 5-5M132 52h5v5h-5zM147 52h-5v5a5 5 0 0 0 5-5M157 57h5v-5a5 5 0 0 0-5 5M162 52h5v5h-5zM167 52h5v5h-5zM172 52h5v5h-5zM187 52h-5v5a5 5 0 0 0 5-5M12 57H7v5a5 5 0 0 0 5-5M17 57h5v5h-5zM22 57h5v5h-5zM27 57h5v5h-5zM32 57h5v5h-5zM42 57h-5v5a5 5 0 0 0 5-5M52 62h5v-5a5 5 0 0 0-5 5M57 57h5v5h-5zM67 57h-5v5a5 5 0 0 0 5-5M72 62h5v-5a5 5 0 0 0-5 5M77 57h5v5h-5zM92 57h-5v5a5 5 0 0 0 5-5M102 57h-2.5a2.5 2.5 0 0 0-2.5 2.5V62h2.5a2.5 2.5 0 0 0 2.5-2.5M107 57h5v5h-5zM117 57h-5v5a5 5 0 0 0 5-5M122 62h5v-5a5 5 0 0 0-5 5M127 57h5v5h-5zM132 57h5v5h-5zM147 62h5v-5a5 5 0 0 0-5 5M157 57h-5v5a5 5 0 0 0 5-5M172 57h5v5h-5zM177 57h5v5h-5zM17 62h5v5h-5zM32 62h5v5h-5zM47 67h5v-5a5 5 0 0 0-5 5M52 62h5v5h-5zM72 62h-2.5a2.5 2.5 0 0 0-2.5 2.5V67h2.5a2.5 2.5 0 0 0 2.5-2.5M77 62h5v5h-5zM92 67h5v-5a5 5 0 0 0-5 5M102 67h5v-5a5 5 0 0 0-5 5M122 62h5v5h-5zM127 62h5v5h-5zM132 62h5v5h-5zM137 62h5v5h-5zM152 62h-5v5a5 5 0 0 0 5-5M167 67h5v-5a5 5 0 0 0-5 5M172 62h5v5h-5zM177 62h5v5h-5zM182 62h5v5h-5zM192 62h-5v5a5 5 0 0 0 5-5M12 72h5v-5a5 5 0 0 0-5 5M17 67h5v5h-5zM22 67h5v5h-5zM27 67h5v5h-5zM32 67h5v5h-5zM37 67h5v5h-5zM42 67h5v5h-5zM57 67h-5v5a5 5 0 0 0 5-5M82 67h-5v5a5 5 0 0 0 5-5M92 67h5v5h-5zM97 67h5v5h-5zM102 67h5v5h-5zM112 67h-5v5a5 5 0 0 0 5-5M117 72h5v-5a5 5 0 0 0-5 5M127 67h-5v5a5 5 0 0 0 5-5M132 67h5v5h-5zM137 67h5v5h-5zM147 67h-5v5a5 5 0 0 0 5-5M152 72h5v-5a5 5 0 0 0-5 5M157 67h5v5h-5zM167 67h5v5h-5zM182 67h5v5h-5zM12 72H9.5A2.5 2.5 0 0 0 7 74.5V77h2.5a2.5 2.5 0 0 0 2.5-2.5M17 72h5v5h-5zM37 72h-5v5a5 5 0 0 0 5-5M47 72h-5v5a5 5 0 0 0 5-5M62 72h-2.5a2.5 2.5 0 0 0-2.5 2.5V77h2.5a2.5 2.5 0 0 0 2.5-2.5M127 77h5v-5a5 5 0 0 0-5 5M142 72h-5v5a5 5 0 0 0 5-5M147 77h5v-5a5 5 0 0 0-5 5M157 72h5v5h-5zM162 72h5v5h-5zM172 72h-5v5a5 5 0 0 0 5-5M177 77h5v-5a5 5 0 0 0-5 5M182 72h5v5h-5zM192 72h-5v5a5 5 0 0 0 5-5M12 82h5v-5a5 5 0 0 0-5 5M17 77h5v5h-5zM22 77h5v5h-5zM32 77h-5v5a5 5 0 0 0 5-5M42 77h-2.5a2.5 2.5 0 0 0-2.5 2.5V82h2.5a2.5 2.5 0 0 0 2.5-2.5M57 77h-2.5a2.5 2.5 0 0 0-2.5 2.5V82h2.5a2.5 2.5 0 0 0 2.5-2.5M62 82h5v-5a5 5 0 0 0-5 5M127 77h5v5h-5zM152 77h-5v5a5 5 0 0 0 5-5M167 77h-5v5a5 5 0 0 0 5-5M177 77h5v5h-5zM187 77h-5v5a5 5 0 0 0 5-5M12 82H9.5A2.5 2.5 0 0 0 7 84.5V87h2.5a2.5 2.5 0 0 0 2.5-2.5M17 82h5v5h-5zM42 87h5v-5a5 5 0 0 0-5 5M52 82h-5v5a5 5 0 0 0 5-5M57 87h5v-5a5 5 0 0 0-5 5M62 82h5v5h-5zM72 82h-5v5a5 5 0 0 0 5-5M127 82h5v5h-5zM142 82h-2.5a2.5 2.5 0 0 0-2.5 2.5V87h2.5a2.5 2.5 0 0 0 2.5-2.5M152 87h5v-5a5 5 0 0 0-5 5M162 82h-5v5a5 5 0 0 0 5-5M172 82h-2.5a2.5 2.5 0 0 0-2.5 2.5V87h2.5a2.5 2.5 0 0 0 2.5-2.5M187 87h5v-5a5 5 0 0 0-5 5M22 87h-5v5a5 5 0 0 0 5-5M27 92h5v-5a5 5 0 0 0-5 5M32 87h5v5h-5zM42 87h-5v5a5 5 0 0 0 5-5M127 87h5v5h-5zM132 87h5v5h-5zM142 92h5v-5a5 5 0 0 0-5 5M172 92h5v-5a5 5 0 0 0-5 5M177 87h5v5h-5zM182 87h5v5h-5zM187 87h5v5h-5zM7 97h5v-5a5 5 0 0 0-5 5M12 92h5v5h-5zM37 92h-5v5a5 5 0 0 0 5-5M47 97h5v-5a5 5 0 0 0-5 5M137 92h-5v5a5 5 0 0 0 5-5M142 92h5v5h-5zM147 92h5v5h-5zM152 92h5v5h-5zM157 92h5v5h-5zM182 92h-5v5a5 5 0 0 0 5-5M187 92h5v5h-5zM17 97h-5v5a5 5 0 0 0 5-5M27 102h5v-5a5 5 0 0 0-5 5M42 97h-2.5a2.5 2.5 0 0 0-2.5 2.5v2.5h2.5a2.5 2.5 0 0 0 2.5-2.5M47 97h5v5h-5zM57 97h-5v5a5 5 0 0 0 5-5M137 102h5v-5a5 5 0 0 0-5 5M147 97h-5v5a5 5 0 0 0 5-5M152 97h5v5h-5zM157 97h5v5h-5zM162 97h5v5h-5zM167 97h5v5h-5zM182 102h5v-5a5 5 0 0 0-5 5M192 97h-5v5a5 5 0 0 0 5-5M27 102h5v5h-5zM32 102h5v5h-5zM42 107h5v-5a5 5 0 0 0-5 5M72 102h-2.5a2.5 2.5 0 0 0-2.5 2.5v2.5h2.5a2.5 2.5 0 0 0 2.5-2.5M137 102h5v5h-5zM162 102h-5v5a5 5 0 0 0 5-5M167 102h5v5h-5zM172 102h5v5h-5zM187 102h-5v5a5 5 0 0 0 5-5M12 107H9.5a2.5 2.5 0 0 0-2.5 2.5v2.5h2.5a2.5 2.5 0 0 0 2.5-2.5M27 107h5v5h-5zM32 107h5v5h-5zM37 107h5v5h-5zM42 107h5v5h-5zM47 107h5v5h-5zM52 107h5v5h-5zM57 107h5v5h-5zM142 107h-5v5a5 5 0 0 0 5-5M147 112h5v-5a5 5 0 0 0-5 5M157 107h-5v5a5 5 0 0 0 5-5M167 107h5v5h-5zM172 107h5v5h-5zM12 117h5v-5a5 5 0 0 0-5 5M22 112h-5v5a5 5 0 0 0 5-5M42 112h5v5h-5zM62 112h-5v5a5 5 0 0 0 5-5M167 112h-2.5a2.5 2.5 0 0 0-2.5 2.5v2.5h2.5a2.5 2.5 0 0 0 2.5-2.5M172 112h5v5h-5zM22 122h5v-5a5 5 0 0 0-5 5M32 122h5v-5a5 5 0 0 0-5 5M37 117h5v5h-5zM42 117h5v5h-5zM57 117h-2.5a2.5 2.5 0 0 0-2.5 2.5v2.5h2.5a2.5 2.5 0 0 0 2.5-2.5M62 122h5v-5a5 5 0 0 0-5 5M72 117h-5v5a5 5 0 0 0 5-5M137 122h5v-5a5 5 0 0 0-5 5M152 122h5v-5a5 5 0 0 0-5 5M167 122h5v-5a5 5 0 0 0-5 5M172 117h5v5h-5zM27 122h-5v5a5 5 0 0 0 5-5M32 122h5v5h-5zM47 122h-5v5a5 5 0 0 0 5-5M57 127h5v-5a5 5 0 0 0-5 5M132 127h5v-5a5 5 0 0 0-5 5M137 122h5v5h-5zM142 122h5v5h-5zM147 122h5v5h-5zM157 122h-5v5a5 5 0 0 0 5-5M172 122h5v5h-5zM177 122h5v5h-5zM12 127H9.5a2.5 2.5 0 0 0-2.5 2.5v2.5h2.5a2.5 2.5 0 0 0 2.5-2.5M32 127h5v5h-5zM42 127h-5v5a5 5 0 0 0 5-5M57 127h5v5h-5zM62 127h5v5h-5zM77 132h5v-5a5 5 0 0 0-5 5M82 127h5v5h-5zM87 127h5v5h-5zM92 127h5v5h-5zM97 127h5v5h-5zM102 127h5v5h-5zM107 127h5v5h-5zM117 132h5v-5a5 5 0 0 0-5 5M122 127h5v5h-5zM132 127h-5v5a5 5 0 0 0 5-5M162 127h-2.5a2.5 2.5 0 0 0-2.5 2.5v2.5h2.5a2.5 2.5 0 0 0 2.5-2.5M172 127h5v5h-5zM182 127h-5v5a5 5 0 0 0 5-5M187 132h5v-5a5 5 0 0 0-5 5M17 137h5v-5a5 5 0 0 0-5 5M22 132h5v5h-5zM37 132h-5v5a5 5 0 0 0 5-5M52 137h5v-5a5 5 0 0 0-5 5M62 132h5v5h-5zM67 132h5v5h-5zM82 132h5v5h-5zM87 132h5v5h-5zM97 132h5v5h-5zM107 132h5v5h-5zM112 132h5v5h-5zM147 137h5v-5a5 5 0 0 0-5 5M167 137h5v-5a5 5 0 0 0-5 5M182 137h5v-5a5 5 0 0 0-5 5M192 132h-5v5a5 5 0 0 0 5-5M17 137h-2.5a2.5 2.5 0 0 0-2.5 2.5v2.5h2.5a2.5 2.5 0 0 0 2.5-2.5M22 137h5v5h-5zM32 137h-5v5a5 5 0 0 0 5-5M37 142h5v-5a5 5 0 0 0-5 5M47 137h-5v5a5 5 0 0 0 5-5M52 137h5v5h-5zM62 137h5v5h-5zM67 137h5v5h-5zM77 142h5v-5a5 5 0 0 0-5 5M82 137h5v5h-5zM87 137h5v5h-5zM92 137h5v5h-5zM97 137h5v5h-5zM107 137h5v5h-5zM112 137h5v5h-5zM122 137h-5v5a5 5 0 0 0 5-5M132 137h-2.5a2.5 2.5 0 0 0-2.5 2.5v2.5h2.5a2.5 2.5 0 0 0 2.5-2.5M142 142h5v-5a5 5 0 0 0-5 5M147 137h5v5h-5zM162 142h5v-5a5 5 0 0 0-5 5M167 137h5v5h-5zM182 137h5v5h-5zM12 142H9.5a2.5 2.5 0 0 0-2.5 2.5v2.5h2.5a2.5 2.5 0 0 0 2.5-2.5M32 147h5v-5a5 5 0 0 0-5 5M52 142h5v5h-5zM62 142h5v5h-5zM72 142h-5v5a5 5 0 0 0 5-5M92 142h-5v5a5 5 0 0 0 5-5M97 142h5v5h-5zM102 142h5v5h-5zM107 142h5v5h-5zM112 142h5v5h-5zM142 142h-2.5a2.5 2.5 0 0 0-2.5 2.5v2.5h2.5a2.5 2.5 0 0 0 2.5-2.5M147 142h5v5h-5zM152 142h5v5h-5zM162 142h5v5h-5zM167 142h5v5h-5zM187 142h-5v5a5 5 0 0 0 5-5M17 152h5v-5a5 5 0 0 0-5 5M27 147h-5v5a5 5 0 0 0 5-5M32 147h5v5h-5zM37 147h5v5h-5zM42 147h5v5h-5zM47 147h5v5h-5zM52 147h5v5h-5zM67 147h-5v5a5 5 0 0 0 5-5M72 152h5v-5a5 5 0 0 0-5 5M77 147h5v5h-5zM82 147h5v5h-5zM97 147h5v5h-5zM112 147h5v5h-5zM137 147h-2.5a2.5 2.5 0 0 0-2.5 2.5v2.5h2.5a2.5 2.5 0 0 0 2.5-2.5M142 152h5v-5a5 5 0 0 0-5 5M147 147h5v5h-5zM152 147h5v5h-5zM157 147h5v5h-5zM162 147h5v5h-5zM167 147h5v5h-5zM187 152h5v-5a5 5 0 0 0-5 5M47 152h5v5h-5zM52 152h5v5h-5zM72 152h-2.5a2.5 2.5 0 0 0-2.5 2.5v2.5h2.5a2.5 2.5 0 0 0 2.5-2.5M77 152h5v5h-5zM82 152h5v5h-5zM97 152h5v5h-5zM117 152h-5v5a5 5 0 0 0 5-5M122 157h5v-5a5 5 0 0 0-5 5M127 152h5v5h-5zM147 152h5v5h-5zM167 152h5v5h-5zM172 152h5v5h-5zM182 152h-5v5a5 5 0 0 0 5-5M187 152h5v5h-5zM57 157h-5v5a5 5 0 0 0 5-5M67 157h-2.5a2.5 2.5 0 0 0-2.5 2.5v2.5h2.5a2.5 2.5 0 0 0 2.5-2.5M82 157h5v5h-5zM92 157h-5v5a5 5 0 0 0 5-5M97 157h5v5h-5zM107 157h-5v5a5 5 0 0 0 5-5M122 157h-2.5a2.5 2.5 0 0 0-2.5 2.5v2.5h2.5a2.5 2.5 0 0 0 2.5-2.5M127 157h5v5h-5zM132 157h5v5h-5zM137 157h5v5h-5zM142 157h5v5h-5zM147 157h5v5h-5zM162 157h-2.5a2.5 2.5 0 0 0-2.5 2.5v2.5h2.5a2.5 2.5 0 0 0 2.5-2.5M167 157h5v5h-5zM172 157h5v5h-5zM182 162h5v-5a5 5 0 0 0-5 5M187 157h5v5h-5zM52 162h-2.5a2.5 2.5 0 0 0-2.5 2.5v2.5h2.5a2.5 2.5 0 0 0 2.5-2.5M62 162h-2.5a2.5 2.5 0 0 0-2.5 2.5v2.5h2.5a2.5 2.5 0 0 0 2.5-2.5M87 162h-5v5a5 5 0 0 0 5-5M92 167h5v-5a5 5 0 0 0-5 5M97 162h5v5h-5zM107 167h5v-5a5 5 0 0 0-5 5M117 162h-5v5a5 5 0 0 0 5-5M122 167h5v-5a5 5 0 0 0-5 5M142 162h5v5h-5zM147 162h5v5h-5zM167 162h5v5h-5zM172 162h5v5h-5zM192 162h-5v5a5 5 0 0 0 5-5M62 172h5v-5a5 5 0 0 0-5 5M67 167h5v5h-5zM82 167h-2.5a2.5 2.5 0 0 0-2.5 2.5v2.5h2.5a2.5 2.5 0 0 0 2.5-2.5M92 167h5v5h-5zM102 167h-5v5a5 5 0 0 0 5-5M112 167h-5v5a5 5 0 0 0 5-5M127 167h-5v5a5 5 0 0 0 5-5M142 167h-2.5a2.5 2.5 0 0 0-2.5 2.5v2.5h2.5a2.5 2.5 0 0 0 2.5-2.5M147 167h5v5h-5zM152 167h5v5h-5zM157 167h5v5h-5zM162 167h5v5h-5zM167 167h5v5h-5zM177 167h-5v5a5 5 0 0 0 5-5M182 172h5v-5a5 5 0 0 0-5 5M47 177h5v-5a5 5 0 0 0-5 5M57 172h-5v5a5 5 0 0 0 5-5M62 172h5v5h-5zM67 172h5v5h-5zM77 172h-5v5a5 5 0 0 0 5-5M82 177h5v-5a5 5 0 0 0-5 5M97 172h-5v5a5 5 0 0 0 5-5M117 172h-2.5a2.5 2.5 0 0 0-2.5 2.5v2.5h2.5a2.5 2.5 0 0 0 2.5-2.5M147 172h-2.5a2.5 2.5 0 0 0-2.5 2.5v2.5h2.5a2.5 2.5 0 0 0 2.5-2.5M157 172h5v5h-5zM162 172h5v5h-5zM182 172h5v5h-5zM47 177h5v5h-5zM77 182h5v-5a5 5 0 0 0-5 5M82 177h5v5h-5zM87 177h5v5h-5zM102 177h-2.5a2.5 2.5 0 0 0-2.5 2.5v2.5h2.5a2.5 2.5 0 0 0 2.5-2.5M152 177h-2.5a2.5 2.5 0 0 0-2.5 2.5v2.5h2.5a2.5 2.5 0 0 0 2.5-2.5M157 177h5v5h-5zM162 177h5v5h-5zM172 177h-5v5a5 5 0 0 0 5-5M187 177h-5v5a5 5 0 0 0 5-5M52 182h-5v5a5 5 0 0 0 5-5M62 187h5v-5a5 5 0 0 0-5 5M67 182h5v5h-5zM72 182h5v5h-5zM77 182h5v5h-5zM82 182h5v5h-5zM87 182h5v5h-5zM92 182h5v5h-5zM107 182h-2.5a2.5 2.5 0 0 0-2.5 2.5v2.5h2.5a2.5 2.5 0 0 0 2.5-2.5M122 187h5v-5a5 5 0 0 0-5 5M127 182h5v5h-5zM132 182h5v5h-5zM137 182h5v5h-5zM147 182h-5v5a5 5 0 0 0 5-5M172 187h5v-5a5 5 0 0 0-5 5M177 182h5v5h-5zM62 187h5v5h-5zM67 187h5v5h-5zM72 187h5v5h-5zM82 187h-5v5a5 5 0 0 0 5-5M87 187h5v5h-5zM97 187h-5v5a5 5 0 0 0 5-5M107 192h5v-5a5 5 0 0 0-5 5M112 187h5v5h-5zM117 187h5v5h-5zM122 187h5v5h-5zM127 187h5v5h-5zM132 187h5v5h-5zM142 187h-5v5a5 5 0 0 0 5-5M162 187h-2.5a2.5 2.5 0 0 0-2.5 2.5v2.5h2.5a2.5 2.5 0 0 0 2.5-2.5M177 187h5v5h-5zM182 187h5v5h-5zM192 187h-5v5a5 5 0 0 0 5-5"/>
        </clipPath>
        <clipPath id="d">
            <path d="M7 19.5v10A12.5 12.5 0 0 0 19.5 42h10A12.5 12.5 0 0 0 42 29.5v-10A12.5 12.5 0 0 0 29.5 7h-10A12.5 12.5 0 0 0 7 19.5M19.5 12h10a7.5 7.5 0 0 1 7.5 7.5v10a7.5 7.5 0 0 1-7.5 7.5h-10a7.5 7.5 0 0 1-7.5-7.5v-10a7.5 7.5 0 0 1 7.5-7.5" clip-rule="evenodd"/>
        </clipPath>
        <clipPath id="f">
            <path d="M17 22h5v-5a5 5 0 0 0-5 5M22 17h5v5h-5zM27 17h5v5h-5zM17 22h5v5h-5zM22 22h5v5h-5zM27 22h5v5h-5zM17 27h5v5h-5zM22 27h5v5h-5zM32 27h-5v5a5 5 0 0 0 5-5"/>
        </clipPath>
        <clipPath id="g">
            <path d="M179.5 7h-10A12.5 12.5 0 0 0 157 19.5v10A12.5 12.5 0 0 0 169.5 42h10A12.5 12.5 0 0 0 192 29.5v-10A12.5 12.5 0 0 0 179.5 7m7.5 12.5v10a7.5 7.5 0 0 1-7.5 7.5h-10a7.5 7.5 0 0 1-7.5-7.5v-10a7.5 7.5 0 0 1 7.5-7.5h10a7.5 7.5 0 0 1 7.5 7.5" clip-rule="evenodd"/>
        </clipPath>
        <clipPath id="i">
            <path d="M167 22h5v-5a5 5 0 0 0-5 5M172 17h5v5h-5zM177 17h5v5h-5zM167 22h5v5h-5zM172 22h5v5h-5zM177 22h5v5h-5zM167 27h5v5h-5zM172 27h5v5h-5zM182 27h-5v5a5 5 0 0 0 5-5"/>
        </clipPath>
        <clipPath id="j">
            <path d="M19.5 192h10A12.5 12.5 0 0 0 42 179.5v-10A12.5 12.5 0 0 0 29.5 157h-10A12.5 12.5 0 0 0 7 169.5v10A12.5 12.5 0 0 0 19.5 192M12 179.5v-10a7.5 7.5 0 0 1 7.5-7.5h10a7.5 7.5 0 0 1 7.5 7.5v10a7.5 7.5 0 0 1-7.5 7.5h-10a7.5 7.5 0 0 1-7.5-7.5" clip-rule="evenodd"/>
        </clipPath>
        <clipPath id="l">
            <path d="M17 172h5v-5a5 5 0 0 0-5 5M22 167h5v5h-5zM27 167h5v5h-5zM17 172h5v5h-5zM22 172h5v5h-5zM27 172h5v5h-5zM17 177h5v5h-5zM22 177h5v5h-5zM32 177h-5v5a5 5 0 0 0 5-5"/>
        </clipPath>
        <linearGradient id="c" x1="0" x2="200" y1="42" y2="158" gradientUnits="userSpaceOnUse">
            <stop offset="0%" stop-color="#235ea3"/>
            <stop offset="100%" stop-color="#d41d54"/>
        </linearGradient>
        <linearGradient id="e" x1="7" x2="42" y1="25" y2="25" gradientUnits="userSpaceOnUse">
            <stop offset="0%" stop-color="#d41d54"/>
            <stop offset="100%" stop-color="#235ea3"/>
        </linearGradient>
        <linearGradient id="h" x1="175" x2="175" y1="7" y2="42" gradientUnits="userSpaceOnUse">
            <stop offset="0%" stop-color="#d41d54"/>
            <stop offset="100%" stop-color="#235ea3"/>
        </linearGradient>
        <linearGradient id="k" x1="25" x2="25" y1="192" y2="157" gradientUnits="userSpaceOnUse">
            <stop offset="0%" stop-color="#d41d54"/>
            <stop offset="100%" stop-color="#235ea3"/>
        </linearGradient>
    </defs>
    <path fill="#fff" d="M0 0h200v200H0z" clip-path="url('#a')"/>
    <path fill="url('#c')" d="M0 0h200v200H0z" clip-path="url('#b')"/>
    <path fill="url('#e')" d="M7 7h35v35H7z" clip-path="url('#d')"/>
    <path fill="#235ea3" d="M17 17h15v15H17z" clip-path="url('#f')"/>
    <path fill="url('#h')" d="M157 7h35v35h-35z" clip-path="url('#g')"/>
    <path fill="#235ea3" d="M167 17h15v15h-15z" clip-path="url('#i')"/>
    <path fill="url('#k')" d="M7 157h35v35H7z" clip-path="url('#j')"/>
    <path fill="#235ea3" d="M17 167h15v15H17z" clip-path="url('#l')"/>
    <path viewBox="0 -960 960 960" width="51" height="51" x="74" y="74" fill="#0b3c74" d="M479.86-688.5q15.19 0 25.48-10.15 10.29-10.16 10.29-25.35 0-15.09-10.27-25.55Q495.09-760 479.9-760q-15.19 0-25.36 10.44-10.17 10.43-10.17 25.53 0 15.1 10.15 25.31 10.16 10.22 25.34 10.22Zm.32 321.74q13.63 0 22.44-8.94 8.81-8.93 8.81-22.54v-189.52q0-13.36-8.98-22.4-8.99-9.04-22.63-9.04-13.63 0-22.44 9.04t-8.81 22.4v189.52q0 13.61 8.98 22.54 8.99 8.94 22.63 8.94ZM234.02-234.02 132.2-132.2q-16.16 16.16-37.17 7.45-21.01-8.7-21.01-31.08v-662.02q0-27.7 20.27-48.03 20.26-20.34 47.86-20.34h675.7q27.7 0 48.03 20.34 20.34 20.33 20.34 48.03v515.7q0 27.6-20.34 47.86-20.33 20.27-48.03 20.27H234.02Zm-26-68.13h609.83v-515.7h-675.7v587.57l65.87-71.87Zm-65.87 0v-515.7 515.7Z"/>
    <svg xmlns="http://www.w3.org/2000/svg" width="51" height="51" x="74" y="74" viewBox="0 -960 960 960" fill="#0b3c74"><path d="M479.86-688.5q15.19 0 25.48-10.15 10.29-10.16 10.29-25.35 0-15.09-10.27-25.55Q495.09-760 479.9-760q-15.19 0-25.36 10.44-10.17 10.43-10.17 25.53 0 15.1 10.15 25.31 10.16 10.22 25.34 10.22Zm.32 321.74q13.63 0 22.44-8.94 8.81-8.93 8.81-22.54v-189.52q0-13.36-8.98-22.4-8.99-9.04-22.63-9.04-13.63 0-22.44 9.04t-8.81 22.4v189.52q0 13.61 8.98 22.54 8.99 8.94 22.63 8.94ZM234.02-234.02 132.2-132.2q-16.16 16.16-37.17 7.45-21.01-8.7-21.01-31.08v-662.02q0-27.7 20.27-48.03 20.26-20.34 47.86-20.34h675.7q27.7 0 48.03 20.34 20.34 20.33 20.34 48.03v515.7q0 27.6-20.34 47.86-20.33 20.27-48.03 20.27H234.02Zm-26-68.13h609.83v-515.7h-675.7v587.57l65.87-71.87Zm-65.87 0v-515.7 515.7Z"/></svg>
</svg>
