<svg xmlns="http://www.w3.org/2000/svg" height="24" viewBox="0 -960 960 960" width="24"><path d="M526.479-499.522v-128.673q0-19.104-13.438-32.541-13.438-13.438-32.541-13.438-19.103 0-32.541 13.438-13.438 13.437-13.438 32.541v145.999q0 10.137 3.598 19.009t10.794 15.97l121.571 122.494q13.711 13.788 32.037 13.788 18.327 0 32.718-13.826 14.391-13.826 14.391-32.718 0-18.891-14.349-33.241L526.479-499.522ZM480-70.782q-85.428 0-159.972-32.223-74.543-32.224-129.684-87.464-55.142-55.24-87.352-129.712Q70.782-394.653 70.782-480q0-85.429 32.223-159.972 32.224-74.543 87.464-129.684 55.24-55.142 129.712-87.352 74.472-32.21 159.819-32.21 85.429 0 159.972 32.223 74.543 32.224 129.684 87.464 55.142 55.24 87.352 129.712 32.21 74.472 32.21 159.819 0 85.428-32.223 159.972-32.224 74.543-87.464 129.684-55.24 55.142-129.712 87.352Q565.347-70.782 480-70.782Z"/></svg>