<svg xmlns="http://www.w3.org/2000/svg" height="24" viewBox="0 -960 960 960" width="24"><path d="M132.196-191.195q-42.305 0-71.653-29.348-29.348-29.348-29.348-71.653v-375.608q0-42.305 29.348-71.653 29.348-29.348 71.653-29.348h375.608q42.305 0 71.653 29.348 29.348 29.348 29.348 71.653v375.608q0 42.305-29.348 71.653-29.348 29.348-71.653 29.348H132.196Zm587.804-320q-20.022 0-34.413-14.392-14.392-14.391-14.392-34.413v-160q0-20.022 14.392-34.413 14.391-14.392 34.413-14.392h160q20.022 0 34.413 14.392 14.392 14.391 14.392 34.413v160q0 20.022-14.392 34.413-14.391 14.392-34.413 14.392H720ZM197.413-362.5h245.174q10.37 0 14.739-8.837 4.37-8.837-2-17.206l-67.022-89.718Q383.37-484.63 375-484.63q-8.37 0-13.304 6.369L300-396l-42.261-55.261q-4.935-6.369-13.022-6.369t-13.021 6.369l-47.022 62.718q-6.37 8.369-2 17.206 4.369 8.837 14.739 8.837ZM720-191.195q-20.022 0-34.413-14.392-14.392-14.391-14.392-34.413v-160q0-20.022 14.392-34.413 14.391-14.392 34.413-14.392h160q20.022 0 34.413 14.392 14.392 14.391 14.392 34.413v160q0 20.022-14.392 34.413-14.391 14.392-34.413 14.392H720Z"/></svg>