<svg xmlns="http://www.w3.org/2000/svg" height="24" viewBox="0 -960 960 960" width="24"><path d="M567.229-463.523q47.25 0 79.75-32.958t32.5-80.042q0-46.666-32.736-79.333-32.735-32.667-79.5-32.667-46.764 0-79.764 32.5-33 32.5-33 79.75t32.75 80q32.75 32.75 80 32.75ZM310.001-326q-41.663 0-71.332-29.669Q209-385.338 209-427.001v-297.478q0-41.663 29.669-71.332 29.669-29.669 71.332-29.669h515.52q41.663 0 71.333 29.669 29.669 29.669 29.669 71.332v297.478q0 41.663-29.669 71.332Q867.184-326 825.521-326h-515.52ZM134.479-151.477q-41.663 0-71.333-29.669-29.669-29.67-29.669-71.333v-370.02q0-20.588 14.957-35.544Q63.391-673 83.978-673q20.587 0 35.544 14.957 14.957 14.956 14.957 35.544v370.02h606.02q20.588 0 35.544 14.957Q791-222.565 791-201.978q0 20.587-14.957 35.544-14.956 14.957-35.544 14.957h-606.02Zm167.044-504.046q32 0 54.5-22.75t22.5-55.25h-77v78Zm532.477 0v-78h-77q0 32.5 22.619 55.25 22.618 22.75 54.381 22.75Zm-532.477 237h77q0-32.5-22.619-55.25t-54.381-22.75v78Zm455.477 0h77v-78q-32 0-54.5 22.75t-22.5 55.25Z"/></svg>