<?xml version="1.0" encoding="UTF-8" standalone="no"?>
<!-- Created with Inkscape (http://www.inkscape.org/) -->

<svg
   width="300mm"
   height="300mm"
   viewBox="0 0 300 300"
   version="1.1"
   id="svg5"
   xml:space="preserve"
   inkscape:version="1.2.2 (b0a8486541, 2022-12-01)"
   sodipodi:docname="freibadicon.svg"
   xmlns:inkscape="http://www.inkscape.org/namespaces/inkscape"
   xmlns:sodipodi="http://sodipodi.sourceforge.net/DTD/sodipodi-0.dtd"
   xmlns="http://www.w3.org/2000/svg"
   xmlns:svg="http://www.w3.org/2000/svg"><sodipodi:namedview
     id="namedview7"
     pagecolor="#ffffff"
     bordercolor="#000000"
     borderopacity="0.25"
     inkscape:showpageshadow="2"
     inkscape:pageopacity="0.0"
     inkscape:pagecheckerboard="0"
     inkscape:deskcolor="#d1d1d1"
     inkscape:document-units="mm"
     showgrid="false"
     inkscape:zoom="0.61703965"
     inkscape:cx="303.87026"
     inkscape:cy="630.4295"
     inkscape:window-width="1920"
     inkscape:window-height="1043"
     inkscape:window-x="0"
     inkscape:window-y="0"
     inkscape:window-maximized="1"
     inkscape:current-layer="layer1" /><defs
     id="defs2" /><g
     inkscape:groupmode="layer"
     id="layer1"
     inkscape:label="background"><rect
       style="fill:#2e577e;fill-opacity:1;stroke-width:0.699767"
       id="rect176"
       width="300"
       height="300"
       x="0"
       y="-1.7763568e-15"
       ry="100.45164" /></g><g
     inkscape:groupmode="layer"
     id="layer3"
     inkscape:label="logo"
     style="display:inline;fill:#000000"><ellipse
       style="display:inline;fill:#ffffff;stroke-width:0.2261"
       id="path347"
       cx="76.802856"
       cy="126.95364"
       rx="30"
       ry="28.582788" /><path
       style="fill:#ffffff;stroke-width:0.264583"
       d="m 2.2042343,182.43002 0.047416,5.00003 c 1.7296559,-9.5e-4 11.7255877,15.37749 20.2168747,15.50281 8.835147,0.13039 19.681908,-15.53434 21.502428,-15.50281 l -0.146774,-5.00003 C 41.955276,182.40622 30.766813,194.82983 22.580441,194.755 14.64286,194.6824 4.0386063,182.44007 2.2042343,182.43002 Z"
       id="path771"
       sodipodi:nodetypes="ccaccac" /><path
       style="fill:#ffffff;stroke-width:0.264583"
       d="m 43.812955,182.43002 0.04742,5.00003 c 1.729656,-9.5e-4 11.725588,15.37749 20.216875,15.50281 8.835147,0.13039 19.681908,-15.53434 21.502428,-15.50281 l -0.146774,-5.00003 C 83.564001,182.40622 72.375538,194.82983 64.189166,194.755 56.251585,194.6824 45.647331,182.44007 43.812959,182.43002 Z"
       id="path771-3"
       sodipodi:nodetypes="ccaccac" /><path
       style="fill:#ffffff;stroke-width:0.264583"
       d="m 85.15056,182.43002 0.04742,5.00003 c 1.729656,-9.5e-4 11.725585,15.37749 20.21687,15.50281 8.83515,0.13039 19.68191,-15.53434 21.50243,-15.50281 L 126.77,182.43002 c -1.8689,-0.0238 -13.057,12.39981 -21.24323,12.32498 C 97.589313,194.6824 86.985373,182.44007 85.151,182.43002 Z"
       id="path771-6"
       sodipodi:nodetypes="ccaccacc" /><path
       style="fill:#ffffff;stroke-width:0.264583"
       d="m 126.62358,182.45204 0.0474,5.00003 c 1.72966,-9.5e-4 11.72559,15.37749 20.21687,15.50281 8.83515,0.13039 19.68191,-15.53434 21.50243,-15.50281 l -0.14628,-5.00003 c -1.8689,-0.0238 -13.05775,12.40314 -21.24423,12.32498 -7.94123,-0.0758 -18.54139,-12.33698 -20.37577,-12.34703 z"
       id="path771-7"
       sodipodi:nodetypes="ccaccacc" /><path
       style="fill:#ffffff;stroke-width:0.264583"
       d="m 168.09455,182.43002 0.0474,5.00003 c 1.72966,-9.5e-4 11.72559,15.37749 20.21687,15.50281 8.83515,0.13039 19.68191,-15.53434 21.50243,-15.50281 l -0.14725,-5.00003 c -1.8689,-0.0238 -13.05702,12.39982 -21.24326,12.32498 -7.93745,-0.0726 -18.54136,-12.31496 -20.37574,-12.32501 z"
       id="path771-5"
       sodipodi:nodetypes="ccaccacc" /><path
       style="fill:#ffffff;stroke-width:0.264583"
       d="m 209.55324,182.46338 0.0474,5.00003 c 1.72966,-9.5e-4 11.72559,15.37749 20.21687,15.50281 8.83515,0.13039 19.68191,-15.53434 21.50243,-15.50281 l -0.14694,-5.00003 c -1.8689,-0.0238 -13.05724,12.39978 -21.24357,12.32498 -7.93765,-0.0725 -18.54205,-12.31493 -20.37643,-12.32498 z"
       id="path771-35"
       sodipodi:nodetypes="ccaccacc" /><path
       style="fill:#ffffff;stroke-width:0.264583"
       d="m 251.173,182.43002 0.055,5.00003 c 1.72966,-9.5e-4 11.72,15.37675 20.20927,15.50281 8.83513,0.13119 19.6819,-15.53434 21.50242,-15.50281 l -0.14677,-5.00003 c -1.8689,-0.0238 -13.05741,12.40472 -21.24374,12.32498 -7.92185,-0.0772 -18.4868,-12.31493 -20.32118,-12.32498 z"
       id="path771-62"
       sodipodi:nodetypes="ccaccacc" /><path
       style="fill:#ffffff;stroke-width:0.264583"
       d="m 85.098315,172.42993 77.812295,-68.30721 94.17139,28.81523 -23.33365,11.11007 -65.65335,-13.83254 -10.6828,16.15058 93.7608,26.06387 z"
       id="path870"
       sodipodi:nodetypes="cccccccc" /><path
       style="fill:#ffffff;stroke-width:0.267038"
       d="m 85.151,172.32993 h 41.47725 c -6.00954,-0.0144 -12.30952,13.47801 -20.49366,13.52224 -8.320935,0.045 -14.985723,-13.53834 -20.98359,-13.52224 z"
       id="path958"
       sodipodi:nodetypes="ccac" /><path
       style="display:inline;fill:#ffffff;stroke-width:0.267038"
       d="m 126.624,172.32993 h 41.62 c -6.00954,-0.0144 -13.01057,13.72529 -21.48551,13.59925 -8.09804,-0.12044 -14.13662,-13.61535 -20.13449,-13.59925 z"
       id="path958-1"
       sodipodi:nodetypes="ccac" /><path
       style="display:inline;fill:#ffffff;stroke-width:0.267038"
       d="m 168.095,172.32993 h 41.619 c -6.00954,-0.0144 -13.69763,13.91335 -22.43771,13.59925 -7.8326,-0.28149 -13.18343,-13.61535 -19.18129,-13.59925 z"
       id="path958-2"
       sodipodi:nodetypes="ccac" /><path
       style="display:inline;fill:#ffffff;stroke-width:0.267038"
       d="m 209.553,172.32993 h 41.62 c -6.00954,-0.0144 -14.7429,14.22387 -23.88258,13.59925 -7.43289,-0.50797 -11.73955,-13.61535 -17.73742,-13.59925 z"
       id="path958-7"
       sodipodi:nodetypes="ccac" /></g></svg>
