<?xml version="1.0" encoding="UTF-8" standalone="no"?>
<!-- Created with Inkscape (http://www.inkscape.org/) -->

<svg
   width="212mm"
   height="160mm"
   viewBox="0 0 212 160"
   version="1.1"
   id="svg1"
   inkscape:export-filename="./ud.svg"
   inkscape:export-xdpi="95.794289"
   inkscape:export-ydpi="95.794289"
   xmlns:inkscape="http://www.inkscape.org/namespaces/inkscape"
   xmlns:sodipodi="http://sodipodi.sourceforge.net/DTD/sodipodi-0.dtd"
   xmlns="http://www.w3.org/2000/svg"
   xmlns:svg="http://www.w3.org/2000/svg">
  <sodipodi:namedview
     id="namedview1"
     pagecolor="#ffffff"
     bordercolor="#000000"
     borderopacity="0.25"
     inkscape:showpageshadow="2"
     inkscape:pageopacity="0.0"
     inkscape:pagecheckerboard="false"
     inkscape:deskcolor="#d1d1d1"
     inkscape:document-units="mm" />
  <defs
     id="defs1" />
  <g
     inkscape:label="Ebene 1"
     inkscape:groupmode="layer"
     id="layer1">
    <path
       style="font-weight:900;font-size:54.2686px;font-family:Montserrat;-inkscape-font-specification:'Montserrat, Heavy';fill:#0e385e;fill-opacity:1;stroke-width:4.52237"
       d="m 49.573683,148.12463 q -4.177179,0.74259 -7.33545,-1.30461 -3.116506,-2.05462 -4.873065,-6.25461 -1.757246,-4.27037 -1.812831,-9.97131 -0.05696,-5.84172 1.569994,-10.64321 1.668723,-4.80891 4.568042,-7.86248 2.941101,-3.061 6.617013,-3.71448 3.383518,-0.6015 6.245955,1.14577 2.904218,1.73984 4.660091,5.86944 1.797647,4.12219 1.861466,10.66773 0.0082,0.84458 -0.02327,1.90774 -0.03219,0.99278 -0.0657,1.84478 l -17.58593,3.12631 -0.0748,-7.67165 12.57331,-2.2352 -3.530701,2.67229 q -0.02196,-2.25222 -0.538315,-3.71152 -0.475277,-1.5371 -1.318946,-2.23317 -0.844355,-0.76644 -2.013965,-0.55852 -1.169609,0.20793 -2.037895,1.27884 -0.8272,0.99309 -1.270911,2.69357 -0.444389,1.63009 -0.42243,3.88231 l 0.02333,2.393 q 0.02402,2.46337 0.625978,4.11895 0.601961,1.6556 1.696945,2.37749 1.094299,0.65151 2.639856,0.37675 1.587331,-0.28218 2.582994,-1.16422 1.037429,-0.88947 2.151541,-2.49761 l 5.010736,7.4992 q -1.641368,3.32347 -4.090115,5.38039 -2.407668,1.97911 -5.832958,2.58803 z"
       id="path23" />
  </g>
</svg>
