<?xml version="1.0" encoding="UTF-8" standalone="no"?>
<!-- Created with Inkscape (http://www.inkscape.org/) -->

<svg
   width="212mm"
   height="160mm"
   viewBox="0 0 212 160"
   version="1.1"
   id="svg1"
   inkscape:export-filename="./us.svg"
   inkscape:export-xdpi="95.794289"
   inkscape:export-ydpi="95.794289"
   xmlns:inkscape="http://www.inkscape.org/namespaces/inkscape"
   xmlns:sodipodi="http://sodipodi.sourceforge.net/DTD/sodipodi-0.dtd"
   xmlns="http://www.w3.org/2000/svg"
   xmlns:svg="http://www.w3.org/2000/svg">
  <sodipodi:namedview
     id="namedview1"
     pagecolor="#ffffff"
     bordercolor="#000000"
     borderopacity="0.25"
     inkscape:showpageshadow="2"
     inkscape:pageopacity="0.0"
     inkscape:pagecheckerboard="false"
     inkscape:deskcolor="#d1d1d1"
     inkscape:document-units="mm" />
  <defs
     id="defs1" />
  <g
     inkscape:label="Ebene 1"
     inkscape:groupmode="layer"
     id="layer1">
    <path
       style="font-weight:900;font-size:54.2686px;font-family:Montserrat;-inkscape-font-specification:'Montserrat, Heavy';fill:#0e385e;fill-opacity:1;stroke-width:4.52237"
       d="m 171.00434,126.53749 q -4.17718,0.74259 -7.33546,-1.30461 -3.1165,-2.05462 -4.87306,-6.25461 -1.75725,-4.27037 -1.81283,-9.97131 -0.057,-5.84172 1.56999,-10.643213 1.66873,-4.80891 4.56805,-7.86248 2.9411,-3.061 6.61702,-3.71448 3.3835,-0.6015 6.24595,1.14577 2.90421,1.73983 4.66008,5.86944 1.79765,4.12219 1.86147,10.667733 0.008,0.84458 -0.0233,1.90774 -0.0322,0.99278 -0.0657,1.84478 l -17.5859,3.1263 -0.0748,-7.67164 12.57331,-2.2352 -3.5307,2.67228 q -0.022,-2.25222 -0.53833,-3.71152 -0.47527,-1.537103 -1.31894,-2.233163 -0.84436,-0.76645 -2.01397,-0.55852 -1.16961,0.20792 -2.03789,1.27883 -0.8272,0.9931 -1.27091,2.693583 -0.44439,1.63009 -0.42243,3.88231 l 0.0233,2.393 q 0.024,2.46337 0.62598,4.11895 0.60196,1.6556 1.69694,2.37749 1.09431,0.6515 2.63986,0.37674 1.58733,-0.28218 2.58299,-1.16422 1.03743,-0.88947 2.15155,-2.49761 l 5.01073,7.49921 q -1.64136,3.32346 -4.09012,5.38038 -2.40767,1.97911 -5.83295,2.58804 z"
       id="path30" />
  </g>
</svg>
