<?xml version="1.0" encoding="UTF-8" standalone="no"?>
<!-- Created with Inkscape (http://www.inkscape.org/) -->

<svg
   width="212mm"
   height="160mm"
   viewBox="0 0 212 160"
   version="1.1"
   id="svg1"
   inkscape:export-filename="./un.svg"
   inkscape:export-xdpi="95.794289"
   inkscape:export-ydpi="95.794289"
   xmlns:inkscape="http://www.inkscape.org/namespaces/inkscape"
   xmlns:sodipodi="http://sodipodi.sourceforge.net/DTD/sodipodi-0.dtd"
   xmlns="http://www.w3.org/2000/svg"
   xmlns:svg="http://www.w3.org/2000/svg">
  <sodipodi:namedview
     id="namedview1"
     pagecolor="#ffffff"
     bordercolor="#000000"
     borderopacity="0.25"
     inkscape:showpageshadow="2"
     inkscape:pageopacity="0.0"
     inkscape:pagecheckerboard="false"
     inkscape:deskcolor="#d1d1d1"
     inkscape:document-units="mm" />
  <defs
     id="defs1" />
  <g
     inkscape:label="Ebene 1"
     inkscape:groupmode="layer"
     id="layer1">
    <path
       d="m 173.9021,59.238191 q -2.9658,0.527239 -5.53721,-1.41277 -2.53033,-2.017818 -4.07734,-6.184555 -1.54771,-4.237119 -1.60809,-10.430742 -0.0604,-6.193622 1.40016,-10.895026 1.45987,-4.771785 3.94285,-7.610331 2.52474,-2.84597 5.49054,-3.37321 3.00757,-0.534666 4.95034,1.305586 1.94209,1.769871 2.9043,6.04057 0.96153,4.200319 1.02809,11.02738 0.0673,6.897443 -0.76672,11.487458 -0.79221,4.582587 -2.69313,7.035642 -1.85913,2.445627 -5.03379,3.009998 z m 2.1349,-12.788244 q 1.04429,-0.185647 1.87149,-1.17875 0.82721,-0.993105 1.312,-2.771385 0.4841,-1.848662 0.46008,-4.312035 -0.0247,-2.533755 -0.54174,-4.063431 -0.51773,-1.60006 -1.36141,-2.296125 -0.84367,-0.696066 -1.88796,-0.510419 -1.0443,0.185648 -1.8715,1.178751 -0.8272,0.993102 -1.31199,2.771385 -0.48548,1.707897 -0.46077,4.241652 0.024,2.463372 0.54243,4.133814 0.51773,1.600057 1.3614,2.296125 0.84367,0.696066 1.88797,0.510418 z m 4.124,10.970536 -0.0508,-5.208273 -0.17904,-14.068984 -0.55496,-14.002156 -0.18391,-18.8623949 9.44043,-1.6782559 0.50917,52.2234968 z"
       id="path22"
       style="font-weight:900;font-size:54.2686px;font-family:Montserrat;-inkscape-font-specification:'Montserrat, Heavy';fill:#0e385e;fill-opacity:1;stroke-width:4.52237" />
  </g>
</svg>
