<?xml version="1.0" encoding="UTF-8" standalone="no"?>
<!-- Created with Inkscape (http://www.inkscape.org/) -->

<svg
   width="212mm"
   height="160mm"
   viewBox="0 0 212 160"
   version="1.1"
   id="svg1"
   inkscape:export-filename="./r.svg"
   inkscape:export-xdpi="95.794289"
   inkscape:export-ydpi="95.794289"
   xmlns:inkscape="http://www.inkscape.org/namespaces/inkscape"
   xmlns:sodipodi="http://sodipodi.sourceforge.net/DTD/sodipodi-0.dtd"
   xmlns="http://www.w3.org/2000/svg"
   xmlns:svg="http://www.w3.org/2000/svg">
  <sodipodi:namedview
     id="namedview1"
     pagecolor="#ffffff"
     bordercolor="#000000"
     borderopacity="0.25"
     inkscape:showpageshadow="2"
     inkscape:pageopacity="0.0"
     inkscape:pagecheckerboard="false"
     inkscape:deskcolor="#d1d1d1"
     inkscape:document-units="mm" />
  <defs
     id="defs1" />
  <g
     inkscape:label="Ebene 1"
     inkscape:groupmode="layer"
     id="layer1">
    <path
       d="m 79.831985,75.961355 q -4.177179,0.742591 -7.335457,-1.304601 -3.116498,-2.05462 -4.873065,-6.254608 -1.757246,-4.270373 -1.812831,-9.971321 -0.05696,-5.841712 1.569994,-10.6432 1.66873,-4.808917 4.56805,-7.862484 2.941093,-3.060995 6.617013,-3.714476 3.38351,-0.601498 6.245955,1.145765 2.90421,1.739839 4.660083,5.869447 1.797654,4.122181 1.861473,10.667714 0.0082,0.844585 -0.02327,1.907746 -0.03219,0.99278 -0.0657,1.844787 l -17.585923,3.126309 -0.0748,-7.671646 12.57331,-2.235201 -3.530701,2.672284 q -0.02196,-2.252226 -0.538323,-3.711521 -0.475269,-1.537102 -1.318938,-2.23317 -0.844363,-0.766447 -2.013973,-0.558521 -1.169609,0.207925 -2.037895,1.278835 -0.8272,0.993104 -1.270903,2.693575 -0.444397,1.630093 -0.422438,3.882319 l 0.02333,2.39299 q 0.02402,2.463372 0.625978,4.118961 0.601961,1.655589 1.696953,2.377482 1.094298,0.651511 2.639856,0.376752 1.587323,-0.282184 2.582986,-1.164227 1.037437,-0.889469 2.151549,-2.49761 l 5.010728,7.49921 q -1.641361,3.323464 -4.090115,5.380381 -2.407668,1.979109 -5.832951,2.588033 z"
       id="path17"
       inkscape:export-filename="./e.svg"
       inkscape:export-xdpi="96"
       inkscape:export-ydpi="96"
       style="font-weight:900;font-size:54.2686px;font-family:Montserrat;-inkscape-font-specification:'Montserrat, Heavy';fill:#0e385e;fill-opacity:1;stroke-width:4.52237" />
  </g>
</svg>
