<?xml version="1.0" encoding="UTF-8" standalone="no"?>
<!-- Created with Inkscape (http://www.inkscape.org/) -->

<svg
   width="208.62927mm"
   height="172.11023mm"
   viewBox="0 0 208.62927 172.11023"
   version="1.1"
   id="svg1"
   inkscape:export-filename="Rastergrafik.svg"
   inkscape:export-xdpi="96"
   inkscape:export-ydpi="96"
   xmlns:inkscape="http://www.inkscape.org/namespaces/inkscape"
   xmlns:sodipodi="http://sodipodi.sourceforge.net/DTD/sodipodi-0.dtd"
   xmlns="http://www.w3.org/2000/svg"
   xmlns:svg="http://www.w3.org/2000/svg">
  <sodipodi:namedview
     id="namedview1"
     pagecolor="#ffffff"
     bordercolor="#000000"
     borderopacity="0.25"
     inkscape:showpageshadow="2"
     inkscape:pageopacity="0.0"
     inkscape:pagecheckerboard="0"
     inkscape:deskcolor="#d1d1d1"
     inkscape:document-units="mm" />
  <defs
     id="defs1" />
  <g
     inkscape:label="Ebene 1"
     inkscape:groupmode="layer"
     id="layer1"
     transform="translate(-49.27846,-18.311882)">
    <g
       id="text1"
       style="font-weight:900;font-size:54.2686px;font-family:Montserrat;-inkscape-font-specification:'Montserrat, Heavy';fill:#000080;stroke-width:4.52237"
       transform="matrix(0.76972301,-0.13683628,0.01264497,1.2969207,0,0)"
       aria-label=" Freibad&#10;Delligsen">
      <path
         d="m 90.344992,63.729364 h 16.714728 v 9.659811 H 90.344992 Z M 91.21329,85.545341 H 78.4059 v -37.98802 h 30.87883 v 9.659811 H 91.21329 Z m 21.21896,0 V 55.860417 H 124.1 v 8.954319 l -1.8994,-2.550624 q 1.35671,-3.473191 4.34148,-5.209786 2.98478,-1.736595 7.16346,-1.736595 v 10.85372 q -0.81403,-0.108537 -1.46525,-0.162806 -0.59696,-0.05427 -1.24818,-0.05427 -2.7677,0 -4.55856,1.465252 -1.7366,1.410984 -1.7366,4.938443 v 13.187269 z m 40.86427,0.542686 q -5.42686,0 -9.49701,-2.007938 -4.01587,-2.007938 -6.24089,-5.481128 -2.22501,-3.527459 -2.22501,-7.923216 0,-4.504294 2.17074,-7.977484 2.22502,-3.473191 6.02382,-5.42686 3.85307,-1.95367 8.62871,-1.95367 4.39575,0 8.08602,1.736595 3.74453,1.736595 5.96954,5.155517 2.27929,3.418922 2.27929,8.465902 0,0.651223 -0.0543,1.465252 -0.0543,0.759761 -0.10854,1.410984 h -22.84708 v -5.915278 h 16.33485 l -4.61283,1.57379 q 0,-1.736595 -0.65123,-2.930505 -0.59695,-1.248177 -1.68232,-1.899401 -1.08538,-0.705491 -2.6049,-0.705491 -1.51952,0 -2.65916,0.705491 -1.08537,0.651224 -1.68232,1.899401 -0.59696,1.19391 -0.59696,2.930505 v 1.845132 q 0,1.899401 0.75976,3.256116 0.75976,1.356715 2.17075,2.062207 1.41098,0.651223 3.41892,0.651223 2.0622,0 3.36465,-0.542686 1.35672,-0.542686 2.82197,-1.628058 l 6.40369,6.457964 q -2.17074,2.333549 -5.37259,3.581727 -3.14758,1.193909 -7.5976,1.193909 z m 19.04827,-0.542686 V 55.860417 h 12.26471 v 29.684924 z m 6.13235,-32.072742 q -3.36465,0 -5.37259,-1.790864 -2.00793,-1.790864 -2.00793,-4.450025 0,-2.659162 2.00793,-4.450026 2.00794,-1.790863 5.37259,-1.790863 3.36466,0 5.3726,1.682326 2.00793,1.682327 2.00793,4.341488 0,2.821967 -2.00793,4.6671 -2.00794,1.790864 -5.3726,1.790864 z m 31.36727,32.615428 q -4.07014,0 -6.5665,-1.628058 -2.49635,-1.628058 -3.63599,-5.046979 -1.08538,-3.418922 -1.08538,-8.737245 0,-5.264054 1.19391,-8.628708 1.19391,-3.418921 3.69027,-5.046979 2.55062,-1.682327 6.40369,-1.682327 3.90734,0 7.16346,1.845132 3.25612,1.845133 5.20978,5.318323 1.95367,3.418922 1.95367,8.194559 0,4.775637 -1.95367,8.248827 -1.95366,3.418922 -5.20978,5.318323 -3.25612,1.845132 -7.16346,1.845132 z M 190.03637,85.545341 V 45.27804 h 12.26471 v 14.543985 l -0.54269,10.85372 -0.0543,10.85372 v 4.015876 z m 16.87754,-9.008587 q 1.35671,0 2.44209,-0.651223 1.08537,-0.651224 1.73659,-1.95367 0.65122,-1.356715 0.65122,-3.256116 0,-1.95367 -0.65122,-3.201847 -0.65122,-1.302447 -1.73659,-1.95367 -1.08538,-0.651223 -2.44209,-0.651223 -1.35672,0 -2.44209,0.651223 -1.08537,0.651223 -1.73659,1.95367 -0.65123,1.248177 -0.65123,3.201847 0,1.899401 0.65123,3.256116 0.65122,1.302446 1.73659,1.95367 1.08537,0.651223 2.44209,0.651223 z m 38.31367,9.008587 v -5.264054 l -0.86829,-1.410983 v -9.985423 q 0,-2.170744 -1.35672,-3.310384 -1.30245,-1.139641 -4.28722,-1.139641 -2.00794,0 -4.07014,0.651223 -2.06221,0.596955 -3.52746,1.682327 l -3.90734,-8.086022 q 2.60489,-1.628058 6.24089,-2.496355 3.63599,-0.868298 7.10918,-0.868298 7.65188,0 11.83056,3.418922 4.23295,3.418922 4.23295,10.85372 v 15.954968 z m -8.41163,0.542686 q -3.636,0 -6.07808,-1.248177 -2.44209,-1.248178 -3.69027,-3.310385 -1.24818,-2.116475 -1.24818,-4.6671 0,-2.876235 1.46526,-4.884174 1.46525,-2.007938 4.45002,-3.039041 3.03904,-1.031104 7.65187,-1.031104 h 6.18663 v 5.915278 h -4.23296 q -1.95367,0 -2.87623,0.651223 -0.8683,0.596955 -0.8683,1.845132 0,1.031104 0.75976,1.736596 0.81403,0.651223 2.17075,0.651223 1.24817,0 2.27928,-0.651223 1.08537,-0.705492 1.57379,-2.170744 l 1.57379,3.635996 q -0.7055,3.310384 -2.98478,4.938442 -2.27928,1.628058 -6.13235,1.628058 z m 38.69351,0 q -3.85307,0 -7.16345,-1.845132 -3.25612,-1.899401 -5.20979,-5.318323 -1.95367,-3.47319 -1.95367,-8.248827 0,-4.775637 1.95367,-8.194559 1.95367,-3.47319 5.20979,-5.318323 3.31038,-1.845132 7.16345,-1.845132 3.90734,0 6.4037,1.682327 2.49635,1.628058 3.69026,5.046979 1.19391,3.364654 1.19391,8.628708 0,5.318323 -1.13964,8.737245 -1.08537,3.418921 -3.58173,5.046979 -2.44208,1.628058 -6.5665,1.628058 z m 2.93051,-9.551273 q 1.35671,0 2.44208,-0.651223 1.08538,-0.651224 1.7366,-1.95367 0.65122,-1.356715 0.65122,-3.256116 0,-1.95367 -0.65122,-3.201847 -0.65122,-1.302447 -1.7366,-1.95367 -1.08537,-0.651223 -2.44208,-0.651223 -1.35672,0 -2.44209,0.651223 -1.08537,0.651223 -1.7366,1.95367 -0.65122,1.248177 -0.65122,3.201847 0,1.899401 0.65122,3.256116 0.65123,1.302446 1.7366,1.95367 1.08537,0.651223 2.44209,0.651223 z m 5.20978,9.008587 v -4.015876 l -0.0543,-10.85372 -0.54268,-10.85372 V 45.27804 h 12.2647 v 40.267301 z"
         id="path2" />
      <path
         d="m 62.125361,153.38109 v -37.98802 h 18.722667 q 6.349427,0 11.179332,2.33355 4.829906,2.27928 7.543336,6.51223 2.713434,4.23295 2.713434,10.09396 0,5.91528 -2.713434,10.2025 -2.71343,4.23295 -7.543336,6.5665 -4.829905,2.27928 -11.179332,2.27928 z m 12.80739,-9.98542 h 5.372591 q 2.71343,0 4.721369,-1.0311 2.062207,-1.03111 3.201847,-3.03905 1.139641,-2.0622 1.139641,-4.99271 0,-2.87623 -1.139641,-4.88417 -1.13964,-2.00794 -3.201847,-3.03904 -2.007939,-1.03111 -4.721369,-1.03111 h -5.372591 z m 48.027719,10.52811 q -5.42686,0 -9.497,-2.00794 -4.01588,-2.00794 -6.24089,-5.48113 -2.22501,-3.52746 -2.22501,-7.92321 0,-4.5043 2.17074,-7.97749 2.22501,-3.47319 6.02381,-5.42686 3.85308,-1.95367 8.62871,-1.95367 4.39576,0 8.08602,1.7366 3.74454,1.73659 5.96955,5.15551 2.27928,3.41893 2.27928,8.46591 0,0.65122 -0.0543,1.46525 -0.0543,0.75976 -0.10853,1.41098 h -22.84709 v -5.91528 h 16.33485 l -4.61283,1.57379 q 0,-1.73659 -0.65122,-2.9305 -0.59696,-1.24818 -1.68233,-1.8994 -1.08537,-0.70549 -2.60489,-0.70549 -1.51952,0 -2.65916,0.70549 -1.08537,0.65122 -1.68233,1.8994 -0.59695,1.19391 -0.59695,2.9305 v 1.84514 q 0,1.8994 0.75976,3.25611 0.75976,1.35672 2.17074,2.06221 1.41098,0.65122 3.41892,0.65122 2.06221,0 3.36466,-0.54268 1.35671,-0.54269 2.82196,-1.62806 l 6.4037,6.45796 q -2.17075,2.33355 -5.37259,3.58173 -3.14758,1.19391 -7.59761,1.19391 z m 19.04827,-0.54269 v -40.2673 h 12.2647 v 40.2673 z m 17.69158,0 v -40.2673 h 12.26471 v 40.2673 z m 17.69158,0 v -29.68492 h 12.2647 v 29.68492 z m 6.13235,-32.07274 q -3.36465,0 -5.37259,-1.79086 -2.00794,-1.79087 -2.00794,-4.45003 0,-2.65916 2.00794,-4.45003 2.00794,-1.79086 5.37259,-1.79086 3.36465,0 5.37259,1.68233 2.00794,1.68232 2.00794,4.34149 0,2.82196 -2.00794,4.6671 -2.00794,1.79086 -5.37259,1.79086 z m 26.6459,43.14354 q -4.39576,0 -8.24883,-0.92257 -3.85307,-0.92257 -6.62077,-2.7677 l 4.12442,-8.35736 q 1.73659,1.35671 4.39575,2.11647 2.71343,0.81403 5.10125,0.81403 3.7988,0 5.42686,-1.62806 1.62806,-1.57379 1.62806,-4.55856 v -2.49635 l 0.54269,-9.22567 0.0543,-9.22566 v -4.50429 h 11.66775 v 23.76964 q 0,8.62871 -4.77563,12.80739 -4.77564,4.17869 -13.29581,4.17869 z m -2.38782,-12.69886 q -3.74453,0 -7.00065,-1.73659 -3.25611,-1.79086 -5.26405,-4.99271 -2.00794,-3.20185 -2.00794,-7.59761 0,-4.39575 2.00794,-7.5976 2.00794,-3.20185 5.26405,-4.93844 3.25612,-1.7366 7.00065,-1.7366 3.85307,0 6.29516,1.51952 2.49635,1.51952 3.69026,4.72137 1.19391,3.14758 1.19391,8.03175 0,4.88418 -1.19391,8.08603 -1.19391,3.14757 -3.69026,4.72136 -2.44209,1.51952 -6.29516,1.51952 z m 3.25612,-9.55127 q 1.46525,0 2.60489,-0.59695 1.13964,-0.59696 1.79086,-1.68233 0.65123,-1.08537 0.65123,-2.49636 0,-1.46525 -0.65123,-2.49635 -0.65122,-1.08537 -1.79086,-1.62806 -1.13964,-0.59695 -2.60489,-0.59695 -1.41099,0 -2.6049,0.59695 -1.13964,0.54269 -1.84513,1.62806 -0.65122,1.0311 -0.65122,2.49635 0,1.41099 0.65122,2.49636 0.70549,1.08537 1.84513,1.68233 1.19391,0.59695 2.6049,0.59695 z m 34.2435,11.72202 q -3.7988,0 -7.48907,-0.81403 -3.69026,-0.81403 -5.96954,-2.11648 l 3.36465,-8.08602 q 2.11648,1.24818 4.88417,1.95367 2.82197,0.70549 5.48113,0.70549 2.22502,0 2.98478,-0.37988 0.81403,-0.37988 0.81403,-1.0311 0,-0.65122 -0.92257,-0.92257 -0.92257,-0.32561 -2.44209,-0.48841 -1.51952,-0.16281 -3.36465,-0.37988 -1.79086,-0.27135 -3.636,-0.75976 -1.84513,-0.48842 -3.36465,-1.46526 -1.51952,-0.97683 -2.44209,-2.60489 -0.92256,-1.68233 -0.92256,-4.23295 0,-2.82197 1.68232,-5.10125 1.7366,-2.27928 5.10125,-3.63599 3.41892,-1.41099 8.41163,-1.41099 3.25612,0 6.51224,0.59696 3.25611,0.59695 5.58966,1.84513 l -3.36465,8.08602 q -2.27928,-1.24818 -4.50429,-1.68233 -2.17075,-0.48841 -4.07015,-0.48841 -2.33355,0 -3.20185,0.43414 -0.81403,0.43415 -0.81403,0.97684 0,0.65122 0.92257,0.97683 0.92257,0.32562 2.44209,0.48842 1.51952,0.16281 3.31038,0.43415 1.84513,0.21708 3.636,0.75976 1.84513,0.48842 3.36465,1.46525 1.51952,0.97684 2.44209,2.65916 0.92256,1.62806 0.92256,4.17869 0,2.65916 -1.68232,4.99271 -1.68233,2.27928 -5.10125,3.69026 -3.41892,1.35672 -8.57444,1.35672 z m 35.43743,0 q -5.42686,0 -9.49701,-2.00794 -4.01588,-2.00794 -6.24089,-5.48113 -2.22501,-3.52746 -2.22501,-7.92321 0,-4.5043 2.17074,-7.97749 2.22502,-3.47319 6.02382,-5.42686 3.85307,-1.95367 8.62871,-1.95367 4.39575,0 8.08602,1.7366 3.74453,1.73659 5.96954,5.15551 2.27928,3.41893 2.27928,8.46591 0,0.65122 -0.0543,1.46525 -0.0543,0.75976 -0.10854,1.41098 H 272.9047 v -5.91528 h 16.33485 l -4.61283,1.57379 q 0,-1.73659 -0.65123,-2.9305 -0.59695,-1.24818 -1.68232,-1.8994 -1.08538,-0.70549 -2.6049,-0.70549 -1.51952,0 -2.65916,0.70549 -1.08537,0.65122 -1.68233,1.8994 -0.59695,1.19391 -0.59695,2.9305 v 1.84514 q 0,1.8994 0.75976,3.25611 0.75976,1.35672 2.17074,2.06221 1.41099,0.65122 3.41893,0.65122 2.0622,0 3.36465,-0.54268 1.35671,-0.54269 2.82197,-1.62806 l 6.40369,6.45796 q -2.17074,2.33355 -5.37259,3.58173 -3.14758,1.19391 -7.5976,1.19391 z m 39.67034,-30.7703 q 3.41892,0 6.18662,1.41099 2.7677,1.35671 4.34149,4.28721 1.62806,2.93051 1.62806,7.59761 v 16.9318 h -12.26471 v -14.81533 q 0,-2.76769 -0.97683,-3.90734 -0.97684,-1.1939 -2.65916,-1.1939 -1.24818,0 -2.33355,0.59695 -1.03111,0.54269 -1.68233,1.84513 -0.59695,1.30245 -0.59695,3.52746 v 13.94703 h -12.26471 v -29.68492 h 11.66775 v 8.68297 l -2.33355,-2.49635 q 1.7366,-3.36466 4.6671,-5.04698 2.98477,-1.68233 6.62077,-1.68233 z"
         id="path3" />
    </g>
  </g>
</svg>
